STARTFONT 2.1
COMMENT
COMMENT Converted from OpenType font "SourceSansPro-Black.otf" by "otf2bdf 3.0".
COMMENT
FONT -FreeType-Source Sans Pro Black-Medium-R-Normal--17-120-100-100-P-89-ISO10646-1
SIZE 12 100 100
FONTBOUNDINGBOX 43 22 -7 -5
STARTPROPERTIES 19
FOUNDRY "FreeType"
FAMILY_NAME "Source Sans Pro Black"
WEIGHT_NAME "Medium"
SLANT "R"
SETWIDTH_NAME "Normal"
ADD_STYLE_NAME ""
PIXEL_SIZE 17
POINT_SIZE 120
RESOLUTION_X 100
RESOLUTION_Y 100
SPACING "P"
AVERAGE_WIDTH 89
CHARSET_REGISTRY "ISO10646"
CHARSET_ENCODING "1"
FONT_ASCENT 16
FONT_DESCENT 4
COPYRIGHT "Copyright 2010, 2012, 2014 Adobe Systems Incorporated (http://www.adobe.com/), with Reserved Font Name Source."
_OTF_FONTFILE "SourceSansPro-Black.otf"
_OTF_PSNAME "SourceSansPro-Black"
ENDPROPERTIES
CHARS 1296
STARTCHAR 0020
ENCODING 32
SWIDTH 180 0
DWIDTH 3 0
BBX 0 0 0 0
BITMAP
ENDCHAR
STARTCHAR 0021
ENCODING 33
SWIDTH 360 0
DWIDTH 6 0
BBX 4 11 1 0
BITMAP
60
60
60
60
60
60
60
00
E0
F0
60
ENDCHAR
STARTCHAR 0022
ENCODING 34
SWIDTH 600 0
DWIDTH 10 0
BBX 7 6 1 5
BITMAP
E6
E6
E6
E6
66
66
ENDCHAR
STARTCHAR 0023
ENCODING 35
SWIDTH 540 0
DWIDTH 9 0
BBX 8 11 1 0
BITMAP
24
24
64
FF
FF
6C
FE
FE
4C
48
C8
ENDCHAR
STARTCHAR 0024
ENCODING 36
SWIDTH 540 0
DWIDTH 9 0
BBX 7 15 1 -2
BITMAP
10
10
7C
FE
E4
E0
F8
7C
3E
0E
8E
FE
7C
10
10
ENDCHAR
STARTCHAR 0025
ENCODING 37
SWIDTH 900 0
DWIDTH 15 0
BBX 14 11 0 0
BITMAP
3860
7C40
CCC0
CC80
6D90
7B7C
136C
066C
046C
0C7C
0838
ENDCHAR
STARTCHAR 0026
ENCODING 38
SWIDTH 720 0
DWIDTH 12 0
BBX 11 11 0 0
BITMAP
1E00
3E00
3700
3600
3E00
38E0
7EC0
EFC0
E7C0
7FE0
3E60
ENDCHAR
STARTCHAR 0027
ENCODING 39
SWIDTH 300 0
DWIDTH 5 0
BBX 3 6 1 5
BITMAP
E0
E0
E0
E0
60
60
ENDCHAR
STARTCHAR 0028
ENCODING 40
SWIDTH 360 0
DWIDTH 6 0
BBX 4 15 1 -4
BITMAP
30
70
60
60
E0
E0
C0
C0
C0
E0
E0
60
60
30
30
ENDCHAR
STARTCHAR 0029
ENCODING 41
SWIDTH 360 0
DWIDTH 6 0
BBX 4 15 1 -4
BITMAP
C0
E0
60
60
70
70
30
30
30
70
70
60
60
C0
C0
ENDCHAR
STARTCHAR 002A
ENCODING 42
SWIDTH 480 0
DWIDTH 8 0
BBX 6 7 1 5
BITMAP
30
30
FC
78
78
D8
40
ENDCHAR
STARTCHAR 002B
ENCODING 43
SWIDTH 540 0
DWIDTH 9 0
BBX 7 8 1 2
BITMAP
38
38
38
FE
FE
38
38
38
ENDCHAR
STARTCHAR 002C
ENCODING 44
SWIDTH 300 0
DWIDTH 5 0
BBX 4 7 1 -4
BITMAP
E0
F0
F0
30
60
C0
80
ENDCHAR
STARTCHAR 002D
ENCODING 45
SWIDTH 360 0
DWIDTH 6 0
BBX 4 2 1 3
BITMAP
F0
F0
ENDCHAR
STARTCHAR 002E
ENCODING 46
SWIDTH 300 0
DWIDTH 5 0
BBX 3 3 1 0
BITMAP
E0
E0
E0
ENDCHAR
STARTCHAR 002F
ENCODING 47
SWIDTH 360 0
DWIDTH 6 0
BBX 5 15 0 -3
BITMAP
18
18
10
30
30
30
30
20
60
60
60
60
40
C0
C0
ENDCHAR
STARTCHAR 0030
ENCODING 48
SWIDTH 540 0
DWIDTH 9 0
BBX 7 11 1 0
BITMAP
38
7C
EE
C6
C6
C6
C6
C6
EE
7C
38
ENDCHAR
STARTCHAR 0031
ENCODING 49
SWIDTH 540 0
DWIDTH 9 0
BBX 7 11 1 0
BITMAP
38
F8
F8
38
38
38
38
38
38
FE
FE
ENDCHAR
STARTCHAR 0032
ENCODING 50
SWIDTH 540 0
DWIDTH 9 0
BBX 7 11 1 0
BITMAP
78
FC
CE
0E
0E
1C
3C
38
70
FE
FE
ENDCHAR
STARTCHAR 0033
ENCODING 51
SWIDTH 540 0
DWIDTH 9 0
BBX 8 11 0 0
BITMAP
3C
7F
27
07
1E
1E
07
07
67
FF
3C
ENDCHAR
STARTCHAR 0034
ENCODING 52
SWIDTH 540 0
DWIDTH 9 0
BBX 9 11 0 0
BITMAP
0F00
1F00
3F00
3700
7700
6700
FF80
FF80
0700
0700
0700
ENDCHAR
STARTCHAR 0035
ENCODING 53
SWIDTH 540 0
DWIDTH 9 0
BBX 8 11 0 0
BITMAP
7F
7F
70
70
7E
7F
07
07
67
FE
3C
ENDCHAR
STARTCHAR 0036
ENCODING 54
SWIDTH 540 0
DWIDTH 9 0
BBX 7 11 1 0
BITMAP
3C
7E
E4
E0
DC
FE
E6
C6
E6
7E
3C
ENDCHAR
STARTCHAR 0037
ENCODING 55
SWIDTH 540 0
DWIDTH 9 0
BBX 7 11 1 0
BITMAP
FE
FE
0E
0C
1C
18
38
38
38
30
30
ENDCHAR
STARTCHAR 0038
ENCODING 56
SWIDTH 540 0
DWIDTH 9 0
BBX 7 11 1 0
BITMAP
7C
FE
EE
E6
FC
7C
FE
C6
C6
FE
7C
ENDCHAR
STARTCHAR 0039
ENCODING 57
SWIDTH 540 0
DWIDTH 9 0
BBX 7 11 1 0
BITMAP
78
FC
CE
C6
CE
FE
76
0E
4E
FC
78
ENDCHAR
STARTCHAR 003A
ENCODING 58
SWIDTH 300 0
DWIDTH 5 0
BBX 3 9 1 0
BITMAP
E0
E0
E0
00
00
00
E0
E0
E0
ENDCHAR
STARTCHAR 003B
ENCODING 59
SWIDTH 300 0
DWIDTH 5 0
BBX 4 12 1 -3
BITMAP
E0
E0
E0
00
00
00
E0
F0
F0
30
60
C0
ENDCHAR
STARTCHAR 003C
ENCODING 60
SWIDTH 540 0
DWIDTH 9 0
BBX 7 8 1 2
BITMAP
02
0E
7E
F0
F0
7E
1E
02
ENDCHAR
STARTCHAR 003D
ENCODING 61
SWIDTH 540 0
DWIDTH 9 0
BBX 7 6 1 3
BITMAP
FE
FE
00
00
FE
FE
ENDCHAR
STARTCHAR 003E
ENCODING 62
SWIDTH 540 0
DWIDTH 9 0
BBX 7 8 1 2
BITMAP
80
E0
FC
1E
1E
FC
F0
80
ENDCHAR
STARTCHAR 003F
ENCODING 63
SWIDTH 480 0
DWIDTH 8 0
BBX 6 11 1 0
BITMAP
78
FC
0C
1C
38
30
70
00
70
70
30
ENDCHAR
STARTCHAR 0040
ENCODING 64
SWIDTH 900 0
DWIDTH 15 0
BBX 14 15 1 -4
BITMAP
07C0
1FF0
3038
63D8
CFCC
CCCC
DD8C
D988
DF98
CEF0
C060
6000
7000
3F80
0F80
ENDCHAR
STARTCHAR 0041
ENCODING 65
SWIDTH 600 0
DWIDTH 10 0
BBX 10 11 0 0
BITMAP
1E00
1E00
3E00
3F00
3700
7300
7380
7F80
7F80
E380
E1C0
ENDCHAR
STARTCHAR 0042
ENCODING 66
SWIDTH 600 0
DWIDTH 10 0
BBX 9 11 1 0
BITMAP
FE00
FF00
E700
E700
FE00
FF00
E380
E380
E780
FF00
FE00
ENDCHAR
STARTCHAR 0043
ENCODING 67
SWIDTH 600 0
DWIDTH 10 0
BBX 8 11 1 0
BITMAP
1E
7F
7E
E0
E0
E0
E0
E0
FF
7F
1E
ENDCHAR
STARTCHAR 0044
ENCODING 68
SWIDTH 660 0
DWIDTH 11 0
BBX 9 11 1 0
BITMAP
FC00
FF00
E700
E380
E380
E380
E380
E380
E700
FF00
FC00
ENDCHAR
STARTCHAR 0045
ENCODING 69
SWIDTH 540 0
DWIDTH 9 0
BBX 7 11 1 0
BITMAP
FE
FE
E0
E0
FE
FE
E0
E0
E0
FE
FE
ENDCHAR
STARTCHAR 0046
ENCODING 70
SWIDTH 540 0
DWIDTH 9 0
BBX 7 11 1 0
BITMAP
FE
FE
E0
E0
E0
FE
FE
E0
E0
E0
E0
ENDCHAR
STARTCHAR 0047
ENCODING 71
SWIDTH 660 0
DWIDTH 11 0
BBX 9 11 1 0
BITMAP
1E00
7F80
7B00
E000
E000
E780
E780
E380
FB80
7F80
1F00
ENDCHAR
STARTCHAR 0048
ENCODING 72
SWIDTH 660 0
DWIDTH 11 0
BBX 9 11 1 0
BITMAP
E380
E380
E380
E380
FF80
FF80
FF80
E380
E380
E380
E380
ENDCHAR
STARTCHAR 0049
ENCODING 73
SWIDTH 300 0
DWIDTH 5 0
BBX 3 11 1 0
BITMAP
E0
E0
E0
E0
E0
E0
E0
E0
E0
E0
E0
ENDCHAR
STARTCHAR 004A
ENCODING 74
SWIDTH 540 0
DWIDTH 9 0
BBX 7 11 1 0
BITMAP
0E
0E
0E
0E
0E
0E
0E
0E
DC
FC
78
ENDCHAR
STARTCHAR 004B
ENCODING 75
SWIDTH 600 0
DWIDTH 10 0
BBX 9 11 1 0
BITMAP
E380
E700
EE00
EC00
FC00
FC00
FE00
F700
E700
E380
E380
ENDCHAR
STARTCHAR 004C
ENCODING 76
SWIDTH 540 0
DWIDTH 9 0
BBX 7 11 1 0
BITMAP
E0
E0
E0
E0
E0
E0
E0
E0
E0
FE
FE
ENDCHAR
STARTCHAR 004D
ENCODING 77
SWIDTH 780 0
DWIDTH 13 0
BBX 11 11 1 0
BITMAP
E1E0
F1E0
F1E0
FBE0
DBE0
FBE0
FFE0
EEE0
EEE0
ECE0
E0E0
ENDCHAR
STARTCHAR 004E
ENCODING 78
SWIDTH 660 0
DWIDTH 11 0
BBX 9 11 1 0
BITMAP
E380
F380
F380
FB80
FB80
FF80
ED80
EF80
E780
E780
E380
ENDCHAR
STARTCHAR 004F
ENCODING 79
SWIDTH 720 0
DWIDTH 12 0
BBX 10 11 1 0
BITMAP
3E00
7F00
F780
E3C0
E1C0
E1C0
E1C0
E3C0
F780
7F00
3E00
ENDCHAR
STARTCHAR 0050
ENCODING 80
SWIDTH 600 0
DWIDTH 10 0
BBX 9 11 1 0
BITMAP
FE00
FF00
E700
E380
E700
FF00
FE00
E000
E000
E000
E000
ENDCHAR
STARTCHAR 0051
ENCODING 81
SWIDTH 720 0
DWIDTH 12 0
BBX 10 15 1 -4
BITMAP
3E00
7F00
FF80
E380
E1C0
E1C0
E1C0
E1C0
E380
7F80
7F00
1E00
0E00
07C0
03C0
ENDCHAR
STARTCHAR 0052
ENCODING 82
SWIDTH 660 0
DWIDTH 11 0
BBX 9 11 1 0
BITMAP
FE00
FF00
E780
E380
E380
FF00
FE00
EE00
E700
E700
E380
ENDCHAR
STARTCHAR 0053
ENCODING 83
SWIDTH 540 0
DWIDTH 9 0
BBX 8 11 1 0
BITMAP
3C
7F
FE
E0
F8
7E
1F
07
EF
FE
7C
ENDCHAR
STARTCHAR 0054
ENCODING 84
SWIDTH 540 0
DWIDTH 9 0
BBX 9 11 0 0
BITMAP
FF80
FF80
1C00
1C00
1C00
1C00
1C00
1C00
1C00
1C00
1C00
ENDCHAR
STARTCHAR 0055
ENCODING 85
SWIDTH 660 0
DWIDTH 11 0
BBX 9 11 1 0
BITMAP
E380
E380
E380
E380
E380
E380
E380
E380
7780
7F00
3E00
ENDCHAR
STARTCHAR 0056
ENCODING 86
SWIDTH 600 0
DWIDTH 10 0
BBX 10 11 0 0
BITMAP
E1C0
E380
6380
7380
7300
7300
3700
3F00
3E00
1E00
1E00
ENDCHAR
STARTCHAR 0057
ENCODING 87
SWIDTH 840 0
DWIDTH 14 0
BBX 13 11 0 0
BITMAP
E318
E718
6798
77B8
77B8
77B8
7DB8
7DF0
3CF0
3CF0
3CF0
ENDCHAR
STARTCHAR 0058
ENCODING 88
SWIDTH 600 0
DWIDTH 10 0
BBX 9 11 0 0
BITMAP
7380
7380
3F00
3F00
1E00
1E00
3E00
3F00
7700
7380
E380
ENDCHAR
STARTCHAR 0059
ENCODING 89
SWIDTH 540 0
DWIDTH 9 0
BBX 9 11 0 0
BITMAP
E380
6380
7700
7700
3600
3E00
1C00
1C00
1C00
1C00
1C00
ENDCHAR
STARTCHAR 005A
ENCODING 90
SWIDTH 540 0
DWIDTH 9 0
BBX 8 11 1 0
BITMAP
FF
FF
0E
1C
1C
38
70
70
E0
FF
FF
ENDCHAR
STARTCHAR 005B
ENCODING 91
SWIDTH 360 0
DWIDTH 6 0
BBX 4 15 1 -3
BITMAP
F0
F0
E0
E0
E0
E0
E0
E0
E0
E0
E0
E0
E0
F0
F0
ENDCHAR
STARTCHAR 005C
ENCODING 92
SWIDTH 360 0
DWIDTH 6 0
BBX 4 15 1 -3
BITMAP
80
C0
C0
C0
C0
60
60
60
60
60
30
30
30
30
30
ENDCHAR
STARTCHAR 005D
ENCODING 93
SWIDTH 360 0
DWIDTH 6 0
BBX 4 15 1 -3
BITMAP
F0
F0
70
70
70
70
70
70
70
70
70
70
70
F0
F0
ENDCHAR
STARTCHAR 005E
ENCODING 94
SWIDTH 540 0
DWIDTH 9 0
BBX 7 7 1 4
BITMAP
38
38
7C
6C
6C
EE
C6
ENDCHAR
STARTCHAR 005F
ENCODING 95
SWIDTH 480 0
DWIDTH 8 0
BBX 8 2 0 -3
BITMAP
FF
FF
ENDCHAR
STARTCHAR 0060
ENCODING 96
SWIDTH 540 0
DWIDTH 9 0
BBX 3 4 2 9
BITMAP
40
C0
E0
60
ENDCHAR
STARTCHAR 0061
ENCODING 97
SWIDTH 540 0
DWIDTH 9 0
BBX 7 9 1 0
BITMAP
7C
FE
4E
3E
FE
EE
CE
FE
76
ENDCHAR
STARTCHAR 0062
ENCODING 98
SWIDTH 600 0
DWIDTH 10 0
BBX 8 12 1 0
BITMAP
E0
E0
E0
FC
FE
E7
E7
E7
E7
EF
FE
DC
ENDCHAR
STARTCHAR 0063
ENCODING 99
SWIDTH 480 0
DWIDTH 8 0
BBX 6 9 1 0
BITMAP
3C
7C
E0
E0
C0
E0
E4
FC
3C
ENDCHAR
STARTCHAR 0064
ENCODING 100
SWIDTH 600 0
DWIDTH 10 0
BBX 8 12 1 0
BITMAP
07
07
07
7F
FF
EF
E7
E7
E7
EF
FF
7F
ENDCHAR
STARTCHAR 0065
ENCODING 101
SWIDTH 540 0
DWIDTH 9 0
BBX 7 9 1 0
BITMAP
3C
FE
E6
FE
FE
C0
E4
7E
3C
ENDCHAR
STARTCHAR 0066
ENCODING 102
SWIDTH 360 0
DWIDTH 6 0
BBX 6 12 0 0
BITMAP
1C
3C
70
FC
FC
70
70
70
70
70
70
70
ENDCHAR
STARTCHAR 0067
ENCODING 103
SWIDTH 540 0
DWIDTH 9 0
BBX 8 13 1 -4
BITMAP
7F
FF
CE
CE
FC
78
C0
FE
7F
C7
C7
FE
78
ENDCHAR
STARTCHAR 0068
ENCODING 104
SWIDTH 600 0
DWIDTH 10 0
BBX 8 12 1 0
BITMAP
E0
E0
E0
FE
FE
FF
E7
E7
E7
E7
E7
E7
ENDCHAR
STARTCHAR 0069
ENCODING 105
SWIDTH 300 0
DWIDTH 5 0
BBX 3 13 1 0
BITMAP
C0
E0
E0
00
E0
E0
E0
E0
E0
E0
E0
E0
E0
ENDCHAR
STARTCHAR 006A
ENCODING 106
SWIDTH 300 0
DWIDTH 5 0
BBX 5 17 -1 -4
BITMAP
38
38
38
00
38
38
38
38
38
38
38
38
38
38
38
F0
F0
ENDCHAR
STARTCHAR 006B
ENCODING 107
SWIDTH 540 0
DWIDTH 9 0
BBX 8 12 1 0
BITMAP
E0
E0
E0
E7
EE
FC
F8
FC
FC
EE
E7
E7
ENDCHAR
STARTCHAR 006C
ENCODING 108
SWIDTH 300 0
DWIDTH 5 0
BBX 4 12 1 0
BITMAP
E0
E0
E0
E0
E0
E0
E0
E0
E0
E0
F0
70
ENDCHAR
STARTCHAR 006D
ENCODING 109
SWIDTH 840 0
DWIDTH 14 0
BBX 13 9 1 0
BITMAP
DEF0
FFF0
FFF0
E738
E738
E738
E738
E738
E738
ENDCHAR
STARTCHAR 006E
ENCODING 110
SWIDTH 600 0
DWIDTH 10 0
BBX 8 9 1 0
BITMAP
DE
FE
FF
E7
E7
E7
E7
E7
E7
ENDCHAR
STARTCHAR 006F
ENCODING 111
SWIDTH 540 0
DWIDTH 9 0
BBX 8 9 1 0
BITMAP
3C
FE
EE
E7
C7
E7
EE
FE
3C
ENDCHAR
STARTCHAR 0070
ENCODING 112
SWIDTH 600 0
DWIDTH 10 0
BBX 8 13 1 -4
BITMAP
DE
FE
E7
E7
E7
E7
EF
FE
FC
E0
E0
E0
E0
ENDCHAR
STARTCHAR 0071
ENCODING 113
SWIDTH 600 0
DWIDTH 10 0
BBX 8 13 1 -4
BITMAP
7F
FF
EF
E7
E7
E7
EF
FF
7F
07
07
07
07
ENDCHAR
STARTCHAR 0072
ENCODING 114
SWIDTH 420 0
DWIDTH 7 0
BBX 6 9 1 0
BITMAP
CC
DC
FC
E0
E0
E0
E0
E0
E0
ENDCHAR
STARTCHAR 0073
ENCODING 115
SWIDTH 480 0
DWIDTH 8 0
BBX 6 9 1 0
BITMAP
78
FC
C8
F0
F8
3C
9C
FC
F8
ENDCHAR
STARTCHAR 0074
ENCODING 116
SWIDTH 420 0
DWIDTH 7 0
BBX 6 11 0 0
BITMAP
30
30
FC
FC
70
70
70
70
78
3C
1C
ENDCHAR
STARTCHAR 0075
ENCODING 117
SWIDTH 600 0
DWIDTH 10 0
BBX 8 9 1 0
BITMAP
E7
E7
E7
E7
E7
E7
EF
FF
77
ENDCHAR
STARTCHAR 0076
ENCODING 118
SWIDTH 540 0
DWIDTH 9 0
BBX 9 9 0 0
BITMAP
E380
6300
7300
7700
3700
3600
3600
3E00
1C00
ENDCHAR
STARTCHAR 0077
ENCODING 119
SWIDTH 780 0
DWIDTH 13 0
BBX 12 9 1 0
BITMAP
CE70
CE70
EE60
EF60
EB60
7BE0
7BE0
7BC0
79C0
ENDCHAR
STARTCHAR 0078
ENCODING 120
SWIDTH 540 0
DWIDTH 9 0
BBX 8 9 0 0
BITMAP
73
77
3E
3E
1C
3E
3E
77
E7
ENDCHAR
STARTCHAR 0079
ENCODING 121
SWIDTH 540 0
DWIDTH 9 0
BBX 9 13 0 -4
BITMAP
E380
6300
7300
7700
3700
3600
3E00
1E00
1C00
1C00
1C00
7800
7000
ENDCHAR
STARTCHAR 007A
ENCODING 122
SWIDTH 480 0
DWIDTH 8 0
BBX 7 9 1 0
BITMAP
FC
FC
1C
38
78
70
E0
FE
FE
ENDCHAR
STARTCHAR 007B
ENCODING 123
SWIDTH 360 0
DWIDTH 6 0
BBX 4 15 1 -3
BITMAP
70
70
60
60
60
60
E0
E0
60
60
60
60
60
70
10
ENDCHAR
STARTCHAR 007C
ENCODING 124
SWIDTH 300 0
DWIDTH 5 0
BBX 2 17 1 -4
BITMAP
C0
C0
C0
C0
C0
C0
C0
C0
C0
C0
C0
C0
C0
C0
C0
C0
C0
ENDCHAR
STARTCHAR 007D
ENCODING 125
SWIDTH 360 0
DWIDTH 6 0
BBX 5 15 1 -3
BITMAP
E0
E0
60
60
60
60
78
78
60
60
60
60
60
E0
80
ENDCHAR
STARTCHAR 007E
ENCODING 126
SWIDTH 540 0
DWIDTH 9 0
BBX 7 3 1 4
BITMAP
72
FE
9C
ENDCHAR
STARTCHAR 00A0
ENCODING 160
SWIDTH 240 0
DWIDTH 4 0
BBX 0 0 0 0
BITMAP
ENDCHAR
STARTCHAR 00A1
ENCODING 161
SWIDTH 360 0
DWIDTH 6 0
BBX 4 11 1 -2
BITMAP
60
F0
F0
00
60
60
60
60
60
60
60
ENDCHAR
STARTCHAR 00A2
ENCODING 162
SWIDTH 540 0
DWIDTH 9 0
BBX 7 12 1 -1
BITMAP
08
08
3E
7C
E8
E8
E8
E8
7E
3E
08
08
ENDCHAR
STARTCHAR 00A3
ENCODING 163
SWIDTH 540 0
DWIDTH 9 0
BBX 8 11 1 0
BITMAP
1E
7E
76
70
70
FC
FC
70
60
FF
FF
ENDCHAR
STARTCHAR 00A4
ENCODING 164
SWIDTH 540 0
DWIDTH 9 0
BBX 9 9 0 1
BITMAP
4100
7F00
7F00
6300
6300
7700
7F00
FF80
4100
ENDCHAR
STARTCHAR 00A5
ENCODING 165
SWIDTH 540 0
DWIDTH 9 0
BBX 9 11 0 0
BITMAP
E380
7300
7700
3600
3E00
7F00
1C00
7F00
1C00
1C00
1C00
ENDCHAR
STARTCHAR 00A6
ENCODING 166
SWIDTH 300 0
DWIDTH 5 0
BBX 2 17 1 -4
BITMAP
C0
C0
C0
C0
C0
C0
C0
C0
00
C0
C0
C0
C0
C0
C0
C0
C0
ENDCHAR
STARTCHAR 00A7
ENCODING 167
SWIDTH 540 0
DWIDTH 9 0
BBX 7 12 1 -1
BITMAP
7C
7C
E4
78
FC
CE
C6
FE
3C
4C
FC
F8
ENDCHAR
STARTCHAR 00A8
ENCODING 168
SWIDTH 540 0
DWIDTH 9 0
BBX 7 3 1 9
BITMAP
66
EE
44
ENDCHAR
STARTCHAR 00A9
ENCODING 169
SWIDTH 780 0
DWIDTH 13 0
BBX 11 11 1 0
BITMAP
1F00
6180
44C0
9F40
B860
B020
B860
9E40
4CC0
6180
1F00
ENDCHAR
STARTCHAR 00AA
ENCODING 170
SWIDTH 360 0
DWIDTH 6 0
BBX 5 5 0 6
BITMAP
78
78
78
D8
78
ENDCHAR
STARTCHAR 00AB
ENCODING 171
SWIDTH 480 0
DWIDTH 8 0
BBX 6 7 1 1
BITMAP
04
6C
D8
98
D8
6C
24
ENDCHAR
STARTCHAR 00AC
ENCODING 172
SWIDTH 540 0
DWIDTH 9 0
BBX 7 5 1 2
BITMAP
FE
FE
06
06
06
ENDCHAR
STARTCHAR 00AD
ENCODING 173
SWIDTH 360 0
DWIDTH 6 0
BBX 4 2 1 3
BITMAP
F0
F0
ENDCHAR
STARTCHAR 00AE
ENCODING 174
SWIDTH 480 0
DWIDTH 8 0
BBX 6 7 1 5
BITMAP
78
84
B4
B4
B4
8C
78
ENDCHAR
STARTCHAR 00AF
ENCODING 175
SWIDTH 540 0
DWIDTH 9 0
BBX 5 2 2 10
BITMAP
F8
F8
ENDCHAR
STARTCHAR 00B0
ENCODING 176
SWIDTH 360 0
DWIDTH 6 0
BBX 5 4 1 7
BITMAP
F0
98
98
F0
ENDCHAR
STARTCHAR 00B1
ENCODING 177
SWIDTH 540 0
DWIDTH 9 0
BBX 7 10 1 0
BITMAP
38
38
38
FE
FE
38
38
00
FE
FE
ENDCHAR
STARTCHAR 00B2
ENCODING 178
SWIDTH 360 0
DWIDTH 6 0
BBX 6 7 0 6
BITMAP
30
F8
58
18
30
7C
7C
ENDCHAR
STARTCHAR 00B3
ENCODING 179
SWIDTH 360 0
DWIDTH 6 0
BBX 5 7 1 6
BITMAP
F0
F0
30
70
18
F8
F0
ENDCHAR
STARTCHAR 00B4
ENCODING 180
SWIDTH 540 0
DWIDTH 9 0
BBX 4 4 4 9
BITMAP
20
70
E0
C0
ENDCHAR
STARTCHAR 00B5
ENCODING 181
SWIDTH 600 0
DWIDTH 10 0
BBX 9 12 1 -3
BITMAP
0700
E700
E700
E700
E700
E700
EF00
FF80
FB80
E000
E000
E000
ENDCHAR
STARTCHAR 00B6
ENCODING 182
SWIDTH 660 0
DWIDTH 11 0
BBX 9 12 1 -1
BITMAP
7B80
FB80
FB80
FB80
FB80
FB80
7B80
3B80
0380
0380
0380
0380
ENDCHAR
STARTCHAR 00B7
ENCODING 183
SWIDTH 300 0
DWIDTH 5 0
BBX 3 3 1 4
BITMAP
E0
E0
E0
ENDCHAR
STARTCHAR 00B8
ENCODING 184
SWIDTH 540 0
DWIDTH 9 0
BBX 3 4 3 -4
BITMAP
40
E0
60
E0
ENDCHAR
STARTCHAR 00B9
ENCODING 185
SWIDTH 360 0
DWIDTH 6 0
BBX 4 7 1 6
BITMAP
70
F0
30
30
30
30
30
ENDCHAR
STARTCHAR 00BA
ENCODING 186
SWIDTH 360 0
DWIDTH 6 0
BBX 6 6 0 6
BITMAP
38
7C
CC
CC
7C
38
ENDCHAR
STARTCHAR 00BB
ENCODING 187
SWIDTH 480 0
DWIDTH 8 0
BBX 7 6 1 2
BITMAP
D8
6C
26
6E
CC
88
ENDCHAR
STARTCHAR 00BC
ENCODING 188
SWIDTH 840 0
DWIDTH 14 0
BBX 13 11 1 0
BITMAP
6080
E180
6100
6300
6200
6670
6CF0
0DB0
19F8
1830
3030
ENDCHAR
STARTCHAR 00BD
ENCODING 189
SWIDTH 840 0
DWIDTH 14 0
BBX 13 11 1 0
BITMAP
6180
E100
6300
6200
6660
65F0
6CB0
0830
1870
10F8
30F8
ENDCHAR
STARTCHAR 00BE
ENCODING 190
SWIDTH 840 0
DWIDTH 14 0
BBX 13 11 1 0
BITMAP
F0C0
F180
3100
7300
1A00
FE70
F4F0
0DB0
09F8
1830
1030
ENDCHAR
STARTCHAR 00BF
ENCODING 191
SWIDTH 480 0
DWIDTH 8 0
BBX 6 13 1 -4
BITMAP
30
38
38
00
00
30
30
70
E0
C0
E8
FC
78
ENDCHAR
STARTCHAR 00C0
ENCODING 192
SWIDTH 600 0
DWIDTH 10 0
BBX 10 15 0 0
BITMAP
1000
3800
1C00
0000
1E00
1E00
3E00
3F00
3700
7300
7380
7F80
7F80
E380
E1C0
ENDCHAR
STARTCHAR 00C1
ENCODING 193
SWIDTH 600 0
DWIDTH 10 0
BBX 10 15 0 0
BITMAP
0200
0F00
0C00
0000
1E00
1E00
3E00
3F00
3700
7300
7380
7F80
7F80
E380
E1C0
ENDCHAR
STARTCHAR 00C2
ENCODING 194
SWIDTH 600 0
DWIDTH 10 0
BBX 10 14 0 0
BITMAP
1E00
3700
0200
1E00
1E00
3E00
3F00
3700
7300
7380
7F80
7F80
E380
E1C0
ENDCHAR
STARTCHAR 00C3
ENCODING 195
SWIDTH 600 0
DWIDTH 10 0
BBX 10 15 0 0
BITMAP
0300
3F00
3E00
0000
1E00
1E00
3E00
3F00
3700
7300
7380
7F80
7F80
E380
E1C0
ENDCHAR
STARTCHAR 00C4
ENCODING 196
SWIDTH 600 0
DWIDTH 10 0
BBX 10 15 0 0
BITMAP
2200
3700
3300
0000
1E00
1E00
3E00
3F00
3700
7300
7380
7F80
7F80
E380
E1C0
ENDCHAR
STARTCHAR 00C5
ENCODING 197
SWIDTH 600 0
DWIDTH 10 0
BBX 10 15 0 0
BITMAP
1C00
1600
1C00
0000
1E00
1E00
3E00
3F00
3700
7300
7380
7F80
7F80
E380
E1C0
ENDCHAR
STARTCHAR 00C6
ENCODING 198
SWIDTH 840 0
DWIDTH 14 0
BBX 13 11 0 0
BITMAP
0FF8
0FF8
1F80
1F80
1BF8
3BF8
3B80
7F80
7F80
E3F8
E3F8
ENDCHAR
STARTCHAR 00C7
ENCODING 199
SWIDTH 600 0
DWIDTH 10 0
BBX 8 15 1 -4
BITMAP
1E
7F
7E
E0
E0
E0
E0
E0
F3
7F
3E
08
1C
0E
1C
ENDCHAR
STARTCHAR 00C8
ENCODING 200
SWIDTH 540 0
DWIDTH 9 0
BBX 7 15 1 0
BITMAP
20
70
38
00
FE
FE
E0
E0
FE
FE
E0
E0
E0
FE
FE
ENDCHAR
STARTCHAR 00C9
ENCODING 201
SWIDTH 540 0
DWIDTH 9 0
BBX 7 15 1 0
BITMAP
04
1E
1C
00
FE
FE
E0
E0
FE
FE
E0
E0
E0
FE
FE
ENDCHAR
STARTCHAR 00CA
ENCODING 202
SWIDTH 540 0
DWIDTH 9 0
BBX 7 14 1 0
BITMAP
3C
6E
00
FE
FE
E0
E0
FE
FE
E0
E0
E0
FE
FE
ENDCHAR
STARTCHAR 00CB
ENCODING 203
SWIDTH 540 0
DWIDTH 9 0
BBX 7 15 1 0
BITMAP
44
6E
66
00
FE
FE
E0
E0
FE
FE
E0
E0
E0
FE
FE
ENDCHAR
STARTCHAR 00CC
ENCODING 204
SWIDTH 300 0
DWIDTH 5 0
BBX 4 15 0 0
BITMAP
C0
E0
70
00
70
70
70
70
70
70
70
70
70
70
70
ENDCHAR
STARTCHAR 00CD
ENCODING 205
SWIDTH 300 0
DWIDTH 5 0
BBX 5 15 1 0
BITMAP
30
78
60
40
E0
E0
E0
E0
E0
E0
E0
E0
E0
E0
E0
ENDCHAR
STARTCHAR 00CE
ENCODING 206
SWIDTH 300 0
DWIDTH 5 0
BBX 5 14 0 0
BITMAP
78
D8
00
70
70
70
70
70
70
70
70
70
70
70
ENDCHAR
STARTCHAR 00CF
ENCODING 207
SWIDTH 300 0
DWIDTH 5 0
BBX 7 15 -1 0
BITMAP
44
EE
6E
00
38
38
38
38
38
38
38
38
38
38
38
ENDCHAR
STARTCHAR 00D0
ENCODING 208
SWIDTH 660 0
DWIDTH 11 0
BBX 10 11 0 0
BITMAP
3F00
3F80
3BC0
39C0
39C0
FDC0
39C0
39C0
3BC0
3F80
3F00
ENDCHAR
STARTCHAR 00D1
ENCODING 209
SWIDTH 660 0
DWIDTH 11 0
BBX 9 15 1 0
BITMAP
0300
3F00
7E00
0000
E380
F380
F380
FB80
FB80
FF80
ED80
EF80
E780
E780
E380
ENDCHAR
STARTCHAR 00D2
ENCODING 210
SWIDTH 720 0
DWIDTH 12 0
BBX 10 15 1 0
BITMAP
1000
3800
1C00
0800
3E00
7F00
F780
E3C0
E1C0
E1C0
E1C0
E3C0
F780
7F00
3E00
ENDCHAR
STARTCHAR 00D3
ENCODING 211
SWIDTH 720 0
DWIDTH 12 0
BBX 10 15 1 0
BITMAP
0200
0F00
1E00
0800
3E00
7F00
F780
E3C0
E1C0
E1C0
E1C0
E3C0
F780
7F00
3E00
ENDCHAR
STARTCHAR 00D4
ENCODING 212
SWIDTH 720 0
DWIDTH 12 0
BBX 10 14 1 0
BITMAP
1E00
3600
0200
3E00
7F00
F780
E3C0
E1C0
E1C0
E1C0
E3C0
F780
7F00
3E00
ENDCHAR
STARTCHAR 00D5
ENCODING 213
SWIDTH 720 0
DWIDTH 12 0
BBX 10 15 1 0
BITMAP
0300
3F00
7E00
2000
3E00
7F00
F780
E3C0
E1C0
E1C0
E1C0
E3C0
F780
7F00
3E00
ENDCHAR
STARTCHAR 00D6
ENCODING 214
SWIDTH 720 0
DWIDTH 12 0
BBX 10 15 1 0
BITMAP
2200
3700
3300
0000
3E00
7F00
F780
E3C0
E1C0
E1C0
E1C0
E3C0
F780
7F00
3E00
ENDCHAR
STARTCHAR 00D7
ENCODING 215
SWIDTH 540 0
DWIDTH 9 0
BBX 7 7 1 2
BITMAP
44
EE
7C
38
7C
EE
C6
ENDCHAR
STARTCHAR 00D8
ENCODING 216
SWIDTH 720 0
DWIDTH 12 0
BBX 10 11 1 0
BITMAP
3EC0
7FC0
F780
E7C0
E7C0
EDC0
F9C0
F3C0
F780
FF00
FE00
ENDCHAR
STARTCHAR 00D9
ENCODING 217
SWIDTH 660 0
DWIDTH 11 0
BBX 9 15 1 0
BITMAP
3000
3800
1C00
0000
E380
E380
E380
E380
E380
E380
E380
E380
7780
7F00
3E00
ENDCHAR
STARTCHAR 00DA
ENCODING 218
SWIDTH 660 0
DWIDTH 11 0
BBX 9 15 1 0
BITMAP
0600
0F00
1C00
0800
E380
E380
E380
E380
E380
E380
E380
E380
7780
7F00
3E00
ENDCHAR
STARTCHAR 00DB
ENCODING 219
SWIDTH 660 0
DWIDTH 11 0
BBX 9 14 1 0
BITMAP
1E00
3600
0000
E380
E380
E380
E380
E380
E380
E380
E380
7780
7F00
3E00
ENDCHAR
STARTCHAR 00DC
ENCODING 220
SWIDTH 660 0
DWIDTH 11 0
BBX 9 15 1 0
BITMAP
2200
7700
3700
0000
E380
E380
E380
E380
E380
E380
E380
E380
7780
7F00
3E00
ENDCHAR
STARTCHAR 00DD
ENCODING 221
SWIDTH 540 0
DWIDTH 9 0
BBX 9 15 0 0
BITMAP
0600
0F00
1C00
0800
E380
6380
7700
7700
3600
3E00
1C00
1C00
1C00
1C00
1C00
ENDCHAR
STARTCHAR 00DE
ENCODING 222
SWIDTH 660 0
DWIDTH 11 0
BBX 9 11 1 0
BITMAP
E000
E000
FE00
FF00
E380
E380
E780
FF00
FE00
E000
E000
ENDCHAR
STARTCHAR 00DF
ENCODING 223
SWIDTH 660 0
DWIDTH 11 0
BBX 9 12 1 0
BITMAP
3C00
7E00
E700
E700
E600
EE00
EE00
E780
E380
E180
EF80
EF00
ENDCHAR
STARTCHAR 00E0
ENCODING 224
SWIDTH 540 0
DWIDTH 9 0
BBX 7 14 1 1
BITMAP
60
F0
38
10
00
7C
FE
4E
3E
FE
EE
CE
FE
76
ENDCHAR
STARTCHAR 00E1
ENCODING 225
SWIDTH 540 0
DWIDTH 9 0
BBX 7 14 1 1
BITMAP
0C
0E
1C
08
00
7C
FE
4E
3E
FE
EE
CE
FE
76
ENDCHAR
STARTCHAR 00E2
ENCODING 226
SWIDTH 540 0
DWIDTH 9 0
BBX 7 13 1 0
BITMAP
3C
7C
66
00
7C
FE
4E
3E
FE
EE
CE
FE
76
ENDCHAR
STARTCHAR 00E3
ENCODING 227
SWIDTH 540 0
DWIDTH 9 0
BBX 7 13 1 0
BITMAP
76
7E
DC
00
7C
FE
4E
3E
FE
EE
CE
FE
76
ENDCHAR
STARTCHAR 00E4
ENCODING 228
SWIDTH 540 0
DWIDTH 9 0
BBX 7 13 1 0
BITMAP
44
EE
66
00
7C
FE
4E
3E
FE
EE
CE
FE
76
ENDCHAR
STARTCHAR 00E5
ENCODING 229
SWIDTH 540 0
DWIDTH 9 0
BBX 7 13 1 0
BITMAP
38
6C
38
00
7C
FE
4E
3E
FE
EE
CE
FE
76
ENDCHAR
STARTCHAR 00E6
ENCODING 230
SWIDTH 780 0
DWIDTH 13 0
BBX 11 9 1 0
BITMAP
7BC0
FFE0
4E60
3FE0
FFE0
EE00
EF40
FFE0
73C0
ENDCHAR
STARTCHAR 00E7
ENCODING 231
SWIDTH 480 0
DWIDTH 8 0
BBX 6 13 1 -4
BITMAP
3C
7C
E0
E0
C0
E0
E4
FC
3C
10
38
18
38
ENDCHAR
STARTCHAR 00E8
ENCODING 232
SWIDTH 540 0
DWIDTH 9 0
BBX 7 14 1 1
BITMAP
60
F0
78
10
00
3C
FE
E6
FE
FE
C0
E4
7E
3C
ENDCHAR
STARTCHAR 00E9
ENCODING 233
SWIDTH 540 0
DWIDTH 9 0
BBX 7 14 1 1
BITMAP
0C
1E
1C
10
00
3C
FE
E6
FE
FE
C0
E4
7E
3C
ENDCHAR
STARTCHAR 00EA
ENCODING 234
SWIDTH 540 0
DWIDTH 9 0
BBX 7 13 1 0
BITMAP
38
7C
44
00
3C
FE
E6
FE
FE
C0
E4
7E
3C
ENDCHAR
STARTCHAR 00EB
ENCODING 235
SWIDTH 540 0
DWIDTH 9 0
BBX 7 13 1 0
BITMAP
44
EE
6C
00
3C
FE
E6
FE
FE
C0
E4
7E
3C
ENDCHAR
STARTCHAR 00EC
ENCODING 236
SWIDTH 300 0
DWIDTH 5 0
BBX 5 14 -1 1
BITMAP
60
F0
70
00
00
38
38
38
38
38
38
38
38
38
ENDCHAR
STARTCHAR 00ED
ENCODING 237
SWIDTH 300 0
DWIDTH 5 0
BBX 4 14 1 1
BITMAP
30
70
E0
40
00
E0
E0
E0
E0
E0
E0
E0
E0
E0
ENDCHAR
STARTCHAR 00EE
ENCODING 238
SWIDTH 300 0
DWIDTH 5 0
BBX 5 13 0 0
BITMAP
70
F8
88
00
70
70
70
70
70
70
70
70
70
ENDCHAR
STARTCHAR 00EF
ENCODING 239
SWIDTH 300 0
DWIDTH 5 0
BBX 7 13 -1 0
BITMAP
44
EE
EC
00
38
38
38
38
38
38
38
38
38
ENDCHAR
STARTCHAR 00F0
ENCODING 240
SWIDTH 540 0
DWIDTH 9 0
BBX 8 13 1 0
BITMAP
02
7E
3C
FC
4E
76
FF
E7
C7
C7
EE
FE
3C
ENDCHAR
STARTCHAR 00F1
ENCODING 241
SWIDTH 600 0
DWIDTH 10 0
BBX 8 13 1 0
BITMAP
32
7E
6E
00
DE
FE
FF
E7
E7
E7
E7
E7
E7
ENDCHAR
STARTCHAR 00F2
ENCODING 242
SWIDTH 540 0
DWIDTH 9 0
BBX 8 14 1 1
BITMAP
60
F0
38
10
00
3C
FE
EE
E7
C7
E7
EE
FE
3C
ENDCHAR
STARTCHAR 00F3
ENCODING 243
SWIDTH 540 0
DWIDTH 9 0
BBX 8 14 1 1
BITMAP
0C
0E
1C
18
00
3C
FE
EE
E7
C7
E7
EE
FE
3C
ENDCHAR
STARTCHAR 00F4
ENCODING 244
SWIDTH 540 0
DWIDTH 9 0
BBX 8 13 1 0
BITMAP
3C
7C
66
00
3C
FE
EE
E7
C7
E7
EE
FE
3C
ENDCHAR
STARTCHAR 00F5
ENCODING 245
SWIDTH 540 0
DWIDTH 9 0
BBX 8 13 1 0
BITMAP
76
7E
DC
00
3C
FE
EE
E7
C7
E7
EE
FE
3C
ENDCHAR
STARTCHAR 00F6
ENCODING 246
SWIDTH 540 0
DWIDTH 9 0
BBX 8 13 1 0
BITMAP
44
EE
66
00
3C
FE
EE
E7
C7
E7
EE
FE
3C
ENDCHAR
STARTCHAR 00F7
ENCODING 247
SWIDTH 540 0
DWIDTH 9 0
BBX 7 9 1 1
BITMAP
38
38
38
FE
FE
FE
38
38
38
ENDCHAR
STARTCHAR 00F8
ENCODING 248
SWIDTH 540 0
DWIDTH 9 0
BBX 8 9 1 0
BITMAP
3F
FE
EE
CF
D7
F7
EE
FE
BC
ENDCHAR
STARTCHAR 00F9
ENCODING 249
SWIDTH 600 0
DWIDTH 10 0
BBX 8 14 1 1
BITMAP
60
70
38
10
00
E7
E7
E7
E7
E7
E7
EF
FF
77
ENDCHAR
STARTCHAR 00FA
ENCODING 250
SWIDTH 600 0
DWIDTH 10 0
BBX 8 15 1 0
BITMAP
04
0E
0E
1C
08
00
E7
E7
E7
E7
E7
E7
EF
FF
77
ENDCHAR
STARTCHAR 00FB
ENCODING 251
SWIDTH 600 0
DWIDTH 10 0
BBX 8 13 1 0
BITMAP
3C
7E
66
00
E7
E7
E7
E7
E7
E7
EF
FF
77
ENDCHAR
STARTCHAR 00FC
ENCODING 252
SWIDTH 600 0
DWIDTH 10 0
BBX 8 13 1 0
BITMAP
64
6E
66
00
E7
E7
E7
E7
E7
E7
EF
FF
77
ENDCHAR
STARTCHAR 00FD
ENCODING 253
SWIDTH 540 0
DWIDTH 9 0
BBX 9 18 0 -3
BITMAP
0600
0F00
0C00
0000
0000
E380
6300
7300
7700
3700
3600
3E00
1E00
1C00
1C00
1C00
7800
7000
ENDCHAR
STARTCHAR 00FE
ENCODING 254
SWIDTH 600 0
DWIDTH 10 0
BBX 8 16 1 -4
BITMAP
E0
E0
E0
FC
FE
E7
E7
E7
E7
EF
FE
FC
E0
E0
E0
E0
ENDCHAR
STARTCHAR 00FF
ENCODING 255
SWIDTH 540 0
DWIDTH 9 0
BBX 9 17 0 -4
BITMAP
2200
7700
3700
0000
E380
6300
7300
7700
3700
3600
3E00
1E00
1C00
1C00
1C00
7800
7000
ENDCHAR
STARTCHAR 0100
ENCODING 256
SWIDTH 600 0
DWIDTH 10 0
BBX 10 14 0 0
BITMAP
3E00
3E00
0000
1E00
1E00
3E00
3F00
3700
7300
7380
7F80
7F80
E380
E1C0
ENDCHAR
STARTCHAR 0101
ENCODING 257
SWIDTH 540 0
DWIDTH 9 0
BBX 7 12 1 0
BITMAP
7C
7C
00
7C
FE
4E
3E
FE
EE
CE
FE
76
ENDCHAR
STARTCHAR 0102
ENCODING 258
SWIDTH 600 0
DWIDTH 10 0
BBX 10 15 0 0
BITMAP
1200
3E00
1E00
0000
1E00
1E00
3E00
3F00
3700
7300
7380
7F80
7F80
E380
E1C0
ENDCHAR
STARTCHAR 0103
ENCODING 259
SWIDTH 540 0
DWIDTH 9 0
BBX 7 13 1 0
BITMAP
46
7C
3C
00
7C
FE
4E
3E
FE
EE
CE
FE
76
ENDCHAR
STARTCHAR 0104
ENCODING 260
SWIDTH 600 0
DWIDTH 10 0
BBX 10 15 0 -4
BITMAP
1E00
1E00
3E00
3F00
3700
7300
7380
7F80
7F80
E380
E1C0
0180
0300
03C0
01C0
ENDCHAR
STARTCHAR 0105
ENCODING 261
SWIDTH 540 0
DWIDTH 9 0
BBX 7 14 1 -5
BITMAP
7C
FE
4E
3E
FE
EE
CE
FE
76
0C
0C
0C
0E
04
ENDCHAR
STARTCHAR 0106
ENCODING 262
SWIDTH 600 0
DWIDTH 10 0
BBX 8 15 1 0
BITMAP
02
0F
0E
08
1E
7F
7E
E0
E0
E0
E0
E0
FF
7F
1E
ENDCHAR
STARTCHAR 0107
ENCODING 263
SWIDTH 480 0
DWIDTH 8 0
BBX 7 15 1 0
BITMAP
04
06
0E
1C
08
00
3C
7C
E0
E0
C0
E0
E4
FC
3C
ENDCHAR
STARTCHAR 0108
ENCODING 264
SWIDTH 600 0
DWIDTH 10 0
BBX 8 14 1 0
BITMAP
1E
36
02
1E
7F
7E
E0
E0
E0
E0
E0
FF
7F
1E
ENDCHAR
STARTCHAR 0109
ENCODING 265
SWIDTH 480 0
DWIDTH 8 0
BBX 7 13 1 0
BITMAP
3C
7E
66
00
3C
7C
E0
E0
C0
E0
E4
FC
3C
ENDCHAR
STARTCHAR 010A
ENCODING 266
SWIDTH 600 0
DWIDTH 10 0
BBX 8 15 1 0
BITMAP
0C
1C
0C
00
1E
7F
7E
E0
E0
E0
E0
E0
FF
7F
1E
ENDCHAR
STARTCHAR 010B
ENCODING 267
SWIDTH 480 0
DWIDTH 8 0
BBX 6 13 1 0
BITMAP
18
38
18
00
3C
7C
E0
E0
C0
E0
E4
FC
3C
ENDCHAR
STARTCHAR 010C
ENCODING 268
SWIDTH 600 0
DWIDTH 10 0
BBX 8 14 1 0
BITMAP
37
1E
00
1E
7F
7E
E0
E0
E0
E0
E0
FF
7F
1E
ENDCHAR
STARTCHAR 010D
ENCODING 269
SWIDTH 480 0
DWIDTH 8 0
BBX 7 13 1 0
BITMAP
66
7E
3C
00
3C
7C
E0
E0
C0
E0
E4
FC
3C
ENDCHAR
STARTCHAR 010E
ENCODING 270
SWIDTH 660 0
DWIDTH 11 0
BBX 9 14 1 0
BITMAP
7600
3C00
0000
FC00
FF00
E700
E380
E380
E380
E380
E380
E700
FF00
FC00
ENDCHAR
STARTCHAR 010F
ENCODING 271
SWIDTH 660 0
DWIDTH 11 0
BBX 10 14 1 0
BITMAP
00C0
00C0
07C0
07C0
0700
7F00
FF00
EF00
E700
E700
E700
EF00
FF00
7F00
ENDCHAR
STARTCHAR 0110
ENCODING 272
SWIDTH 660 0
DWIDTH 11 0
BBX 10 11 0 0
BITMAP
3F00
3F80
3BC0
39C0
39C0
FDC0
39C0
39C0
3BC0
3F80
3F00
ENDCHAR
STARTCHAR 0111
ENCODING 273
SWIDTH 600 0
DWIDTH 10 0
BBX 9 12 1 0
BITMAP
0700
3F80
0700
0700
7F00
FF00
EF00
E700
E700
EF00
FF00
7F00
ENDCHAR
STARTCHAR 0112
ENCODING 274
SWIDTH 540 0
DWIDTH 9 0
BBX 7 14 1 0
BITMAP
7C
7C
00
FE
FE
E0
E0
FE
FE
E0
E0
E0
FE
FE
ENDCHAR
STARTCHAR 0113
ENCODING 275
SWIDTH 540 0
DWIDTH 9 0
BBX 7 12 1 0
BITMAP
7C
7C
00
3C
FE
E6
FE
FE
C0
E4
7E
3C
ENDCHAR
STARTCHAR 0114
ENCODING 276
SWIDTH 540 0
DWIDTH 9 0
BBX 7 15 1 0
BITMAP
24
7C
3C
00
FE
FE
E0
E0
FE
FE
E0
E0
E0
FE
FE
ENDCHAR
STARTCHAR 0115
ENCODING 277
SWIDTH 540 0
DWIDTH 9 0
BBX 7 13 1 0
BITMAP
44
7C
38
00
3C
FE
E6
FE
FE
C0
E4
7E
3C
ENDCHAR
STARTCHAR 0116
ENCODING 278
SWIDTH 540 0
DWIDTH 9 0
BBX 7 15 1 0
BITMAP
18
38
18
00
FE
FE
E0
E0
FE
FE
E0
E0
E0
FE
FE
ENDCHAR
STARTCHAR 0117
ENCODING 279
SWIDTH 540 0
DWIDTH 9 0
BBX 7 13 1 0
BITMAP
38
38
38
00
3C
FE
E6
FE
FE
C0
E4
7E
3C
ENDCHAR
STARTCHAR 0118
ENCODING 280
SWIDTH 540 0
DWIDTH 9 0
BBX 7 15 1 -4
BITMAP
FE
FE
E0
E0
FE
FE
E0
E0
E0
FE
FE
04
0C
0E
06
ENDCHAR
STARTCHAR 0119
ENCODING 281
SWIDTH 540 0
DWIDTH 9 0
BBX 7 14 1 -5
BITMAP
3C
FE
E6
FE
FE
C0
E4
7E
3C
08
18
18
1E
0C
ENDCHAR
STARTCHAR 011A
ENCODING 282
SWIDTH 540 0
DWIDTH 9 0
BBX 7 14 1 0
BITMAP
66
3C
00
FE
FE
E0
E0
FE
FE
E0
E0
E0
FE
FE
ENDCHAR
STARTCHAR 011B
ENCODING 283
SWIDTH 540 0
DWIDTH 9 0
BBX 7 13 1 0
BITMAP
44
7C
38
00
3C
FE
E6
FE
FE
C0
E4
7E
3C
ENDCHAR
STARTCHAR 011C
ENCODING 284
SWIDTH 660 0
DWIDTH 11 0
BBX 9 14 1 0
BITMAP
1E00
1B00
1000
1E00
7F80
7B00
E000
E000
E780
E780
E380
FB80
7F80
1F00
ENDCHAR
STARTCHAR 011D
ENCODING 285
SWIDTH 540 0
DWIDTH 9 0
BBX 8 17 1 -4
BITMAP
3C
7C
46
00
7F
FF
CE
CE
FC
78
C0
FE
7F
C7
C7
FE
78
ENDCHAR
STARTCHAR 011E
ENCODING 286
SWIDTH 660 0
DWIDTH 11 0
BBX 9 15 1 0
BITMAP
1200
1F00
1E00
0000
1E00
7F80
7B00
E000
E000
E780
E780
E380
FB80
7F80
1F00
ENDCHAR
STARTCHAR 011F
ENCODING 287
SWIDTH 540 0
DWIDTH 9 0
BBX 8 17 1 -4
BITMAP
66
7C
38
00
7F
FF
CE
CE
FC
78
C0
FE
7F
C7
C7
FE
78
ENDCHAR
STARTCHAR 0120
ENCODING 288
SWIDTH 660 0
DWIDTH 11 0
BBX 9 15 1 0
BITMAP
0C00
0E00
0C00
0000
1E00
7F80
7B00
E000
E000
E780
E780
E380
FB80
7F80
1F00
ENDCHAR
STARTCHAR 0121
ENCODING 289
SWIDTH 540 0
DWIDTH 9 0
BBX 8 17 1 -4
BITMAP
18
38
18
00
7F
FF
CE
CE
FC
78
C0
FE
7F
C7
C7
FE
78
ENDCHAR
STARTCHAR 0122
ENCODING 290
SWIDTH 660 0
DWIDTH 11 0
BBX 9 15 1 -4
BITMAP
1E00
7F80
7B00
E000
E000
E780
E780
E380
FB80
7F80
1F00
0000
0C00
0600
1C00
ENDCHAR
STARTCHAR 0123
ENCODING 291
SWIDTH 540 0
DWIDTH 9 0
BBX 8 17 1 -4
BITMAP
1C
30
38
00
7F
FF
CE
CE
FC
78
C0
FE
7F
C7
C7
FE
78
ENDCHAR
STARTCHAR 0124
ENCODING 292
SWIDTH 660 0
DWIDTH 11 0
BBX 9 14 1 0
BITMAP
1E00
3600
0000
E380
E380
E380
E380
FF80
FF80
FF80
E380
E380
E380
E380
ENDCHAR
STARTCHAR 0125
ENCODING 293
SWIDTH 600 0
DWIDTH 10 0
BBX 10 15 -1 0
BITMAP
7800
EC00
0000
3800
3800
3800
3F80
3F80
3FC0
39C0
39C0
39C0
39C0
39C0
39C0
ENDCHAR
STARTCHAR 0126
ENCODING 294
SWIDTH 720 0
DWIDTH 12 0
BBX 12 11 0 0
BITMAP
30E0
30E0
FFF0
30E0
3FE0
3FE0
3FE0
30E0
30E0
30E0
30E0
ENDCHAR
STARTCHAR 0127
ENCODING 295
SWIDTH 600 0
DWIDTH 10 0
BBX 9 12 0 0
BITMAP
7000
FE00
7000
7000
7F00
7F00
7F80
7380
7380
7380
7380
7380
ENDCHAR
STARTCHAR 0128
ENCODING 296
SWIDTH 300 0
DWIDTH 5 0
BBX 7 15 -1 0
BITMAP
06
7E
FC
00
38
38
38
38
38
38
38
38
38
38
38
ENDCHAR
STARTCHAR 0129
ENCODING 297
SWIDTH 300 0
DWIDTH 5 0
BBX 7 13 -1 0
BITMAP
76
FE
DC
00
38
38
38
38
38
38
38
38
38
ENDCHAR
STARTCHAR 012A
ENCODING 298
SWIDTH 300 0
DWIDTH 5 0
BBX 5 14 0 0
BITMAP
F8
F8
00
70
70
70
70
70
70
70
70
70
70
70
ENDCHAR
STARTCHAR 012B
ENCODING 299
SWIDTH 300 0
DWIDTH 5 0
BBX 5 12 0 0
BITMAP
F8
F8
00
70
70
70
70
70
70
70
70
70
ENDCHAR
STARTCHAR 012C
ENCODING 300
SWIDTH 300 0
DWIDTH 5 0
BBX 5 14 0 1
BITMAP
F8
78
00
70
70
70
70
70
70
70
70
70
70
70
ENDCHAR
STARTCHAR 012D
ENCODING 301
SWIDTH 300 0
DWIDTH 5 0
BBX 5 13 0 0
BITMAP
98
F8
70
00
70
70
70
70
70
70
70
70
70
ENDCHAR
STARTCHAR 012E
ENCODING 302
SWIDTH 300 0
DWIDTH 5 0
BBX 3 15 1 -4
BITMAP
E0
E0
E0
E0
E0
E0
E0
E0
E0
E0
E0
C0
C0
E0
E0
ENDCHAR
STARTCHAR 012F
ENCODING 303
SWIDTH 300 0
DWIDTH 5 0
BBX 3 18 1 -5
BITMAP
C0
E0
E0
00
E0
E0
E0
E0
E0
E0
E0
E0
E0
C0
C0
C0
E0
40
ENDCHAR
STARTCHAR 0130
ENCODING 304
SWIDTH 300 0
DWIDTH 5 0
BBX 3 15 1 0
BITMAP
60
E0
E0
00
E0
E0
E0
E0
E0
E0
E0
E0
E0
E0
E0
ENDCHAR
STARTCHAR 0131
ENCODING 305
SWIDTH 300 0
DWIDTH 5 0
BBX 3 9 1 0
BITMAP
E0
E0
E0
E0
E0
E0
E0
E0
E0
ENDCHAR
STARTCHAR 0132
ENCODING 306
SWIDTH 660 0
DWIDTH 11 0
BBX 8 15 1 -4
BITMAP
E7
E7
E7
E7
E7
E7
E7
E7
E7
E7
E7
07
07
0F
0E
ENDCHAR
STARTCHAR 0133
ENCODING 307
SWIDTH 600 0
DWIDTH 10 0
BBX 8 16 1 -4
BITMAP
E6
E7
E6
00
E7
E7
E7
E7
E7
E7
E7
E7
E7
07
1E
1C
ENDCHAR
STARTCHAR 0134
ENCODING 308
SWIDTH 540 0
DWIDTH 9 0
BBX 8 14 1 0
BITMAP
1E
3F
00
0E
0E
0E
0E
0E
0E
0E
0E
DC
FC
78
ENDCHAR
STARTCHAR 0135
ENCODING 309
SWIDTH 300 0
DWIDTH 5 0
BBX 6 17 -1 -4
BITMAP
38
7C
44
00
38
38
38
38
38
38
38
38
38
38
38
F0
F0
ENDCHAR
STARTCHAR 0136
ENCODING 310
SWIDTH 600 0
DWIDTH 10 0
BBX 9 15 1 -4
BITMAP
E380
E700
EE00
EC00
FC00
FC00
FE00
F700
E700
E380
E380
0000
1C00
0C00
1C00
ENDCHAR
STARTCHAR 0137
ENCODING 311
SWIDTH 540 0
DWIDTH 9 0
BBX 8 16 1 -4
BITMAP
E0
E0
E0
E7
EE
FC
F8
FC
FC
EE
E7
E7
00
18
0C
38
ENDCHAR
STARTCHAR 0138
ENCODING 312
SWIDTH 540 0
DWIDTH 9 0
BBX 8 9 1 0
BITMAP
E7
EE
FC
FC
FC
FC
EE
EF
E7
ENDCHAR
STARTCHAR 0139
ENCODING 313
SWIDTH 540 0
DWIDTH 9 0
BBX 7 15 1 0
BITMAP
30
78
60
40
E0
E0
E0
E0
E0
E0
E0
E0
E0
FE
FE
ENDCHAR
STARTCHAR 013A
ENCODING 314
SWIDTH 300 0
DWIDTH 5 0
BBX 5 16 1 0
BITMAP
30
78
60
00
E0
E0
E0
E0
E0
E0
E0
E0
E0
E0
F0
70
ENDCHAR
STARTCHAR 013B
ENCODING 315
SWIDTH 540 0
DWIDTH 9 0
BBX 7 15 1 -4
BITMAP
E0
E0
E0
E0
E0
E0
E0
E0
E0
FE
FE
00
18
0C
38
ENDCHAR
STARTCHAR 013C
ENCODING 316
SWIDTH 300 0
DWIDTH 5 0
BBX 4 16 1 -4
BITMAP
E0
E0
E0
E0
E0
E0
E0
E0
E0
E0
F0
70
00
70
30
E0
ENDCHAR
STARTCHAR 013D
ENCODING 317
SWIDTH 540 0
DWIDTH 9 0
BBX 7 13 1 0
BITMAP
06
06
E4
E4
E0
E0
E0
E0
E0
E0
E0
FE
FE
ENDCHAR
STARTCHAR 013E
ENCODING 318
SWIDTH 360 0
DWIDTH 6 0
BBX 5 13 1 0
BITMAP
18
F8
F8
E0
E0
E0
E0
E0
E0
E0
E0
F0
70
ENDCHAR
STARTCHAR 013F
ENCODING 319
SWIDTH 540 0
DWIDTH 9 0
BBX 8 11 1 0
BITMAP
E0
E0
E0
E0
E7
EF
E6
E0
E0
FE
FE
ENDCHAR
STARTCHAR 0140
ENCODING 320
SWIDTH 480 0
DWIDTH 8 0
BBX 7 12 1 0
BITMAP
E0
E0
E0
E0
E0
EE
EE
EE
E0
E0
F0
70
ENDCHAR
STARTCHAR 0141
ENCODING 321
SWIDTH 540 0
DWIDTH 9 0
BBX 9 11 -1 0
BITMAP
3800
3800
3800
3B00
3F00
3E00
F800
7800
3800
3F80
3F80
ENDCHAR
STARTCHAR 0142
ENCODING 322
SWIDTH 300 0
DWIDTH 5 0
BBX 6 12 0 0
BITMAP
70
70
70
78
7C
F8
F0
F0
70
70
78
38
ENDCHAR
STARTCHAR 0143
ENCODING 323
SWIDTH 660 0
DWIDTH 11 0
BBX 9 15 1 0
BITMAP
0600
0F00
1C00
0800
E380
F380
F380
FB80
FB80
FF80
ED80
EF80
E780
E780
E380
ENDCHAR
STARTCHAR 0144
ENCODING 324
SWIDTH 600 0
DWIDTH 10 0
BBX 8 14 1 1
BITMAP
06
0E
1C
08
00
DE
FE
FF
E7
E7
E7
E7
E7
E7
ENDCHAR
STARTCHAR 0145
ENCODING 325
SWIDTH 660 0
DWIDTH 11 0
BBX 9 15 1 -4
BITMAP
E380
F380
F380
FB80
FB80
FF80
ED80
EF80
E780
E780
E380
0000
0C00
0E00
1C00
ENDCHAR
STARTCHAR 0146
ENCODING 326
SWIDTH 600 0
DWIDTH 10 0
BBX 8 13 1 -4
BITMAP
DE
FE
FF
E7
E7
E7
E7
E7
E7
00
18
0C
38
ENDCHAR
STARTCHAR 0147
ENCODING 327
SWIDTH 660 0
DWIDTH 11 0
BBX 9 14 1 0
BITMAP
3600
3E00
0000
E380
F380
F380
FB80
FB80
FF80
ED80
EF80
E780
E780
E380
ENDCHAR
STARTCHAR 0148
ENCODING 328
SWIDTH 600 0
DWIDTH 10 0
BBX 8 13 1 0
BITMAP
26
7E
3C
00
DE
FE
FF
E7
E7
E7
E7
E7
E7
ENDCHAR
STARTCHAR 0149
ENCODING 329
SWIDTH 900 0
DWIDTH 15 0
BBX 13 12 1 0
BITMAP
6000
E000
6000
26F0
67F0
C7F8
0738
0738
0738
0738
0738
0738
ENDCHAR
STARTCHAR 014A
ENCODING 330
SWIDTH 660 0
DWIDTH 11 0
BBX 10 11 1 0
BITMAP
EF00
FF80
FF80
E380
E1C0
E1C0
E1C0
E380
E780
E780
EF00
ENDCHAR
STARTCHAR 014B
ENCODING 331
SWIDTH 600 0
DWIDTH 10 0
BBX 8 13 1 -4
BITMAP
CE
FE
FF
E7
E7
E7
E7
E7
E7
07
07
1E
1C
ENDCHAR
STARTCHAR 014C
ENCODING 332
SWIDTH 720 0
DWIDTH 12 0
BBX 10 14 1 0
BITMAP
3E00
3E00
0000
3E00
7F00
F780
E3C0
E1C0
E1C0
E1C0
E3C0
F780
7F00
3E00
ENDCHAR
STARTCHAR 014D
ENCODING 333
SWIDTH 540 0
DWIDTH 9 0
BBX 8 12 1 0
BITMAP
7C
7C
00
3C
FE
EE
E7
C7
E7
EE
FE
3C
ENDCHAR
STARTCHAR 014E
ENCODING 334
SWIDTH 720 0
DWIDTH 12 0
BBX 10 15 1 0
BITMAP
0200
3E00
1E00
0000
3E00
7F00
F780
E3C0
E1C0
E1C0
E1C0
E3C0
F780
7F00
3E00
ENDCHAR
STARTCHAR 014F
ENCODING 335
SWIDTH 540 0
DWIDTH 9 0
BBX 8 13 1 0
BITMAP
46
7C
3C
00
3C
FE
EE
E7
C7
E7
EE
FE
3C
ENDCHAR
STARTCHAR 0150
ENCODING 336
SWIDTH 720 0
DWIDTH 12 0
BBX 10 15 1 0
BITMAP
0900
1F80
1B00
0000
3E00
7F00
F780
E3C0
E1C0
E1C0
E1C0
E3C0
F780
7F00
3E00
ENDCHAR
STARTCHAR 0151
ENCODING 337
SWIDTH 540 0
DWIDTH 9 0
BBX 8 13 1 1
BITMAP
37
36
64
00
3C
FE
EE
E7
C7
E7
EE
FE
3C
ENDCHAR
STARTCHAR 0152
ENCODING 338
SWIDTH 900 0
DWIDTH 15 0
BBX 13 11 1 0
BITMAP
1FF8
7FF8
F380
E380
E3F0
E3F0
E380
E380
F380
7FF8
1FF8
ENDCHAR
STARTCHAR 0153
ENCODING 339
SWIDTH 840 0
DWIDTH 14 0
BBX 12 9 1 0
BITMAP
39C0
FFE0
EF70
C7F0
C7F0
E600
EF20
FFE0
39E0
ENDCHAR
STARTCHAR 0154
ENCODING 340
SWIDTH 660 0
DWIDTH 11 0
BBX 9 15 1 0
BITMAP
0400
0E00
1C00
0000
FE00
FF00
E780
E380
E380
FF00
FE00
EE00
E700
E700
E380
ENDCHAR
STARTCHAR 0155
ENCODING 341
SWIDTH 420 0
DWIDTH 7 0
BBX 6 14 1 1
BITMAP
0C
1C
38
10
00
CC
DC
FC
E0
E0
E0
E0
E0
E0
ENDCHAR
STARTCHAR 0156
ENCODING 342
SWIDTH 660 0
DWIDTH 11 0
BBX 9 15 1 -4
BITMAP
FE00
FF00
E780
E380
E380
FF00
FE00
EE00
E700
E700
E380
0000
1C00
0C00
1C00
ENDCHAR
STARTCHAR 0157
ENCODING 343
SWIDTH 420 0
DWIDTH 7 0
BBX 7 13 0 -4
BITMAP
66
6E
7E
70
70
70
70
70
70
00
70
30
E0
ENDCHAR
STARTCHAR 0158
ENCODING 344
SWIDTH 660 0
DWIDTH 11 0
BBX 9 14 1 0
BITMAP
7600
3C00
0000
FE00
FF00
E780
E380
E380
FF00
FE00
EE00
E700
E700
E380
ENDCHAR
STARTCHAR 0159
ENCODING 345
SWIDTH 420 0
DWIDTH 7 0
BBX 6 13 1 0
BITMAP
44
7C
78
00
CC
DC
FC
E0
E0
E0
E0
E0
E0
ENDCHAR
STARTCHAR 015A
ENCODING 346
SWIDTH 540 0
DWIDTH 9 0
BBX 8 15 1 0
BITMAP
04
0E
1C
00
3C
7F
FE
E0
F8
7E
1F
07
EF
FE
7C
ENDCHAR
STARTCHAR 015B
ENCODING 347
SWIDTH 480 0
DWIDTH 8 0
BBX 6 14 1 1
BITMAP
0C
1C
38
10
00
78
FC
C8
F0
F8
3C
9C
FC
F8
ENDCHAR
STARTCHAR 015C
ENCODING 348
SWIDTH 540 0
DWIDTH 9 0
BBX 8 14 1 0
BITMAP
3C
7E
04
3C
7F
FE
E0
F8
7E
1F
07
EF
FE
7C
ENDCHAR
STARTCHAR 015D
ENCODING 349
SWIDTH 480 0
DWIDTH 8 0
BBX 6 13 1 0
BITMAP
78
FC
CC
00
78
FC
C8
F0
F8
3C
9C
FC
F8
ENDCHAR
STARTCHAR 015E
ENCODING 350
SWIDTH 540 0
DWIDTH 9 0
BBX 8 15 1 -4
BITMAP
3C
7F
FE
E0
F8
7E
1F
07
E7
FE
7C
10
38
18
38
ENDCHAR
STARTCHAR 015F
ENCODING 351
SWIDTH 480 0
DWIDTH 8 0
BBX 6 13 1 -4
BITMAP
78
FC
C8
F0
7C
3C
9C
FC
F8
30
38
18
70
ENDCHAR
STARTCHAR 0160
ENCODING 352
SWIDTH 540 0
DWIDTH 9 0
BBX 8 14 1 0
BITMAP
66
3C
00
3C
7F
FE
E0
F8
7E
1F
07
EF
FE
7C
ENDCHAR
STARTCHAR 0161
ENCODING 353
SWIDTH 480 0
DWIDTH 8 0
BBX 6 13 1 0
BITMAP
CC
FC
78
00
78
FC
C8
F0
F8
3C
9C
FC
F8
ENDCHAR
STARTCHAR 0162
ENCODING 354
SWIDTH 540 0
DWIDTH 9 0
BBX 9 15 0 -4
BITMAP
FF80
FF80
1C00
1C00
1C00
1C00
1C00
1C00
1C00
1C00
1C00
0800
1C00
0C00
1C00
ENDCHAR
STARTCHAR 0163
ENCODING 355
SWIDTH 420 0
DWIDTH 7 0
BBX 6 15 0 -4
BITMAP
30
30
FC
FC
70
70
70
70
78
3C
3C
18
1C
0C
38
ENDCHAR
STARTCHAR 0164
ENCODING 356
SWIDTH 540 0
DWIDTH 9 0
BBX 9 14 0 0
BITMAP
3700
1E00
0000
FF80
FF80
1C00
1C00
1C00
1C00
1C00
1C00
1C00
1C00
1C00
ENDCHAR
STARTCHAR 0165
ENCODING 357
SWIDTH 420 0
DWIDTH 7 0
BBX 6 13 0 0
BITMAP
04
04
34
30
FC
FC
70
70
70
70
78
3C
1C
ENDCHAR
STARTCHAR 0166
ENCODING 358
SWIDTH 540 0
DWIDTH 9 0
BBX 9 11 0 0
BITMAP
FF80
FF80
1C00
1C00
1C00
7F00
1C00
1C00
1C00
1C00
1C00
ENDCHAR
STARTCHAR 0167
ENCODING 359
SWIDTH 420 0
DWIDTH 7 0
BBX 6 11 0 0
BITMAP
30
30
FC
FC
70
70
FC
70
78
3C
1C
ENDCHAR
STARTCHAR 0168
ENCODING 360
SWIDTH 660 0
DWIDTH 11 0
BBX 9 15 1 0
BITMAP
0300
3F00
7E00
0000
E380
E380
E380
E380
E380
E380
E380
E380
7780
7F00
3E00
ENDCHAR
STARTCHAR 0169
ENCODING 361
SWIDTH 600 0
DWIDTH 10 0
BBX 8 13 1 0
BITMAP
76
7E
4C
00
E7
E7
E7
E7
E7
E7
EF
FF
77
ENDCHAR
STARTCHAR 016A
ENCODING 362
SWIDTH 660 0
DWIDTH 11 0
BBX 9 14 1 0
BITMAP
3E00
3E00
0000
E380
E380
E380
E380
E380
E380
E380
E380
7780
7F00
3E00
ENDCHAR
STARTCHAR 016B
ENCODING 363
SWIDTH 600 0
DWIDTH 10 0
BBX 8 12 1 0
BITMAP
7C
7C
00
E7
E7
E7
E7
E7
E7
EF
FF
77
ENDCHAR
STARTCHAR 016C
ENCODING 364
SWIDTH 660 0
DWIDTH 11 0
BBX 9 14 1 1
BITMAP
3E00
1E00
0000
E380
E380
E380
E380
E380
E380
E380
E380
7780
7F00
3E00
ENDCHAR
STARTCHAR 016D
ENCODING 365
SWIDTH 600 0
DWIDTH 10 0
BBX 8 13 1 0
BITMAP
66
7C
38
00
E7
E7
E7
E7
E7
E7
EF
FF
77
ENDCHAR
STARTCHAR 016E
ENCODING 366
SWIDTH 660 0
DWIDTH 11 0
BBX 9 15 1 0
BITMAP
1C00
1600
1C00
0000
E380
E380
E380
E380
E380
E380
E380
E380
7780
7F00
3E00
ENDCHAR
STARTCHAR 016F
ENCODING 367
SWIDTH 600 0
DWIDTH 10 0
BBX 8 14 1 0
BITMAP
3C
2C
2C
3C
00
E7
E7
E7
E7
E7
E7
EF
FF
77
ENDCHAR
STARTCHAR 0170
ENCODING 368
SWIDTH 660 0
DWIDTH 11 0
BBX 9 15 1 0
BITMAP
0900
1B00
3300
0000
E380
E380
E380
E380
E380
E380
E380
E380
7780
7F00
3E00
ENDCHAR
STARTCHAR 0171
ENCODING 369
SWIDTH 600 0
DWIDTH 10 0
BBX 8 14 1 0
BITMAP
12
3F
36
24
00
E7
E7
E7
E7
E7
E7
EF
FF
77
ENDCHAR
STARTCHAR 0172
ENCODING 370
SWIDTH 660 0
DWIDTH 11 0
BBX 9 15 1 -4
BITMAP
E380
E380
E380
E380
E380
E380
E380
E380
7780
7F00
3E00
0800
1800
1E00
0C00
ENDCHAR
STARTCHAR 0173
ENCODING 371
SWIDTH 600 0
DWIDTH 10 0
BBX 8 14 1 -5
BITMAP
E7
E7
E7
E7
E7
E7
EF
FF
77
06
04
0C
0F
06
ENDCHAR
STARTCHAR 0174
ENCODING 372
SWIDTH 840 0
DWIDTH 14 0
BBX 13 14 0 0
BITMAP
0780
0DC0
0000
E318
E718
6798
77B8
77B8
77B8
7DB8
7DF0
3CF0
3CF0
3CF0
ENDCHAR
STARTCHAR 0175
ENCODING 373
SWIDTH 780 0
DWIDTH 13 0
BBX 12 13 1 0
BITMAP
0F00
1F00
1100
0000
CE70
CE70
EE60
EF60
EB60
7BE0
7BE0
7BC0
79C0
ENDCHAR
STARTCHAR 0176
ENCODING 374
SWIDTH 540 0
DWIDTH 9 0
BBX 9 14 0 0
BITMAP
1C00
3600
0000
E380
6380
7700
7700
3600
3E00
1C00
1C00
1C00
1C00
1C00
ENDCHAR
STARTCHAR 0177
ENCODING 375
SWIDTH 540 0
DWIDTH 9 0
BBX 9 17 0 -4
BITMAP
1C00
3E00
2200
0000
E380
6300
7300
7700
3700
3600
3E00
1E00
1C00
1C00
1C00
7800
7000
ENDCHAR
STARTCHAR 0178
ENCODING 376
SWIDTH 540 0
DWIDTH 9 0
BBX 9 15 0 0
BITMAP
2200
7700
3600
0000
E380
6380
7700
7700
3600
3E00
1C00
1C00
1C00
1C00
1C00
ENDCHAR
STARTCHAR 0179
ENCODING 377
SWIDTH 540 0
DWIDTH 9 0
BBX 8 15 1 0
BITMAP
0C
1E
18
10
FF
FF
0E
1C
1C
38
70
70
E0
FF
FF
ENDCHAR
STARTCHAR 017A
ENCODING 378
SWIDTH 480 0
DWIDTH 8 0
BBX 7 14 1 1
BITMAP
0C
1C
38
10
00
FC
FC
1C
38
78
70
E0
FE
FE
ENDCHAR
STARTCHAR 017B
ENCODING 379
SWIDTH 540 0
DWIDTH 9 0
BBX 8 15 1 0
BITMAP
18
38
38
00
FF
FF
0E
1C
1C
38
70
70
E0
FF
FF
ENDCHAR
STARTCHAR 017C
ENCODING 380
SWIDTH 480 0
DWIDTH 8 0
BBX 7 13 1 0
BITMAP
30
38
30
00
FC
FC
1C
38
78
70
E0
FE
FE
ENDCHAR
STARTCHAR 017D
ENCODING 381
SWIDTH 540 0
DWIDTH 9 0
BBX 8 14 1 0
BITMAP
6E
3C
00
FF
FF
0E
1C
1C
38
70
70
E0
FF
FF
ENDCHAR
STARTCHAR 017E
ENCODING 382
SWIDTH 480 0
DWIDTH 8 0
BBX 7 13 1 0
BITMAP
CC
FC
78
00
FC
FC
1C
38
78
70
E0
FE
FE
ENDCHAR
STARTCHAR 0180
ENCODING 384
SWIDTH 600 0
DWIDTH 10 0
BBX 9 12 0 0
BITMAP
7000
FE00
7000
7000
7F00
7F00
7380
7380
7380
7780
7F00
6E00
ENDCHAR
STARTCHAR 018F
ENCODING 399
SWIDTH 660 0
DWIDTH 11 0
BBX 10 11 1 0
BITMAP
3E00
7F00
2780
0380
01C0
FFC0
FFC0
E180
F380
7F00
3E00
ENDCHAR
STARTCHAR 0192
ENCODING 402
SWIDTH 540 0
DWIDTH 9 0
BBX 7 12 1 -1
BITMAP
0E
1E
38
38
7E
7E
38
38
30
70
F0
E0
ENDCHAR
STARTCHAR 0193
ENCODING 403
SWIDTH 660 0
DWIDTH 11 0
BBX 10 14 1 0
BITMAP
01C0
03C0
0300
1F00
7F00
7B00
E000
E000
E780
E780
E380
FB80
7F80
1F00
ENDCHAR
STARTCHAR 01A0
ENCODING 416
SWIDTH 720 0
DWIDTH 12 0
BBX 10 13 1 1
BITMAP
00C0
00C0
3FC0
7F00
F780
E3C0
E1C0
E1C0
E1C0
E3C0
F780
7F00
3E00
ENDCHAR
STARTCHAR 01A1
ENCODING 417
SWIDTH 540 0
DWIDTH 9 0
BBX 9 12 1 0
BITMAP
0100
0380
0380
3F00
FE00
EE00
E700
C700
E700
EE00
FE00
3C00
ENDCHAR
STARTCHAR 01AF
ENCODING 431
SWIDTH 720 0
DWIDTH 12 0
BBX 11 14 1 0
BITMAP
0060
0060
0060
E3C0
E380
E380
E380
E380
E380
E380
E380
7780
7F00
3E00
ENDCHAR
STARTCHAR 01B0
ENCODING 432
SWIDTH 600 0
DWIDTH 10 0
BBX 9 12 1 0
BITMAP
0080
0180
0180
E700
E700
E700
E700
E700
E700
EF00
FF00
7700
ENDCHAR
STARTCHAR 01C2
ENCODING 450
SWIDTH 360 0
DWIDTH 6 0
BBX 6 17 0 -4
BITMAP
30
30
30
30
30
30
FC
30
30
30
FC
30
30
30
30
30
30
ENDCHAR
STARTCHAR 01CD
ENCODING 461
SWIDTH 600 0
DWIDTH 10 0
BBX 10 14 0 0
BITMAP
3700
1E00
0000
1E00
1E00
3E00
3F00
3700
7300
7380
7F80
7F80
E380
E1C0
ENDCHAR
STARTCHAR 01CE
ENCODING 462
SWIDTH 540 0
DWIDTH 9 0
BBX 7 13 1 0
BITMAP
44
7C
3C
00
7C
FE
4E
3E
FE
EE
CE
FE
76
ENDCHAR
STARTCHAR 01CF
ENCODING 463
SWIDTH 300 0
DWIDTH 5 0
BBX 6 14 0 0
BITMAP
DC
F8
00
70
70
70
70
70
70
70
70
70
70
70
ENDCHAR
STARTCHAR 01D0
ENCODING 464
SWIDTH 300 0
DWIDTH 5 0
BBX 5 13 0 0
BITMAP
88
F8
F0
00
70
70
70
70
70
70
70
70
70
ENDCHAR
STARTCHAR 01D1
ENCODING 465
SWIDTH 720 0
DWIDTH 12 0
BBX 10 14 1 0
BITMAP
3700
1E00
0000
3E00
7F00
F780
E3C0
E1C0
E1C0
E1C0
E3C0
F780
7F00
3E00
ENDCHAR
STARTCHAR 01D2
ENCODING 466
SWIDTH 540 0
DWIDTH 9 0
BBX 8 13 1 0
BITMAP
44
7C
3C
00
3C
FE
EE
E7
C7
E7
EE
FE
3C
ENDCHAR
STARTCHAR 01D3
ENCODING 467
SWIDTH 660 0
DWIDTH 11 0
BBX 9 14 1 0
BITMAP
3600
3E00
0000
E380
E380
E380
E380
E380
E380
E380
E380
7780
7F00
3E00
ENDCHAR
STARTCHAR 01D4
ENCODING 468
SWIDTH 600 0
DWIDTH 10 0
BBX 8 13 1 0
BITMAP
66
7E
3C
00
E7
E7
E7
E7
E7
E7
EF
FF
77
ENDCHAR
STARTCHAR 01D5
ENCODING 469
SWIDTH 660 0
DWIDTH 11 0
BBX 9 16 1 0
BITMAP
3E00
0000
3200
3700
0000
E380
E380
E380
E380
E380
E380
E380
E380
7780
7F00
3E00
ENDCHAR
STARTCHAR 01D6
ENCODING 470
SWIDTH 600 0
DWIDTH 10 0
BBX 8 14 1 0
BITMAP
7C
00
66
66
00
E7
E7
E7
E7
E7
E7
EF
FF
77
ENDCHAR
STARTCHAR 01D7
ENCODING 471
SWIDTH 660 0
DWIDTH 11 0
BBX 9 17 1 0
BITMAP
0400
0C00
0800
3200
3700
0000
E380
E380
E380
E380
E380
E380
E380
E380
7780
7F00
3E00
ENDCHAR
STARTCHAR 01D8
ENCODING 472
SWIDTH 600 0
DWIDTH 10 0
BBX 8 15 1 0
BITMAP
08
18
00
66
66
00
E7
E7
E7
E7
E7
E7
EF
FF
77
ENDCHAR
STARTCHAR 01D9
ENCODING 473
SWIDTH 660 0
DWIDTH 11 0
BBX 9 17 1 0
BITMAP
3600
1C00
0000
3200
3700
0000
E380
E380
E380
E380
E380
E380
E380
E380
7780
7F00
3E00
ENDCHAR
STARTCHAR 01DA
ENCODING 474
SWIDTH 600 0
DWIDTH 10 0
BBX 8 15 1 0
BITMAP
24
3C
00
66
66
00
E7
E7
E7
E7
E7
E7
EF
FF
77
ENDCHAR
STARTCHAR 01DB
ENCODING 475
SWIDTH 660 0
DWIDTH 11 0
BBX 9 17 1 0
BITMAP
1000
1800
0800
3200
3700
0000
E380
E380
E380
E380
E380
E380
E380
E380
7780
7F00
3E00
ENDCHAR
STARTCHAR 01DC
ENCODING 476
SWIDTH 600 0
DWIDTH 10 0
BBX 8 15 1 0
BITMAP
30
10
10
66
66
00
E7
E7
E7
E7
E7
E7
EF
FF
77
ENDCHAR
STARTCHAR 01E2
ENCODING 482
SWIDTH 840 0
DWIDTH 14 0
BBX 13 14 0 0
BITMAP
03E0
03E0
0000
0FF8
0FF8
1F80
1F80
1BF8
3BF8
3B80
7F80
7F80
E3F8
E3F8
ENDCHAR
STARTCHAR 01E3
ENCODING 483
SWIDTH 780 0
DWIDTH 13 0
BBX 11 12 1 0
BITMAP
1F00
1F00
0000
7BC0
FFE0
4E60
3FE0
FFE0
EE00
EF40
FFE0
73C0
ENDCHAR
STARTCHAR 01E6
ENCODING 486
SWIDTH 660 0
DWIDTH 11 0
BBX 9 14 1 0
BITMAP
3B00
1E00
0000
1E00
7F80
7B00
E000
E000
E780
E780
E380
FB80
7F80
1F00
ENDCHAR
STARTCHAR 01E7
ENCODING 487
SWIDTH 540 0
DWIDTH 9 0
BBX 8 17 1 -4
BITMAP
44
7E
3C
00
7F
FF
CE
CE
FC
78
C0
FE
7F
C7
C7
FE
78
ENDCHAR
STARTCHAR 01EA
ENCODING 490
SWIDTH 720 0
DWIDTH 12 0
BBX 10 15 1 -4
BITMAP
3E00
7F00
F780
E3C0
E1C0
E1C0
E1C0
E3C0
F780
7F00
3E00
0C00
1800
1E00
0E00
ENDCHAR
STARTCHAR 01EB
ENCODING 491
SWIDTH 540 0
DWIDTH 9 0
BBX 8 14 1 -5
BITMAP
3C
FE
EE
E7
C7
E7
EE
FE
3C
10
30
30
3C
18
ENDCHAR
STARTCHAR 01F4
ENCODING 500
SWIDTH 660 0
DWIDTH 11 0
BBX 9 15 1 0
BITMAP
0200
0700
0E00
0400
1E00
7F80
7B00
E000
E000
E780
E780
E380
FB80
7F80
1F00
ENDCHAR
STARTCHAR 01F5
ENCODING 501
SWIDTH 540 0
DWIDTH 9 0
BBX 8 19 1 -4
BITMAP
04
0E
1E
1C
00
00
7F
FF
CE
CE
FC
78
C0
FE
7F
C7
C7
FE
78
ENDCHAR
STARTCHAR 01F8
ENCODING 504
SWIDTH 660 0
DWIDTH 11 0
BBX 9 15 1 0
BITMAP
3000
3800
1C00
0000
E380
F380
F380
FB80
FB80
FF80
ED80
EF80
E780
E780
E380
ENDCHAR
STARTCHAR 01F9
ENCODING 505
SWIDTH 600 0
DWIDTH 10 0
BBX 8 15 1 0
BITMAP
20
70
78
38
00
00
DE
FE
FF
E7
E7
E7
E7
E7
E7
ENDCHAR
STARTCHAR 01FC
ENCODING 508
SWIDTH 840 0
DWIDTH 14 0
BBX 13 15 0 1
BITMAP
0060
00E0
00C0
0000
0FF8
0FF8
1F80
1F80
1BF8
3BF8
3B80
7F80
7F80
E3F8
E3F8
ENDCHAR
STARTCHAR 01FD
ENCODING 509
SWIDTH 780 0
DWIDTH 13 0
BBX 11 14 1 1
BITMAP
0100
0380
0700
0200
0000
7BC0
FFE0
4E60
3FE0
FFE0
EE00
EF40
FFE0
73C0
ENDCHAR
STARTCHAR 0218
ENCODING 536
SWIDTH 540 0
DWIDTH 9 0
BBX 8 15 1 -4
BITMAP
3C
7F
FE
E0
F8
7E
1F
07
EF
FE
7C
00
18
18
38
ENDCHAR
STARTCHAR 0219
ENCODING 537
SWIDTH 480 0
DWIDTH 8 0
BBX 6 13 1 -4
BITMAP
78
FC
C8
F0
F8
3C
9C
FC
F8
00
30
18
70
ENDCHAR
STARTCHAR 021A
ENCODING 538
SWIDTH 540 0
DWIDTH 9 0
BBX 9 15 0 -4
BITMAP
FF80
FF80
1C00
1C00
1C00
1C00
1C00
1C00
1C00
1C00
1C00
0000
0C00
0C00
1C00
ENDCHAR
STARTCHAR 021B
ENCODING 539
SWIDTH 420 0
DWIDTH 7 0
BBX 6 15 0 -4
BITMAP
30
30
FC
FC
70
70
70
70
78
3C
1C
00
18
0C
38
ENDCHAR
STARTCHAR 0237
ENCODING 567
SWIDTH 300 0
DWIDTH 5 0
BBX 5 13 -1 -4
BITMAP
38
38
38
38
38
38
38
38
38
38
38
F0
F0
ENDCHAR
STARTCHAR 0243
ENCODING 579
SWIDTH 660 0
DWIDTH 11 0
BBX 10 11 0 0
BITMAP
3F00
3F80
39C0
3980
3F80
3F80
39C0
FDC0
39C0
3FC0
3F00
ENDCHAR
STARTCHAR 0250
ENCODING 592
SWIDTH 540 0
DWIDTH 9 0
BBX 7 9 1 0
BITMAP
DC
FE
EE
EE
FC
F8
E4
FE
7C
ENDCHAR
STARTCHAR 0251
ENCODING 593
SWIDTH 600 0
DWIDTH 10 0
BBX 8 9 1 0
BITMAP
7F
FF
EF
E7
E7
E7
EF
FF
7F
ENDCHAR
STARTCHAR 0252
ENCODING 594
SWIDTH 600 0
DWIDTH 10 0
BBX 8 9 1 0
BITMAP
DC
FE
E7
E7
E7
E7
EF
FE
DC
ENDCHAR
STARTCHAR 0253
ENCODING 595
SWIDTH 600 0
DWIDTH 10 0
BBX 8 12 1 0
BITMAP
38
78
E0
E0
FE
FF
E7
E7
E7
E7
FE
DC
ENDCHAR
STARTCHAR 0254
ENCODING 596
SWIDTH 480 0
DWIDTH 8 0
BBX 6 9 1 0
BITMAP
F0
F8
1C
1C
1C
1C
9C
F8
F0
ENDCHAR
STARTCHAR 0255
ENCODING 597
SWIDTH 480 0
DWIDTH 8 0
BBX 8 10 0 -1
BITMAP
1E
3E
70
60
6E
7F
73
7F
FE
60
ENDCHAR
STARTCHAR 0256
ENCODING 598
SWIDTH 600 0
DWIDTH 10 0
BBX 9 16 1 -4
BITMAP
0700
0700
0700
7F00
FF00
EF00
E700
E700
E700
EF00
FF00
7F00
0700
0700
0780
0380
ENDCHAR
STARTCHAR 0257
ENCODING 599
SWIDTH 600 0
DWIDTH 10 0
BBX 9 12 1 0
BITMAP
0380
0780
0700
7F00
FF00
EF00
E700
E700
E700
EF00
FF00
7F00
ENDCHAR
STARTCHAR 0258
ENCODING 600
SWIDTH 540 0
DWIDTH 9 0
BBX 7 9 1 0
BITMAP
78
FC
CE
FE
FE
0E
0E
FC
78
ENDCHAR
STARTCHAR 0259
ENCODING 601
SWIDTH 540 0
DWIDTH 9 0
BBX 7 9 1 0
BITMAP
78
FC
4E
0E
FE
FE
CE
FC
78
ENDCHAR
STARTCHAR 025A
ENCODING 602
SWIDTH 720 0
DWIDTH 12 0
BBX 11 9 1 0
BITMAP
7800
FD80
4FC0
1FE0
7E60
E600
CE00
FC00
7800
ENDCHAR
STARTCHAR 025B
ENCODING 603
SWIDTH 480 0
DWIDTH 8 0
BBX 6 9 1 0
BITMAP
7C
FC
E0
78
F8
E0
E4
FC
7C
ENDCHAR
STARTCHAR 025C
ENCODING 604
SWIDTH 480 0
DWIDTH 8 0
BBX 6 9 1 0
BITMAP
F8
FC
1C
78
7C
1C
9C
FC
F8
ENDCHAR
STARTCHAR 025E
ENCODING 606
SWIDTH 600 0
DWIDTH 10 0
BBX 8 9 1 0
BITMAP
7C
FE
E7
77
F7
E7
EF
FE
7C
ENDCHAR
STARTCHAR 025F
ENCODING 607
SWIDTH 360 0
DWIDTH 6 0
BBX 5 13 0 -4
BITMAP
70
70
70
70
F8
70
70
70
70
70
70
F0
E0
ENDCHAR
STARTCHAR 0260
ENCODING 608
SWIDTH 600 0
DWIDTH 10 0
BBX 9 15 1 -3
BITMAP
0380
0780
3F00
7F00
EF00
E700
E700
E700
E700
FF00
7F00
0700
4F00
FE00
7C00
ENDCHAR
STARTCHAR 0261
ENCODING 609
SWIDTH 600 0
DWIDTH 10 0
BBX 8 13 1 -4
BITMAP
3F
7F
EF
E7
E7
E7
E7
FF
7F
07
4F
FE
7C
ENDCHAR
STARTCHAR 0262
ENCODING 610
SWIDTH 540 0
DWIDTH 9 0
BBX 7 9 1 0
BITMAP
3C
7C
E4
DE
DE
E6
E6
FE
3C
ENDCHAR
STARTCHAR 0263
ENCODING 611
SWIDTH 540 0
DWIDTH 9 0
BBX 9 12 0 -4
BITMAP
E380
6300
7700
3700
3600
3E00
1C00
3E00
3600
3600
3E00
1C00
ENDCHAR
STARTCHAR 0264
ENCODING 612
SWIDTH 600 0
DWIDTH 10 0
BBX 10 9 0 0
BITMAP
F3C0
7F80
1E00
3E00
3F00
3300
3700
3F00
1E00
ENDCHAR
STARTCHAR 0265
ENCODING 613
SWIDTH 600 0
DWIDTH 10 0
BBX 8 12 1 -3
BITMAP
E7
E7
E7
E7
E7
E7
EF
FF
77
07
07
07
ENDCHAR
STARTCHAR 0266
ENCODING 614
SWIDTH 600 0
DWIDTH 10 0
BBX 8 12 1 0
BITMAP
78
F8
E0
E0
FE
FF
E7
E7
E7
E7
E7
E7
ENDCHAR
STARTCHAR 0267
ENCODING 615
SWIDTH 600 0
DWIDTH 10 0
BBX 8 16 1 -4
BITMAP
38
78
E0
E0
FE
FE
FF
E7
E7
E7
E7
E7
E7
07
1E
1C
ENDCHAR
STARTCHAR 0268
ENCODING 616
SWIDTH 360 0
DWIDTH 6 0
BBX 5 13 0 0
BITMAP
30
70
30
00
70
70
70
70
F8
70
70
70
70
ENDCHAR
STARTCHAR 026A
ENCODING 618
SWIDTH 420 0
DWIDTH 7 0
BBX 5 9 1 0
BITMAP
F8
F8
70
70
70
70
70
F8
F8
ENDCHAR
STARTCHAR 026C
ENCODING 620
SWIDTH 420 0
DWIDTH 7 0
BBX 6 12 0 0
BITMAP
38
38
38
38
F8
B8
FC
38
38
18
1C
1C
ENDCHAR
STARTCHAR 026D
ENCODING 621
SWIDTH 300 0
DWIDTH 5 0
BBX 4 15 1 -4
BITMAP
E0
E0
E0
E0
E0
E0
E0
E0
E0
E0
E0
E0
E0
F0
70
ENDCHAR
STARTCHAR 026E
ENCODING 622
SWIDTH 660 0
DWIDTH 11 0
BBX 10 16 1 -4
BITMAP
E000
E000
E000
FF80
FF80
E380
E700
EE00
EF00
EF80
E3C0
E1C0
E1C0
1B80
3F80
1F00
ENDCHAR
STARTCHAR 026F
ENCODING 623
SWIDTH 840 0
DWIDTH 14 0
BBX 13 8 1 0
BITMAP
E738
E738
E738
E738
E738
EF78
FFF8
73B8
ENDCHAR
STARTCHAR 0270
ENCODING 624
SWIDTH 840 0
DWIDTH 14 0
BBX 13 12 1 -3
BITMAP
E738
E738
E738
E738
E738
E738
EF78
FFF8
73B8
0038
0038
0038
ENDCHAR
STARTCHAR 0271
ENCODING 625
SWIDTH 840 0
DWIDTH 14 0
BBX 13 13 1 -4
BITMAP
DEF0
FFF0
FFF0
E738
E738
E738
E738
E738
E738
0038
0070
00F0
00E0
ENDCHAR
STARTCHAR 0272
ENCODING 626
SWIDTH 600 0
DWIDTH 10 0
BBX 10 13 -1 -4
BITMAP
3780
3FC0
39C0
39C0
39C0
39C0
39C0
39C0
39C0
39C0
3800
7000
F000
ENDCHAR
STARTCHAR 0273
ENCODING 627
SWIDTH 600 0
DWIDTH 10 0
BBX 9 13 1 -4
BITMAP
DE00
FF00
E700
E700
E700
E700
E700
E700
E700
E700
0700
0780
0380
ENDCHAR
STARTCHAR 0274
ENCODING 628
SWIDTH 540 0
DWIDTH 9 0
BBX 8 8 1 0
BITMAP
E7
F7
F7
DF
FF
EF
EF
E7
ENDCHAR
STARTCHAR 0275
ENCODING 629
SWIDTH 540 0
DWIDTH 9 0
BBX 8 9 1 0
BITMAP
3C
FE
E7
FF
FF
C7
E6
7E
3C
ENDCHAR
STARTCHAR 0276
ENCODING 630
SWIDTH 720 0
DWIDTH 12 0
BBX 11 9 1 0
BITMAP
7FE0
FFE0
E600
E7C0
C7C0
E600
E600
FFE0
7FE0
ENDCHAR
STARTCHAR 0278
ENCODING 632
SWIDTH 780 0
DWIDTH 13 0
BBX 11 15 1 -3
BITMAP
0E00
0E00
0E00
3F80
7FC0
EEE0
EEE0
CEE0
EEE0
EEE0
7FC0
3F80
0E00
0E00
0E00
ENDCHAR
STARTCHAR 0279
ENCODING 633
SWIDTH 420 0
DWIDTH 7 0
BBX 6 9 0 0
BITMAP
1C
1C
1C
1C
1C
1C
FC
FC
CC
ENDCHAR
STARTCHAR 027A
ENCODING 634
SWIDTH 420 0
DWIDTH 7 0
BBX 6 12 0 0
BITMAP
1C
1C
1C
1C
1C
1C
1C
1C
1C
FC
FC
CC
ENDCHAR
STARTCHAR 027B
ENCODING 635
SWIDTH 420 0
DWIDTH 7 0
BBX 8 13 0 -4
BITMAP
1C
1C
1C
1C
1C
1C
FC
FC
DC
1C
0C
0E
07
ENDCHAR
STARTCHAR 027D
ENCODING 637
SWIDTH 420 0
DWIDTH 7 0
BBX 6 13 1 -4
BITMAP
CC
DC
FC
E0
E0
E0
E0
E0
E0
E0
E0
F0
70
ENDCHAR
STARTCHAR 027E
ENCODING 638
SWIDTH 420 0
DWIDTH 7 0
BBX 6 9 1 0
BITMAP
7C
F8
F8
E0
E0
E0
E0
E0
E0
ENDCHAR
STARTCHAR 0280
ENCODING 640
SWIDTH 540 0
DWIDTH 9 0
BBX 8 9 1 0
BITMAP
FC
FE
EE
EE
FE
FC
EE
EE
E7
ENDCHAR
STARTCHAR 0281
ENCODING 641
SWIDTH 540 0
DWIDTH 9 0
BBX 7 8 1 0
BITMAP
EE
EE
7E
FE
EE
EE
FE
7E
ENDCHAR
STARTCHAR 0282
ENCODING 642
SWIDTH 480 0
DWIDTH 8 0
BBX 7 13 0 -4
BITMAP
3C
7E
64
78
7C
1E
4E
7E
FC
E0
E0
70
38
ENDCHAR
STARTCHAR 0283
ENCODING 643
SWIDTH 300 0
DWIDTH 5 0
BBX 7 16 -1 -4
BITMAP
1E
3C
38
38
38
38
38
38
38
38
38
38
38
38
F0
F0
ENDCHAR
STARTCHAR 0284
ENCODING 644
SWIDTH 360 0
DWIDTH 6 0
BBX 6 16 0 -4
BITMAP
1C
3C
38
70
70
70
70
70
F8
70
70
70
70
70
F0
E0
ENDCHAR
STARTCHAR 0288
ENCODING 648
SWIDTH 420 0
DWIDTH 7 0
BBX 6 15 0 -4
BITMAP
30
30
FC
FC
70
70
70
70
70
70
70
70
78
3C
1C
ENDCHAR
STARTCHAR 0289
ENCODING 649
SWIDTH 660 0
DWIDTH 11 0
BBX 10 9 0 0
BITMAP
7380
7380
7380
FFC0
7380
7380
7B80
3F80
3D80
ENDCHAR
STARTCHAR 028A
ENCODING 650
SWIDTH 540 0
DWIDTH 9 0
BBX 9 9 0 0
BITMAP
F780
F780
3300
7300
6380
7380
7780
7F00
1E00
ENDCHAR
STARTCHAR 028B
ENCODING 651
SWIDTH 540 0
DWIDTH 9 0
BBX 8 9 1 0
BITMAP
EE
EE
E7
E7
E7
E7
EE
7E
3C
ENDCHAR
STARTCHAR 028C
ENCODING 652
SWIDTH 540 0
DWIDTH 9 0
BBX 9 8 0 1
BITMAP
1C00
3E00
3600
3600
7700
7700
6300
E380
ENDCHAR
STARTCHAR 028D
ENCODING 653
SWIDTH 780 0
DWIDTH 13 0
BBX 13 9 0 0
BITMAP
3CE0
3DE0
3DE0
3DF0
7DF0
77F0
6730
6738
E738
ENDCHAR
STARTCHAR 028E
ENCODING 654
SWIDTH 540 0
DWIDTH 9 0
BBX 9 12 0 0
BITMAP
0700
0F00
1C00
1C00
1C00
3C00
3E00
3600
7700
7700
6300
E380
ENDCHAR
STARTCHAR 028F
ENCODING 655
SWIDTH 480 0
DWIDTH 8 0
BBX 8 8 0 0
BITMAP
E7
66
7E
3C
3C
1C
1C
1C
ENDCHAR
STARTCHAR 0290
ENCODING 656
SWIDTH 480 0
DWIDTH 8 0
BBX 8 13 1 -4
BITMAP
FC
FC
1C
38
78
70
E0
FC
FC
1C
0E
0F
07
ENDCHAR
STARTCHAR 0291
ENCODING 657
SWIDTH 540 0
DWIDTH 9 0
BBX 8 10 1 -1
BITMAP
FC
FC
1C
38
76
7F
EB
FF
FE
10
ENDCHAR
STARTCHAR 0292
ENCODING 658
SWIDTH 480 0
DWIDTH 8 0
BBX 8 13 0 -4
BITMAP
7E
7E
0C
1C
38
3C
3E
0E
07
06
4E
FE
7C
ENDCHAR
STARTCHAR 0294
ENCODING 660
SWIDTH 480 0
DWIDTH 8 0
BBX 7 12 0 0
BITMAP
7C
FE
4E
06
0E
1E
3C
38
38
38
38
38
ENDCHAR
STARTCHAR 0295
ENCODING 661
SWIDTH 540 0
DWIDTH 9 0
BBX 7 12 1 0
BITMAP
3C
FE
E6
E0
E0
F0
78
38
38
38
38
38
ENDCHAR
STARTCHAR 0298
ENCODING 664
SWIDTH 540 0
DWIDTH 9 0
BBX 8 12 1 0
BITMAP
3C
7E
EE
E6
C7
DF
DF
C7
E6
EE
7E
3C
ENDCHAR
STARTCHAR 0299
ENCODING 665
SWIDTH 540 0
DWIDTH 9 0
BBX 7 9 1 0
BITMAP
FC
FE
EE
FE
FE
E6
E6
FE
FC
ENDCHAR
STARTCHAR 029C
ENCODING 668
SWIDTH 600 0
DWIDTH 10 0
BBX 8 8 1 0
BITMAP
E7
E7
E7
FF
FF
E7
E7
E7
ENDCHAR
STARTCHAR 029D
ENCODING 669
SWIDTH 420 0
DWIDTH 7 0
BBX 8 17 -1 -5
BITMAP
0C
0E
0C
00
0E
0E
0E
0E
0E
0E
7E
7E
CE
FE
7F
7B
03
ENDCHAR
STARTCHAR 029F
ENCODING 671
SWIDTH 420 0
DWIDTH 7 0
BBX 6 8 1 0
BITMAP
E0
E0
E0
E0
E0
E0
FC
FC
ENDCHAR
STARTCHAR 02A1
ENCODING 673
SWIDTH 480 0
DWIDTH 8 0
BBX 8 12 0 0
BITMAP
3C
FE
6F
07
06
0E
1C
FF
FF
38
38
38
ENDCHAR
STARTCHAR 02A2
ENCODING 674
SWIDTH 480 0
DWIDTH 8 0
BBX 8 12 0 0
BITMAP
3E
7F
72
60
70
70
38
FF
FF
1C
1C
1C
ENDCHAR
STARTCHAR 02B0
ENCODING 688
SWIDTH 420 0
DWIDTH 7 0
BBX 5 8 1 6
BITMAP
C0
C0
F0
F8
D8
D8
D8
D8
ENDCHAR
STARTCHAR 02B2
ENCODING 690
SWIDTH 180 0
DWIDTH 3 0
BBX 4 10 -1 4
BITMAP
30
30
00
30
30
30
30
30
70
E0
ENDCHAR
STARTCHAR 02B3
ENCODING 691
SWIDTH 300 0
DWIDTH 5 0
BBX 4 6 1 6
BITMAP
B0
E0
C0
C0
C0
C0
ENDCHAR
STARTCHAR 02B7
ENCODING 695
SWIDTH 540 0
DWIDTH 9 0
BBX 9 6 0 6
BITMAP
C980
5D00
7700
7700
7700
3600
ENDCHAR
STARTCHAR 02B8
ENCODING 696
SWIDTH 360 0
DWIDTH 6 0
BBX 6 8 0 4
BITMAP
CC
4C
68
78
38
30
70
60
ENDCHAR
STARTCHAR 02B9
ENCODING 697
SWIDTH 300 0
DWIDTH 5 0
BBX 3 5 1 6
BITMAP
60
60
E0
E0
C0
ENDCHAR
STARTCHAR 02BB
ENCODING 699
SWIDTH 300 0
DWIDTH 5 0
BBX 3 6 1 5
BITMAP
60
C0
C0
E0
E0
60
ENDCHAR
STARTCHAR 02BC
ENCODING 700
SWIDTH 300 0
DWIDTH 5 0
BBX 3 6 1 6
BITMAP
60
E0
60
20
60
C0
ENDCHAR
STARTCHAR 02BE
ENCODING 702
SWIDTH 180 0
DWIDTH 3 0
BBX 3 4 0 9
BITMAP
C0
60
60
C0
ENDCHAR
STARTCHAR 02BF
ENCODING 703
SWIDTH 180 0
DWIDTH 3 0
BBX 3 4 0 9
BITMAP
60
C0
C0
60
ENDCHAR
STARTCHAR 02C1
ENCODING 705
SWIDTH 360 0
DWIDTH 6 0
BBX 4 8 1 6
BITMAP
F0
F0
C0
C0
60
60
60
60
ENDCHAR
STARTCHAR 02C6
ENCODING 710
SWIDTH 540 0
DWIDTH 9 0
BBX 6 3 2 10
BITMAP
70
F8
DC
ENDCHAR
STARTCHAR 02C7
ENCODING 711
SWIDTH 540 0
DWIDTH 9 0
BBX 5 3 2 10
BITMAP
88
F8
78
ENDCHAR
STARTCHAR 02C8
ENCODING 712
SWIDTH 180 0
DWIDTH 3 0
BBX 2 3 0 9
BITMAP
C0
C0
C0
ENDCHAR
STARTCHAR 02C9
ENCODING 713
SWIDTH 300 0
DWIDTH 5 0
BBX 5 2 0 10
BITMAP
F8
F8
ENDCHAR
STARTCHAR 02CA
ENCODING 714
SWIDTH 240 0
DWIDTH 4 0
BBX 4 4 1 9
BITMAP
20
70
F0
E0
ENDCHAR
STARTCHAR 02CB
ENCODING 715
SWIDTH 240 0
DWIDTH 4 0
BBX 4 4 -1 9
BITMAP
40
E0
F0
70
ENDCHAR
STARTCHAR 02CC
ENCODING 716
SWIDTH 180 0
DWIDTH 3 0
BBX 2 3 0 -4
BITMAP
C0
C0
C0
ENDCHAR
STARTCHAR 02D0
ENCODING 720
SWIDTH 300 0
DWIDTH 5 0
BBX 3 9 1 0
BITMAP
E0
E0
40
00
00
00
40
E0
E0
ENDCHAR
STARTCHAR 02D1
ENCODING 721
SWIDTH 300 0
DWIDTH 5 0
BBX 3 3 1 5
BITMAP
E0
E0
40
ENDCHAR
STARTCHAR 02D8
ENCODING 728
SWIDTH 540 0
DWIDTH 9 0
BBX 6 3 2 9
BITMAP
CC
F8
70
ENDCHAR
STARTCHAR 02D9
ENCODING 729
SWIDTH 540 0
DWIDTH 9 0
BBX 3 3 3 9
BITMAP
E0
E0
60
ENDCHAR
STARTCHAR 02DA
ENCODING 730
SWIDTH 540 0
DWIDTH 9 0
BBX 5 4 2 9
BITMAP
70
D8
D8
70
ENDCHAR
STARTCHAR 02DB
ENCODING 731
SWIDTH 540 0
DWIDTH 9 0
BBX 4 4 3 -4
BITMAP
40
C0
F0
60
ENDCHAR
STARTCHAR 02DC
ENCODING 732
SWIDTH 540 0
DWIDTH 9 0
BBX 7 4 1 9
BITMAP
06
7E
7C
C0
ENDCHAR
STARTCHAR 02DD
ENCODING 733
SWIDTH 540 0
DWIDTH 9 0
BBX 5 4 3 9
BITMAP
48
D8
D8
90
ENDCHAR
STARTCHAR 02DE
ENCODING 734
SWIDTH 180 0
DWIDTH 3 0
BBX 6 4 -2 4
BITMAP
20
F0
F8
1C
ENDCHAR
STARTCHAR 02E0
ENCODING 736
SWIDTH 360 0
DWIDTH 6 0
BBX 6 8 0 4
BITMAP
CC
4C
68
78
30
78
78
78
ENDCHAR
STARTCHAR 02E1
ENCODING 737
SWIDTH 180 0
DWIDTH 3 0
BBX 2 8 1 6
BITMAP
C0
C0
C0
C0
C0
C0
C0
C0
ENDCHAR
STARTCHAR 02E2
ENCODING 738
SWIDTH 300 0
DWIDTH 5 0
BBX 4 6 1 6
BITMAP
E0
A0
E0
70
B0
E0
ENDCHAR
STARTCHAR 02E3
ENCODING 739
SWIDTH 360 0
DWIDTH 6 0
BBX 6 6 0 6
BITMAP
6C
78
30
78
78
CC
ENDCHAR
STARTCHAR 0300
ENCODING 768
SWIDTH 0 0
DWIDTH 0 0
BBX 4 4 -3 9
BITMAP
40
E0
F0
70
ENDCHAR
STARTCHAR 0301
ENCODING 769
SWIDTH 0 0
DWIDTH 0 0
BBX 4 4 -1 9
BITMAP
20
70
F0
E0
ENDCHAR
STARTCHAR 0302
ENCODING 770
SWIDTH 0 0
DWIDTH 0 0
BBX 6 3 -3 10
BITMAP
78
78
CC
ENDCHAR
STARTCHAR 0303
ENCODING 771
SWIDTH 0 0
DWIDTH 0 0
BBX 6 4 -3 9
BITMAP
0C
FC
FC
C0
ENDCHAR
STARTCHAR 0304
ENCODING 772
SWIDTH 0 0
DWIDTH 0 0
BBX 6 2 -3 10
BITMAP
FC
FC
ENDCHAR
STARTCHAR 0305
ENCODING 773
SWIDTH 0 0
DWIDTH 0 0
BBX 6 2 -3 10
BITMAP
FC
FC
ENDCHAR
STARTCHAR 0306
ENCODING 774
SWIDTH 0 0
DWIDTH 0 0
BBX 6 3 -3 9
BITMAP
CC
FC
30
ENDCHAR
STARTCHAR 0307
ENCODING 775
SWIDTH 0 0
DWIDTH 0 0
BBX 4 3 -2 9
BITMAP
60
F0
60
ENDCHAR
STARTCHAR 0308
ENCODING 776
SWIDTH 0 0
DWIDTH 0 0
BBX 6 3 -3 9
BITMAP
CC
CC
CC
ENDCHAR
STARTCHAR 0309
ENCODING 777
SWIDTH 0 0
DWIDTH 0 0
BBX 4 5 -2 9
BITMAP
40
E0
70
30
60
ENDCHAR
STARTCHAR 030A
ENCODING 778
SWIDTH 0 0
DWIDTH 0 0
BBX 4 4 -2 9
BITMAP
F0
90
90
F0
ENDCHAR
STARTCHAR 030B
ENCODING 779
SWIDTH 0 0
DWIDTH 0 0
BBX 6 3 -2 9
BITMAP
48
EC
D8
ENDCHAR
STARTCHAR 030C
ENCODING 780
SWIDTH 0 0
DWIDTH 0 0
BBX 6 3 -3 10
BITMAP
CC
FC
78
ENDCHAR
STARTCHAR 030F
ENCODING 783
SWIDTH 0 0
DWIDTH 0 0
BBX 6 3 -4 9
BITMAP
48
DC
6C
ENDCHAR
STARTCHAR 0311
ENCODING 785
SWIDTH 0 0
DWIDTH 0 0
BBX 6 3 -3 9
BITMAP
78
FC
CC
ENDCHAR
STARTCHAR 0312
ENCODING 786
SWIDTH 0 0
DWIDTH 0 0
BBX 2 4 -1 10
BITMAP
40
80
C0
C0
ENDCHAR
STARTCHAR 0313
ENCODING 787
SWIDTH 0 0
DWIDTH 0 0
BBX 2 4 -1 10
BITMAP
C0
C0
40
80
ENDCHAR
STARTCHAR 0318
ENCODING 792
SWIDTH 0 0
DWIDTH 0 0
BBX 4 3 -2 -4
BITMAP
30
F0
30
ENDCHAR
STARTCHAR 0319
ENCODING 793
SWIDTH 0 0
DWIDTH 0 0
BBX 4 3 -2 -4
BITMAP
C0
F0
C0
ENDCHAR
STARTCHAR 031A
ENCODING 794
SWIDTH 0 0
DWIDTH 0 0
BBX 4 3 -2 9
BITMAP
F0
30
30
ENDCHAR
STARTCHAR 031B
ENCODING 795
SWIDTH 0 0
DWIDTH 0 0
BBX 3 4 0 7
BITMAP
60
60
60
C0
ENDCHAR
STARTCHAR 031C
ENCODING 796
SWIDTH 0 0
DWIDTH 0 0
BBX 2 3 -1 -4
BITMAP
C0
80
C0
ENDCHAR
STARTCHAR 031D
ENCODING 797
SWIDTH 0 0
DWIDTH 0 0
BBX 4 3 -2 -4
BITMAP
60
60
F0
ENDCHAR
STARTCHAR 031E
ENCODING 798
SWIDTH 0 0
DWIDTH 0 0
BBX 4 3 -2 -4
BITMAP
F0
60
60
ENDCHAR
STARTCHAR 031F
ENCODING 799
SWIDTH 0 0
DWIDTH 0 0
BBX 4 3 -2 -4
BITMAP
60
F0
60
ENDCHAR
STARTCHAR 0320
ENCODING 800
SWIDTH 0 0
DWIDTH 0 0
BBX 4 1 -2 -3
BITMAP
F0
ENDCHAR
STARTCHAR 0323
ENCODING 803
SWIDTH 0 0
DWIDTH 0 0
BBX 4 3 -2 -4
BITMAP
60
F0
60
ENDCHAR
STARTCHAR 0324
ENCODING 804
SWIDTH 0 0
DWIDTH 0 0
BBX 6 3 -3 -4
BITMAP
CC
CC
CC
ENDCHAR
STARTCHAR 0325
ENCODING 805
SWIDTH 0 0
DWIDTH 0 0
BBX 4 3 -2 -4
BITMAP
F0
90
F0
ENDCHAR
STARTCHAR 0326
ENCODING 806
SWIDTH 0 0
DWIDTH 0 0
BBX 4 3 -2 -4
BITMAP
60
30
E0
ENDCHAR
STARTCHAR 0327
ENCODING 807
SWIDTH 0 0
DWIDTH 0 0
BBX 4 4 -2 -4
BITMAP
60
E0
30
E0
ENDCHAR
STARTCHAR 0328
ENCODING 808
SWIDTH 0 0
DWIDTH 0 0
BBX 4 4 -2 -4
BITMAP
60
C0
F0
20
ENDCHAR
STARTCHAR 0329
ENCODING 809
SWIDTH 0 0
DWIDTH 0 0
BBX 2 3 -1 -4
BITMAP
C0
C0
C0
ENDCHAR
STARTCHAR 032A
ENCODING 810
SWIDTH 0 0
DWIDTH 0 0
BBX 4 2 -2 -3
BITMAP
F0
90
ENDCHAR
STARTCHAR 032C
ENCODING 812
SWIDTH 0 0
DWIDTH 0 0
BBX 6 3 -3 -4
BITMAP
CC
F8
78
ENDCHAR
STARTCHAR 032E
ENCODING 814
SWIDTH 0 0
DWIDTH 0 0
BBX 6 3 -3 -4
BITMAP
CC
FC
78
ENDCHAR
STARTCHAR 032F
ENCODING 815
SWIDTH 0 0
DWIDTH 0 0
BBX 6 3 -3 -5
BITMAP
30
FC
CC
ENDCHAR
STARTCHAR 0330
ENCODING 816
SWIDTH 0 0
DWIDTH 0 0
BBX 6 3 -3 -4
BITMAP
EC
FC
DC
ENDCHAR
STARTCHAR 0331
ENCODING 817
SWIDTH 0 0
DWIDTH 0 0
BBX 6 2 -3 -3
BITMAP
FC
FC
ENDCHAR
STARTCHAR 0334
ENCODING 820
SWIDTH 0 0
DWIDTH 0 0
BBX 6 3 -3 3
BITMAP
EC
FC
DC
ENDCHAR
STARTCHAR 0339
ENCODING 825
SWIDTH 0 0
DWIDTH 0 0
BBX 2 3 -1 -4
BITMAP
C0
40
C0
ENDCHAR
STARTCHAR 033A
ENCODING 826
SWIDTH 0 0
DWIDTH 0 0
BBX 4 2 -2 -3
BITMAP
90
F0
ENDCHAR
STARTCHAR 033B
ENCODING 827
SWIDTH 0 0
DWIDTH 0 0
BBX 4 3 -2 -4
BITMAP
F0
90
F0
ENDCHAR
STARTCHAR 033C
ENCODING 828
SWIDTH 0 0
DWIDTH 0 0
BBX 6 3 -3 -5
BITMAP
78
FC
B4
ENDCHAR
STARTCHAR 033D
ENCODING 829
SWIDTH 0 0
DWIDTH 0 0
BBX 4 3 -2 10
BITMAP
F0
60
60
ENDCHAR
STARTCHAR 0342
ENCODING 834
SWIDTH 0 0
DWIDTH 0 0
BBX 6 4 -3 9
BITMAP
0C
FC
FC
C0
ENDCHAR
STARTCHAR 0345
ENCODING 837
SWIDTH 0 0
DWIDTH 0 0
BBX 3 3 -1 -4
BITMAP
C0
E0
60
ENDCHAR
STARTCHAR 0361
ENCODING 865
SWIDTH 0 0
DWIDTH 0 0
BBX 14 3 -7 9
BITMAP
1FE0
FFFC
C00C
ENDCHAR
STARTCHAR 0374
ENCODING 884
SWIDTH 300 0
DWIDTH 5 0
BBX 3 5 1 6
BITMAP
60
60
E0
E0
C0
ENDCHAR
STARTCHAR 0375
ENCODING 885
SWIDTH 300 0
DWIDTH 5 0
BBX 3 5 1 0
BITMAP
60
60
E0
E0
E0
ENDCHAR
STARTCHAR 037A
ENCODING 890
SWIDTH 540 0
DWIDTH 9 0
BBX 3 3 4 -4
BITMAP
C0
E0
E0
ENDCHAR
STARTCHAR 037E
ENCODING 894
SWIDTH 300 0
DWIDTH 5 0
BBX 4 12 1 -3
BITMAP
E0
E0
E0
00
00
00
E0
F0
F0
30
60
C0
ENDCHAR
STARTCHAR 0384
ENCODING 900
SWIDTH 540 0
DWIDTH 9 0
BBX 3 4 4 9
BITMAP
E0
C0
C0
C0
ENDCHAR
STARTCHAR 0385
ENCODING 901
SWIDTH 540 0
DWIDTH 9 0
BBX 7 4 1 10
BITMAP
18
18
DE
D6
ENDCHAR
STARTCHAR 0386
ENCODING 902
SWIDTH 660 0
DWIDTH 11 0
BBX 11 11 0 0
BITMAP
EF00
CF00
DF00
DF80
1B80
3980
39C0
3FC0
3FC0
71C0
70E0
ENDCHAR
STARTCHAR 0387
ENCODING 903
SWIDTH 300 0
DWIDTH 5 0
BBX 3 3 1 6
BITMAP
E0
E0
E0
ENDCHAR
STARTCHAR 0388
ENCODING 904
SWIDTH 720 0
DWIDTH 12 0
BBX 11 11 0 0
BITMAP
EFE0
CFE0
CC00
4C00
0FC0
0FC0
0C00
0C00
0C00
0FE0
0FE0
ENDCHAR
STARTCHAR 0389
ENCODING 905
SWIDTH 840 0
DWIDTH 14 0
BBX 13 11 0 0
BITMAP
EC38
CC38
CC38
4C38
0FF8
0FF8
0FF8
0C38
0C38
0C38
0C38
ENDCHAR
STARTCHAR 038A
ENCODING 906
SWIDTH 480 0
DWIDTH 8 0
BBX 6 11 0 0
BITMAP
EC
CC
CC
CC
0C
0C
0C
0C
0C
0C
0C
ENDCHAR
STARTCHAR 038C
ENCODING 908
SWIDTH 780 0
DWIDTH 13 0
BBX 13 11 0 0
BITMAP
E7C0
CFE0
DEF0
DC70
1C38
1C38
1C38
1C70
1EF0
0FE0
07C0
ENDCHAR
STARTCHAR 038E
ENCODING 910
SWIDTH 720 0
DWIDTH 12 0
BBX 12 11 0 0
BITMAP
FC70
CE70
CE60
C6E0
07E0
03C0
03C0
0380
0380
0380
0380
ENDCHAR
STARTCHAR 038F
ENCODING 911
SWIDTH 840 0
DWIDTH 14 0
BBX 13 11 0 0
BITMAP
C7C0
CFF0
DFF0
DC38
1C38
1C38
1C38
1C30
0E70
1EF8
1EF8
ENDCHAR
STARTCHAR 0390
ENCODING 912
SWIDTH 300 0
DWIDTH 5 0
BBX 7 14 -1 0
BITMAP
10
18
D6
D6
00
38
38
38
38
38
38
38
3C
1C
ENDCHAR
STARTCHAR 0391
ENCODING 913
SWIDTH 600 0
DWIDTH 10 0
BBX 10 11 0 0
BITMAP
1E00
1E00
3E00
3F00
3700
7300
7380
7F80
7F80
E380
E1C0
ENDCHAR
STARTCHAR 0392
ENCODING 914
SWIDTH 600 0
DWIDTH 10 0
BBX 9 11 1 0
BITMAP
FE00
FF00
E700
E700
FE00
FF00
E380
E380
E780
FF00
FE00
ENDCHAR
STARTCHAR 0393
ENCODING 915
SWIDTH 540 0
DWIDTH 9 0
BBX 7 11 1 0
BITMAP
FE
FE
E0
E0
E0
E0
E0
E0
E0
E0
E0
ENDCHAR
STARTCHAR 0394
ENCODING 916
SWIDTH 660 0
DWIDTH 11 0
BBX 9 11 1 0
BITMAP
1C00
3E00
3600
3600
7700
7700
6300
E380
E380
FF80
FF80
ENDCHAR
STARTCHAR 0395
ENCODING 917
SWIDTH 540 0
DWIDTH 9 0
BBX 7 11 1 0
BITMAP
FE
FE
E0
E0
FE
FE
E0
E0
E0
FE
FE
ENDCHAR
STARTCHAR 0396
ENCODING 918
SWIDTH 540 0
DWIDTH 9 0
BBX 8 11 1 0
BITMAP
FF
FF
0E
1C
1C
38
70
70
E0
FF
FF
ENDCHAR
STARTCHAR 0397
ENCODING 919
SWIDTH 660 0
DWIDTH 11 0
BBX 9 11 1 0
BITMAP
E380
E380
E380
E380
FF80
FF80
FF80
E380
E380
E380
E380
ENDCHAR
STARTCHAR 0398
ENCODING 920
SWIDTH 720 0
DWIDTH 12 0
BBX 10 11 1 0
BITMAP
3E00
7F00
F780
E3C0
FDC0
FDC0
FDC0
E3C0
F780
7F00
3E00
ENDCHAR
STARTCHAR 0399
ENCODING 921
SWIDTH 300 0
DWIDTH 5 0
BBX 3 11 1 0
BITMAP
E0
E0
E0
E0
E0
E0
E0
E0
E0
E0
E0
ENDCHAR
STARTCHAR 039A
ENCODING 922
SWIDTH 600 0
DWIDTH 10 0
BBX 9 11 1 0
BITMAP
E380
E700
EE00
EC00
FC00
FC00
FE00
F700
E700
E380
E380
ENDCHAR
STARTCHAR 039B
ENCODING 923
SWIDTH 600 0
DWIDTH 10 0
BBX 10 11 0 0
BITMAP
1E00
1E00
3E00
3700
3700
7700
7300
7380
6380
E380
E1C0
ENDCHAR
STARTCHAR 039C
ENCODING 924
SWIDTH 780 0
DWIDTH 13 0
BBX 11 11 1 0
BITMAP
E1E0
F1E0
F1E0
FBE0
DBE0
FBE0
FFE0
EEE0
EEE0
ECE0
E0E0
ENDCHAR
STARTCHAR 039D
ENCODING 925
SWIDTH 660 0
DWIDTH 11 0
BBX 9 11 1 0
BITMAP
E380
F380
F380
FB80
FB80
FF80
ED80
EF80
E780
E780
E380
ENDCHAR
STARTCHAR 039E
ENCODING 926
SWIDTH 600 0
DWIDTH 10 0
BBX 8 11 1 0
BITMAP
FF
FF
00
00
7E
7E
00
00
00
FF
FF
ENDCHAR
STARTCHAR 039F
ENCODING 927
SWIDTH 720 0
DWIDTH 12 0
BBX 10 11 1 0
BITMAP
3E00
7F00
F780
E3C0
E1C0
E1C0
E1C0
E3C0
F780
7F00
3E00
ENDCHAR
STARTCHAR 03A0
ENCODING 928
SWIDTH 660 0
DWIDTH 11 0
BBX 9 11 1 0
BITMAP
FF80
FF80
E380
E380
E380
E380
E380
E380
E380
E380
E380
ENDCHAR
STARTCHAR 03A1
ENCODING 929
SWIDTH 600 0
DWIDTH 10 0
BBX 9 11 1 0
BITMAP
FE00
FF00
E700
E380
E700
FF00
FE00
E000
E000
E000
E000
ENDCHAR
STARTCHAR 03A3
ENCODING 931
SWIDTH 540 0
DWIDTH 9 0
BBX 8 11 1 0
BITMAP
FE
FE
E0
70
38
1C
38
70
E0
FF
FF
ENDCHAR
STARTCHAR 03A4
ENCODING 932
SWIDTH 540 0
DWIDTH 9 0
BBX 9 11 0 0
BITMAP
FF80
FF80
1C00
1C00
1C00
1C00
1C00
1C00
1C00
1C00
1C00
ENDCHAR
STARTCHAR 03A5
ENCODING 933
SWIDTH 540 0
DWIDTH 9 0
BBX 9 11 0 0
BITMAP
E380
6380
7700
7700
3600
3E00
1C00
1C00
1C00
1C00
1C00
ENDCHAR
STARTCHAR 03A6
ENCODING 934
SWIDTH 780 0
DWIDTH 13 0
BBX 11 12 1 -1
BITMAP
0E00
1F00
7FC0
FFE0
EEE0
EEE0
EEE0
EEE0
7FC0
3F80
0E00
0E00
ENDCHAR
STARTCHAR 03A7
ENCODING 935
SWIDTH 600 0
DWIDTH 10 0
BBX 9 11 0 0
BITMAP
7380
7380
3F00
3F00
1E00
1E00
3E00
3F00
7700
7380
E380
ENDCHAR
STARTCHAR 03A8
ENCODING 936
SWIDTH 780 0
DWIDTH 13 0
BBX 11 11 1 0
BITMAP
EEE0
EEE0
EEE0
EEE0
EEE0
FFC0
7FC0
0E00
0E00
0E00
0E00
ENDCHAR
STARTCHAR 03A9
ENCODING 937
SWIDTH 720 0
DWIDTH 12 0
BBX 10 11 1 0
BITMAP
1E00
7F80
7F80
E1C0
E1C0
E1C0
E1C0
6180
7380
F3C0
F3C0
ENDCHAR
STARTCHAR 03AA
ENCODING 938
SWIDTH 300 0
DWIDTH 5 0
BBX 7 15 -1 0
BITMAP
44
EE
6E
00
38
38
38
38
38
38
38
38
38
38
38
ENDCHAR
STARTCHAR 03AB
ENCODING 939
SWIDTH 540 0
DWIDTH 9 0
BBX 9 15 0 0
BITMAP
2200
7700
3600
0000
E380
6380
7700
7700
3600
3E00
1C00
1C00
1C00
1C00
1C00
ENDCHAR
STARTCHAR 03AC
ENCODING 940
SWIDTH 600 0
DWIDTH 10 0
BBX 9 14 1 0
BITMAP
1C00
1C00
1800
1800
0000
7B00
FF00
EF00
E700
C700
E600
EF00
FF80
7380
ENDCHAR
STARTCHAR 03AD
ENCODING 941
SWIDTH 480 0
DWIDTH 8 0
BBX 6 14 1 0
BITMAP
18
18
18
38
00
7C
FC
E4
F8
F8
C0
E4
FC
7C
ENDCHAR
STARTCHAR 03AE
ENCODING 942
SWIDTH 600 0
DWIDTH 10 0
BBX 8 18 1 -4
BITMAP
0C
1C
1C
18
00
CE
DE
FF
E7
E7
E7
E7
E7
E7
07
07
07
07
ENDCHAR
STARTCHAR 03AF
ENCODING 943
SWIDTH 300 0
DWIDTH 5 0
BBX 4 14 1 0
BITMAP
70
60
60
C0
00
E0
E0
E0
E0
E0
E0
E0
F0
70
ENDCHAR
STARTCHAR 03B0
ENCODING 944
SWIDTH 540 0
DWIDTH 9 0
BBX 7 14 1 0
BITMAP
18
18
D6
D6
00
C6
EE
EE
CE
CE
CE
EE
FE
78
ENDCHAR
STARTCHAR 03B1
ENCODING 945
SWIDTH 600 0
DWIDTH 10 0
BBX 9 9 1 0
BITMAP
7B00
FF00
EF00
E700
C700
E600
EF00
FF80
7380
ENDCHAR
STARTCHAR 03B2
ENCODING 946
SWIDTH 600 0
DWIDTH 10 0
BBX 9 16 1 -4
BITMAP
3C00
7E00
E700
E700
E700
EE00
EF00
E380
E380
F780
FF00
FE00
E000
E000
E000
E000
ENDCHAR
STARTCHAR 03B3
ENCODING 947
SWIDTH 540 0
DWIDTH 9 0
BBX 9 13 0 -4
BITMAP
6380
F380
7300
7300
3F00
3F00
3E00
1E00
1C00
1C00
1C00
1C00
1C00
ENDCHAR
STARTCHAR 03B4
ENCODING 948
SWIDTH 540 0
DWIDTH 9 0
BBX 8 12 1 0
BITMAP
7E
FE
E2
70
7C
7E
EE
C7
C7
EE
FE
7C
ENDCHAR
STARTCHAR 03B5
ENCODING 949
SWIDTH 480 0
DWIDTH 8 0
BBX 6 9 1 0
BITMAP
7C
FC
E4
F8
F8
C0
E4
FC
7C
ENDCHAR
STARTCHAR 03B6
ENCODING 950
SWIDTH 480 0
DWIDTH 8 0
BBX 7 16 1 -4
BITMAP
FE
FE
1C
38
70
E0
E0
E0
E0
E0
F8
7C
3E
0E
0C
0C
ENDCHAR
STARTCHAR 03B7
ENCODING 951
SWIDTH 600 0
DWIDTH 10 0
BBX 8 13 1 -4
BITMAP
CE
DE
FF
E7
E7
E7
E7
E7
E7
07
07
07
07
ENDCHAR
STARTCHAR 03B8
ENCODING 952
SWIDTH 540 0
DWIDTH 9 0
BBX 8 12 1 0
BITMAP
3C
7E
EE
E6
E7
FF
FF
E7
E6
EE
7C
38
ENDCHAR
STARTCHAR 03B9
ENCODING 953
SWIDTH 300 0
DWIDTH 5 0
BBX 4 9 1 0
BITMAP
E0
E0
E0
E0
E0
E0
E0
F0
70
ENDCHAR
STARTCHAR 03BA
ENCODING 954
SWIDTH 540 0
DWIDTH 9 0
BBX 8 9 1 0
BITMAP
E2
EF
EF
FC
FC
FC
EE
EE
E7
ENDCHAR
STARTCHAR 03BB
ENCODING 955
SWIDTH 600 0
DWIDTH 10 0
BBX 9 12 0 0
BITMAP
7800
7C00
5C00
0E00
1E00
1E00
1F00
3F00
3300
7380
7380
E380
ENDCHAR
STARTCHAR 03BC
ENCODING 956
SWIDTH 600 0
DWIDTH 10 0
BBX 9 13 1 -4
BITMAP
E700
E700
E700
E700
E700
E700
EF00
FF80
FB80
E000
E000
E000
E000
ENDCHAR
STARTCHAR 03BD
ENCODING 957
SWIDTH 540 0
DWIDTH 9 0
BBX 9 9 0 0
BITMAP
6380
F380
7300
7300
3700
3E00
3E00
1C00
1C00
ENDCHAR
STARTCHAR 03BE
ENCODING 958
SWIDTH 480 0
DWIDTH 8 0
BBX 8 16 0 -4
BITMAP
FF
FF
38
70
30
3E
3E
70
70
70
7E
7F
1F
07
06
06
ENDCHAR
STARTCHAR 03BF
ENCODING 959
SWIDTH 540 0
DWIDTH 9 0
BBX 8 9 1 0
BITMAP
3C
FE
EE
E7
C7
E7
EE
FE
3C
ENDCHAR
STARTCHAR 03C0
ENCODING 960
SWIDTH 660 0
DWIDTH 11 0
BBX 11 9 0 0
BITMAP
FFE0
FFE0
3B80
3B80
3B80
3B80
3B80
33C0
31E0
ENDCHAR
STARTCHAR 03C1
ENCODING 961
SWIDTH 600 0
DWIDTH 10 0
BBX 8 13 1 -4
BITMAP
3C
7E
EF
E7
E7
E7
EF
FE
FC
E0
E0
E0
E0
ENDCHAR
STARTCHAR 03C2
ENCODING 962
SWIDTH 480 0
DWIDTH 8 0
BBX 6 13 1 -4
BITMAP
3C
FC
E0
E0
C0
E0
E0
F8
7C
1C
0C
1C
08
ENDCHAR
STARTCHAR 03C3
ENCODING 963
SWIDTH 600 0
DWIDTH 10 0
BBX 9 9 1 0
BITMAP
3F80
FF80
EE00
E600
C600
E600
EE00
FE00
3C00
ENDCHAR
STARTCHAR 03C4
ENCODING 964
SWIDTH 480 0
DWIDTH 8 0
BBX 8 9 0 0
BITMAP
FF
FF
1C
1C
18
18
1C
1E
0E
ENDCHAR
STARTCHAR 03C5
ENCODING 965
SWIDTH 540 0
DWIDTH 9 0
BBX 7 9 1 0
BITMAP
C6
EE
EE
CE
CE
CE
EE
FE
78
ENDCHAR
STARTCHAR 03C6
ENCODING 966
SWIDTH 780 0
DWIDTH 13 0
BBX 11 15 1 -4
BITMAP
0E00
0E00
3F80
7FC0
EEE0
EEE0
CEE0
EEE0
EEE0
7FC0
3F80
0E00
0E00
0E00
0E00
ENDCHAR
STARTCHAR 03C7
ENCODING 967
SWIDTH 540 0
DWIDTH 9 0
BBX 9 13 0 -4
BITMAP
6380
7700
7700
3E00
3E00
1C00
1C00
1E00
3E00
3700
7700
7380
E380
ENDCHAR
STARTCHAR 03C8
ENCODING 968
SWIDTH 780 0
DWIDTH 13 0
BBX 11 15 1 -4
BITMAP
0E00
0E00
CEE0
EEE0
EEE0
EEE0
EEE0
EEE0
EEE0
7FC0
3F80
0E00
0E00
0E00
0E00
ENDCHAR
STARTCHAR 03C9
ENCODING 969
SWIDTH 780 0
DWIDTH 13 0
BBX 11 9 1 0
BITMAP
4040
E0E0
E0E0
CEE0
CEE0
CEE0
EEE0
FFC0
7BC0
ENDCHAR
STARTCHAR 03CA
ENCODING 970
SWIDTH 300 0
DWIDTH 5 0
BBX 7 13 -1 0
BITMAP
44
EE
EC
00
38
38
38
38
38
38
38
3C
1C
ENDCHAR
STARTCHAR 03CB
ENCODING 971
SWIDTH 540 0
DWIDTH 9 0
BBX 7 13 1 0
BITMAP
44
EE
6C
00
C6
EE
EE
CE
CE
CE
EE
FE
78
ENDCHAR
STARTCHAR 03CC
ENCODING 972
SWIDTH 540 0
DWIDTH 9 0
BBX 8 14 1 0
BITMAP
18
1C
18
18
00
3C
FE
EE
E7
C7
E7
EE
FE
3C
ENDCHAR
STARTCHAR 03CD
ENCODING 973
SWIDTH 540 0
DWIDTH 9 0
BBX 7 14 1 0
BITMAP
18
18
18
18
00
C6
EE
EE
CE
CE
CE
EE
FE
78
ENDCHAR
STARTCHAR 03CE
ENCODING 974
SWIDTH 780 0
DWIDTH 13 0
BBX 11 14 1 0
BITMAP
0600
0600
0600
0E00
0000
4040
E0E0
E0E0
CEE0
CEE0
CEE0
EEE0
FFC0
7BC0
ENDCHAR
STARTCHAR 03D0
ENCODING 976
SWIDTH 600 0
DWIDTH 10 0
BBX 9 12 1 0
BITMAP
3C00
7E00
E700
E700
EE00
FC00
FF00
E300
E380
F700
7F00
3E00
ENDCHAR
STARTCHAR 03D1
ENCODING 977
SWIDTH 540 0
DWIDTH 9 0
BBX 8 12 1 0
BITMAP
78
FC
EE
C6
E6
FF
3F
E7
E6
EE
7E
7C
ENDCHAR
STARTCHAR 03D5
ENCODING 981
SWIDTH 780 0
DWIDTH 13 0
BBX 11 13 1 -4
BITMAP
4380
F7C0
EEE0
EEE0
CEE0
EEE0
EFE0
7FC0
3F80
0E00
0E00
0E00
0E00
ENDCHAR
STARTCHAR 03D7
ENCODING 983
SWIDTH 540 0
DWIDTH 9 0
BBX 8 12 1 -3
BITMAP
E2
EF
EF
FC
FC
FC
EE
EF
E7
07
0E
1E
ENDCHAR
STARTCHAR 03D9
ENCODING 985
SWIDTH 540 0
DWIDTH 9 0
BBX 8 13 1 -4
BITMAP
3C
7E
EE
E7
C7
E7
E7
FE
7E
38
38
38
38
ENDCHAR
STARTCHAR 03DB
ENCODING 987
SWIDTH 480 0
DWIDTH 8 0
BBX 7 13 1 -4
BITMAP
3E
FE
E0
E0
C0
E0
F0
FC
7C
1E
0C
0C
0C
ENDCHAR
STARTCHAR 03DD
ENCODING 989
SWIDTH 420 0
DWIDTH 7 0
BBX 6 13 1 -4
BITMAP
FC
FC
E0
E0
E0
FC
FC
E0
E0
E0
E0
E0
E0
ENDCHAR
STARTCHAR 03E1
ENCODING 993
SWIDTH 540 0
DWIDTH 9 0
BBX 9 16 0 -4
BITMAP
1000
3800
3C00
1C00
0E00
1F00
7F00
FF00
6380
0780
3F80
3F80
3380
0380
0380
0380
ENDCHAR
STARTCHAR 0400
ENCODING 1024
SWIDTH 540 0
DWIDTH 9 0
BBX 7 15 1 0
BITMAP
20
70
38
00
FE
FE
E0
E0
FE
FE
E0
E0
E0
FE
FE
ENDCHAR
STARTCHAR 0401
ENCODING 1025
SWIDTH 540 0
DWIDTH 9 0
BBX 7 15 1 0
BITMAP
44
6E
66
00
FE
FE
E0
E0
FE
FE
E0
E0
E0
FE
FE
ENDCHAR
STARTCHAR 0402
ENCODING 1026
SWIDTH 720 0
DWIDTH 12 0
BBX 11 11 0 0
BITMAP
FF80
FF80
1C00
1C00
1F80
1FE0
1CE0
1CE0
1CE0
1DE0
1DC0
ENDCHAR
STARTCHAR 0403
ENCODING 1027
SWIDTH 540 0
DWIDTH 9 0
BBX 7 15 1 0
BITMAP
04
1E
1C
00
FE
FE
E0
E0
E0
E0
E0
E0
E0
E0
E0
ENDCHAR
STARTCHAR 0404
ENCODING 1028
SWIDTH 600 0
DWIDTH 10 0
BBX 8 11 1 0
BITMAP
1E
7F
FE
E0
FC
FC
E0
E0
F7
7F
3E
ENDCHAR
STARTCHAR 0405
ENCODING 1029
SWIDTH 540 0
DWIDTH 9 0
BBX 8 11 1 0
BITMAP
3C
7F
FE
E0
F8
7E
1F
07
EF
FE
7C
ENDCHAR
STARTCHAR 0406
ENCODING 1030
SWIDTH 300 0
DWIDTH 5 0
BBX 3 11 1 0
BITMAP
E0
E0
E0
E0
E0
E0
E0
E0
E0
E0
E0
ENDCHAR
STARTCHAR 0407
ENCODING 1031
SWIDTH 300 0
DWIDTH 5 0
BBX 7 15 -1 0
BITMAP
44
EE
6E
00
38
38
38
38
38
38
38
38
38
38
38
ENDCHAR
STARTCHAR 0408
ENCODING 1032
SWIDTH 540 0
DWIDTH 9 0
BBX 7 11 1 0
BITMAP
0E
0E
0E
0E
0E
0E
0E
0E
DC
FC
78
ENDCHAR
STARTCHAR 0409
ENCODING 1033
SWIDTH 900 0
DWIDTH 15 0
BBX 15 11 0 0
BITMAP
1FC0
1FC0
1DC0
1DC0
19FC
39FC
39CE
39CE
F1DE
F1FC
E1F8
ENDCHAR
STARTCHAR 040A
ENCODING 1034
SWIDTH 960 0
DWIDTH 16 0
BBX 14 11 1 0
BITMAP
E380
E380
E380
E380
FFF8
FFFC
FF9C
E39C
E39C
E3F8
E3F0
ENDCHAR
STARTCHAR 040B
ENCODING 1035
SWIDTH 720 0
DWIDTH 12 0
BBX 11 11 0 0
BITMAP
FF80
FF80
1C00
1C00
1F80
1FE0
1CE0
1CE0
1CE0
1CE0
1CE0
ENDCHAR
STARTCHAR 040C
ENCODING 1036
SWIDTH 660 0
DWIDTH 11 0
BBX 9 15 1 0
BITMAP
0600
0F00
0C00
0000
E180
E380
E780
EE00
FE00
FE00
EE00
E700
E700
E380
E380
ENDCHAR
STARTCHAR 040D
ENCODING 1037
SWIDTH 660 0
DWIDTH 11 0
BBX 9 15 1 0
BITMAP
3000
3C00
1C00
0000
E380
E780
E780
EF80
ED80
ED80
FB80
FB80
F380
F380
E380
ENDCHAR
STARTCHAR 040E
ENCODING 1038
SWIDTH 600 0
DWIDTH 10 0
BBX 9 14 0 0
BITMAP
3300
3F00
0000
E180
7380
7380
3300
3F00
1E00
1E00
1E00
3C00
3C00
7800
ENDCHAR
STARTCHAR 040F
ENCODING 1039
SWIDTH 660 0
DWIDTH 11 0
BBX 9 14 1 -3
BITMAP
E380
E380
E380
E380
E380
E380
E380
E380
E380
FF80
FF80
1C00
1C00
1C00
ENDCHAR
STARTCHAR 0410
ENCODING 1040
SWIDTH 600 0
DWIDTH 10 0
BBX 10 11 0 0
BITMAP
1E00
1E00
3E00
3F00
3700
7300
7380
7F80
7F80
E380
E1C0
ENDCHAR
STARTCHAR 0411
ENCODING 1041
SWIDTH 600 0
DWIDTH 10 0
BBX 9 11 1 0
BITMAP
FF00
FF00
E000
E000
FE00
FF00
E700
E380
E700
FF00
FE00
ENDCHAR
STARTCHAR 0412
ENCODING 1042
SWIDTH 600 0
DWIDTH 10 0
BBX 9 11 1 0
BITMAP
FE00
FF00
E700
E700
FE00
FF00
E380
E380
E780
FF00
FE00
ENDCHAR
STARTCHAR 0413
ENCODING 1043
SWIDTH 540 0
DWIDTH 9 0
BBX 7 11 1 0
BITMAP
FE
FE
E0
E0
E0
E0
E0
E0
E0
E0
E0
ENDCHAR
STARTCHAR 0414
ENCODING 1044
SWIDTH 660 0
DWIDTH 11 0
BBX 11 14 0 -3
BITMAP
1FC0
1FC0
19C0
39C0
39C0
39C0
31C0
71C0
71C0
FFE0
FFE0
E0E0
E0E0
E0E0
ENDCHAR
STARTCHAR 0415
ENCODING 1045
SWIDTH 540 0
DWIDTH 9 0
BBX 7 11 1 0
BITMAP
FE
FE
E0
E0
FE
FE
E0
E0
E0
FE
FE
ENDCHAR
STARTCHAR 0416
ENCODING 1046
SWIDTH 900 0
DWIDTH 15 0
BBX 15 11 0 0
BITMAP
E38E
F39C
7BBC
3BB8
1FF0
1FF0
3BB8
3BB8
739C
739C
E38E
ENDCHAR
STARTCHAR 0417
ENCODING 1047
SWIDTH 540 0
DWIDTH 9 0
BBX 8 11 1 0
BITMAP
7C
FE
6E
06
3E
3E
07
07
EF
FE
7C
ENDCHAR
STARTCHAR 0418
ENCODING 1048
SWIDTH 660 0
DWIDTH 11 0
BBX 9 11 1 0
BITMAP
E380
E780
E780
EF80
ED80
ED80
FB80
FB80
F380
F380
E380
ENDCHAR
STARTCHAR 0419
ENCODING 1049
SWIDTH 660 0
DWIDTH 11 0
BBX 9 14 1 0
BITMAP
3700
1E00
0000
E380
E780
E780
EF80
ED80
ED80
FB80
FB80
F380
F380
E380
ENDCHAR
STARTCHAR 041A
ENCODING 1050
SWIDTH 660 0
DWIDTH 11 0
BBX 9 11 1 0
BITMAP
E180
E380
E780
EE00
FE00
FE00
EE00
E700
E700
E380
E380
ENDCHAR
STARTCHAR 041B
ENCODING 1051
SWIDTH 660 0
DWIDTH 11 0
BBX 10 11 0 0
BITMAP
1FC0
1FC0
19C0
19C0
39C0
39C0
39C0
31C0
F1C0
F1C0
E1C0
ENDCHAR
STARTCHAR 041C
ENCODING 1052
SWIDTH 780 0
DWIDTH 13 0
BBX 11 11 1 0
BITMAP
E1E0
F1E0
F1E0
FBE0
DBE0
FBE0
FFE0
EEE0
EEE0
ECE0
E0E0
ENDCHAR
STARTCHAR 041D
ENCODING 1053
SWIDTH 660 0
DWIDTH 11 0
BBX 9 11 1 0
BITMAP
E380
E380
E380
E380
FF80
FF80
FF80
E380
E380
E380
E380
ENDCHAR
STARTCHAR 041E
ENCODING 1054
SWIDTH 720 0
DWIDTH 12 0
BBX 10 11 1 0
BITMAP
3E00
7F00
F780
E3C0
E1C0
E1C0
E1C0
E3C0
F780
7F00
3E00
ENDCHAR
STARTCHAR 041F
ENCODING 1055
SWIDTH 660 0
DWIDTH 11 0
BBX 9 11 1 0
BITMAP
FF80
FF80
E380
E380
E380
E380
E380
E380
E380
E380
E380
ENDCHAR
STARTCHAR 0420
ENCODING 1056
SWIDTH 600 0
DWIDTH 10 0
BBX 9 11 1 0
BITMAP
FE00
FF00
E700
E380
E700
FF00
FE00
E000
E000
E000
E000
ENDCHAR
STARTCHAR 0421
ENCODING 1057
SWIDTH 600 0
DWIDTH 10 0
BBX 8 11 1 0
BITMAP
1E
7F
7E
E0
E0
E0
E0
E0
FF
7F
1E
ENDCHAR
STARTCHAR 0422
ENCODING 1058
SWIDTH 540 0
DWIDTH 9 0
BBX 9 11 0 0
BITMAP
FF80
FF80
1C00
1C00
1C00
1C00
1C00
1C00
1C00
1C00
1C00
ENDCHAR
STARTCHAR 0423
ENCODING 1059
SWIDTH 600 0
DWIDTH 10 0
BBX 9 11 0 0
BITMAP
E180
7380
7380
3300
3F00
1E00
1E00
1E00
3C00
3C00
7800
ENDCHAR
STARTCHAR 0424
ENCODING 1060
SWIDTH 780 0
DWIDTH 13 0
BBX 11 11 1 0
BITMAP
0E00
3F80
7FC0
EEE0
EEE0
CE60
EEE0
EEE0
7FC0
3F80
0E00
ENDCHAR
STARTCHAR 0425
ENCODING 1061
SWIDTH 600 0
DWIDTH 10 0
BBX 9 11 0 0
BITMAP
7380
7380
3F00
3F00
1E00
1E00
3E00
3F00
7700
7380
E380
ENDCHAR
STARTCHAR 0426
ENCODING 1062
SWIDTH 660 0
DWIDTH 11 0
BBX 10 14 1 -3
BITMAP
E380
E380
E380
E380
E380
E380
E380
E380
E380
FFC0
FFC0
01C0
01C0
01C0
ENDCHAR
STARTCHAR 0427
ENCODING 1063
SWIDTH 660 0
DWIDTH 11 0
BBX 9 11 1 0
BITMAP
E380
E380
E380
E380
E380
7F80
3F80
0380
0380
0380
0380
ENDCHAR
STARTCHAR 0428
ENCODING 1064
SWIDTH 900 0
DWIDTH 15 0
BBX 13 11 1 0
BITMAP
E738
E738
E738
E738
E738
E738
E738
E738
E738
FFF8
FFF8
ENDCHAR
STARTCHAR 0429
ENCODING 1065
SWIDTH 960 0
DWIDTH 16 0
BBX 15 14 1 -3
BITMAP
E738
E738
E738
E738
E738
E738
E738
E738
E738
FFFE
FFFE
000E
000E
000C
ENDCHAR
STARTCHAR 042A
ENCODING 1066
SWIDTH 720 0
DWIDTH 12 0
BBX 12 11 0 0
BITMAP
FC00
FC00
1C00
1C00
1FC0
1FE0
1C70
1C70
1CF0
1FE0
1FC0
ENDCHAR
STARTCHAR 042B
ENCODING 1067
SWIDTH 900 0
DWIDTH 15 0
BBX 12 11 1 0
BITMAP
E070
E070
E070
E070
FE70
FF70
E770
E770
E770
FF70
FC70
ENDCHAR
STARTCHAR 042C
ENCODING 1068
SWIDTH 600 0
DWIDTH 10 0
BBX 9 11 1 0
BITMAP
E000
E000
E000
E000
FE00
FF00
E380
E380
E700
FF00
FE00
ENDCHAR
STARTCHAR 042D
ENCODING 1069
SWIDTH 600 0
DWIDTH 10 0
BBX 9 11 0 0
BITMAP
3C00
FF00
6F00
0380
1F80
1F80
0380
0380
6F00
FF00
3C00
ENDCHAR
STARTCHAR 042E
ENCODING 1070
SWIDTH 960 0
DWIDTH 16 0
BBX 14 11 1 0
BITMAP
E1F0
E3F8
E7BC
E71C
FF1C
FF1C
FF1C
E71C
E7BC
E3F8
E1F0
ENDCHAR
STARTCHAR 042F
ENCODING 1071
SWIDTH 660 0
DWIDTH 11 0
BBX 9 11 0 0
BITMAP
1F80
7F80
7380
7380
7380
7F80
3F80
3B80
3B80
7380
F380
ENDCHAR
STARTCHAR 0430
ENCODING 1072
SWIDTH 540 0
DWIDTH 9 0
BBX 7 9 1 0
BITMAP
7C
FE
4E
3E
FE
EE
CE
FE
76
ENDCHAR
STARTCHAR 0431
ENCODING 1073
SWIDTH 540 0
DWIDTH 9 0
BBX 8 12 1 0
BITMAP
1E
7E
FE
E0
DC
FE
E7
C7
C7
EF
7E
3C
ENDCHAR
STARTCHAR 0432
ENCODING 1074
SWIDTH 540 0
DWIDTH 9 0
BBX 7 9 1 0
BITMAP
FC
FE
EE
FE
FE
E6
E6
FE
FC
ENDCHAR
STARTCHAR 0433
ENCODING 1075
SWIDTH 420 0
DWIDTH 7 0
BBX 6 9 1 0
BITMAP
FC
FC
E0
E0
E0
E0
E0
E0
E0
ENDCHAR
STARTCHAR 0434
ENCODING 1076
SWIDTH 600 0
DWIDTH 10 0
BBX 10 12 0 -3
BITMAP
3F80
3F80
3380
3380
7380
7380
7380
FFC0
FFC0
E1C0
E1C0
E1C0
ENDCHAR
STARTCHAR 0435
ENCODING 1077
SWIDTH 540 0
DWIDTH 9 0
BBX 7 9 1 0
BITMAP
3C
FE
E6
FE
FE
C0
E4
7E
3C
ENDCHAR
STARTCHAR 0436
ENCODING 1078
SWIDTH 780 0
DWIDTH 13 0
BBX 13 9 0 0
BITMAP
6738
7770
7F70
3FE0
3FE0
3F60
7770
7770
E738
ENDCHAR
STARTCHAR 0437
ENCODING 1079
SWIDTH 480 0
DWIDTH 8 0
BBX 7 9 1 0
BITMAP
F8
FC
1C
7C
7C
0C
9E
FC
F8
ENDCHAR
STARTCHAR 0438
ENCODING 1080
SWIDTH 600 0
DWIDTH 10 0
BBX 8 9 1 0
BITMAP
E7
EF
EF
FF
FF
F7
F7
E7
E7
ENDCHAR
STARTCHAR 0439
ENCODING 1081
SWIDTH 600 0
DWIDTH 10 0
BBX 8 13 1 0
BITMAP
66
7E
3C
00
E7
EF
EF
FF
FF
F7
F7
E7
E7
ENDCHAR
STARTCHAR 043A
ENCODING 1082
SWIDTH 540 0
DWIDTH 9 0
BBX 8 9 1 0
BITMAP
E7
EE
EE
FC
FC
EC
EE
EE
E7
ENDCHAR
STARTCHAR 043B
ENCODING 1083
SWIDTH 600 0
DWIDTH 10 0
BBX 9 9 0 0
BITMAP
3F80
3F80
3B80
3380
3380
3380
F380
F380
E380
ENDCHAR
STARTCHAR 043C
ENCODING 1084
SWIDTH 660 0
DWIDTH 11 0
BBX 9 9 1 0
BITMAP
E380
F780
F780
F780
DD80
DD80
DD80
CD80
C180
ENDCHAR
STARTCHAR 043D
ENCODING 1085
SWIDTH 600 0
DWIDTH 10 0
BBX 8 9 1 0
BITMAP
E7
E7
E7
FF
FF
FF
E7
E7
E7
ENDCHAR
STARTCHAR 043E
ENCODING 1086
SWIDTH 540 0
DWIDTH 9 0
BBX 8 9 1 0
BITMAP
3C
FE
EE
E7
C7
E7
EE
FE
3C
ENDCHAR
STARTCHAR 043F
ENCODING 1087
SWIDTH 600 0
DWIDTH 10 0
BBX 8 9 1 0
BITMAP
FF
FF
E7
E7
E7
E7
E7
E7
E7
ENDCHAR
STARTCHAR 0440
ENCODING 1088
SWIDTH 600 0
DWIDTH 10 0
BBX 8 13 1 -4
BITMAP
DE
FE
E7
E7
E7
E7
EF
FE
FC
E0
E0
E0
E0
ENDCHAR
STARTCHAR 0441
ENCODING 1089
SWIDTH 480 0
DWIDTH 8 0
BBX 6 9 1 0
BITMAP
3C
7C
E0
E0
C0
E0
E4
FC
3C
ENDCHAR
STARTCHAR 0442
ENCODING 1090
SWIDTH 480 0
DWIDTH 8 0
BBX 8 9 0 0
BITMAP
FF
FF
1C
1C
1C
1C
1C
1C
1C
ENDCHAR
STARTCHAR 0443
ENCODING 1091
SWIDTH 540 0
DWIDTH 9 0
BBX 9 13 0 -4
BITMAP
E380
6300
7300
7700
3700
3600
3E00
1E00
1C00
1C00
1C00
7800
7000
ENDCHAR
STARTCHAR 0444
ENCODING 1092
SWIDTH 780 0
DWIDTH 13 0
BBX 12 16 1 -4
BITMAP
0E00
0E00
0E00
7FC0
FFE0
EEE0
EE70
EE70
EE70
EEE0
FFE0
7FC0
0E00
0E00
0E00
0E00
ENDCHAR
STARTCHAR 0445
ENCODING 1093
SWIDTH 540 0
DWIDTH 9 0
BBX 8 9 0 0
BITMAP
73
77
3E
3E
1C
3E
3E
77
E7
ENDCHAR
STARTCHAR 0446
ENCODING 1094
SWIDTH 600 0
DWIDTH 10 0
BBX 9 12 1 -3
BITMAP
E700
E700
E700
E700
E700
E700
E700
FF80
FF80
0380
0380
0380
ENDCHAR
STARTCHAR 0447
ENCODING 1095
SWIDTH 540 0
DWIDTH 9 0
BBX 7 9 1 0
BITMAP
E6
E6
E6
E6
FE
7E
06
06
06
ENDCHAR
STARTCHAR 0448
ENCODING 1096
SWIDTH 840 0
DWIDTH 14 0
BBX 12 9 1 0
BITMAP
EE70
EE70
EE70
EE70
EE70
EE70
EE70
FFF0
FFF0
ENDCHAR
STARTCHAR 0449
ENCODING 1097
SWIDTH 840 0
DWIDTH 14 0
BBX 13 12 1 -3
BITMAP
EE70
EE70
EE70
EE70
EE70
EE70
EE70
FFF8
FFF8
0038
0038
0038
ENDCHAR
STARTCHAR 044A
ENCODING 1098
SWIDTH 660 0
DWIDTH 11 0
BBX 10 9 0 0
BITMAP
FC00
FC00
1C00
1F80
1FC0
1DC0
1DC0
1FC0
1F80
ENDCHAR
STARTCHAR 044B
ENCODING 1099
SWIDTH 780 0
DWIDTH 13 0
BBX 11 9 1 0
BITMAP
E0E0
E0E0
E0E0
FCE0
FEE0
EEE0
EEE0
FEE0
FCE0
ENDCHAR
STARTCHAR 044C
ENCODING 1100
SWIDTH 540 0
DWIDTH 9 0
BBX 7 9 1 0
BITMAP
E0
E0
E0
FC
FE
EE
EE
FE
FC
ENDCHAR
STARTCHAR 044D
ENCODING 1101
SWIDTH 480 0
DWIDTH 8 0
BBX 6 9 1 0
BITMAP
F0
FC
1C
7C
7C
1C
9C
F8
F0
ENDCHAR
STARTCHAR 044E
ENCODING 1102
SWIDTH 780 0
DWIDTH 13 0
BBX 12 9 1 0
BITMAP
E3C0
E7E0
EEE0
FE70
FC70
FE70
EEE0
E7E0
E3C0
ENDCHAR
STARTCHAR 044F
ENCODING 1103
SWIDTH 540 0
DWIDTH 9 0
BBX 8 9 0 0
BITMAP
3F
7F
77
77
7F
3F
3F
77
F7
ENDCHAR
STARTCHAR 0450
ENCODING 1104
SWIDTH 540 0
DWIDTH 9 0
BBX 7 14 1 1
BITMAP
60
F0
78
10
00
3C
FE
E6
FE
FE
C0
E4
7E
3C
ENDCHAR
STARTCHAR 0451
ENCODING 1105
SWIDTH 540 0
DWIDTH 9 0
BBX 7 13 1 0
BITMAP
44
EE
6C
00
3C
FE
E6
FE
FE
C0
E4
7E
3C
ENDCHAR
STARTCHAR 0452
ENCODING 1106
SWIDTH 600 0
DWIDTH 10 0
BBX 9 16 0 -4
BITMAP
7000
FE00
7000
7000
7F00
7F80
7F80
7380
7380
7380
7380
7380
0380
0780
0F00
0E00
ENDCHAR
STARTCHAR 0453
ENCODING 1107
SWIDTH 420 0
DWIDTH 7 0
BBX 6 15 1 0
BITMAP
08
0C
1C
38
10
00
FC
FC
E0
E0
E0
E0
E0
E0
E0
ENDCHAR
STARTCHAR 0454
ENCODING 1108
SWIDTH 480 0
DWIDTH 8 0
BBX 6 9 1 0
BITMAP
3C
FC
E0
F8
F8
C0
E4
FC
3C
ENDCHAR
STARTCHAR 0455
ENCODING 1109
SWIDTH 480 0
DWIDTH 8 0
BBX 6 9 1 0
BITMAP
78
FC
C8
F0
F8
3C
9C
FC
F8
ENDCHAR
STARTCHAR 0456
ENCODING 1110
SWIDTH 300 0
DWIDTH 5 0
BBX 3 13 1 0
BITMAP
C0
E0
E0
00
E0
E0
E0
E0
E0
E0
E0
E0
E0
ENDCHAR
STARTCHAR 0457
ENCODING 1111
SWIDTH 300 0
DWIDTH 5 0
BBX 7 13 -1 0
BITMAP
44
EE
EC
00
38
38
38
38
38
38
38
38
38
ENDCHAR
STARTCHAR 0458
ENCODING 1112
SWIDTH 300 0
DWIDTH 5 0
BBX 5 17 -1 -4
BITMAP
38
38
38
00
38
38
38
38
38
38
38
38
38
38
38
F0
F0
ENDCHAR
STARTCHAR 0459
ENCODING 1113
SWIDTH 780 0
DWIDTH 13 0
BBX 13 9 0 0
BITMAP
3F80
3F80
3B80
3BF0
33F0
33B8
73B8
F3F0
E3E0
ENDCHAR
STARTCHAR 045A
ENCODING 1114
SWIDTH 780 0
DWIDTH 13 0
BBX 12 9 1 0
BITMAP
E700
E700
E700
E7E0
FFE0
FF70
E770
E7E0
E7C0
ENDCHAR
STARTCHAR 045B
ENCODING 1115
SWIDTH 600 0
DWIDTH 10 0
BBX 9 12 0 0
BITMAP
7000
FE00
7000
7000
7F00
7F00
7F80
7380
7380
7380
7380
7380
ENDCHAR
STARTCHAR 045C
ENCODING 1116
SWIDTH 540 0
DWIDTH 9 0
BBX 8 15 1 0
BITMAP
04
06
0E
1C
08
00
E7
EE
EE
FC
FC
EC
EE
EE
E7
ENDCHAR
STARTCHAR 045D
ENCODING 1117
SWIDTH 600 0
DWIDTH 10 0
BBX 8 15 1 0
BITMAP
20
60
70
38
10
00
E7
EF
EF
FF
FF
F7
F7
E7
E7
ENDCHAR
STARTCHAR 045E
ENCODING 1118
SWIDTH 540 0
DWIDTH 9 0
BBX 9 17 0 -4
BITMAP
3700
3E00
1C00
0000
E380
6300
7300
7700
3700
3600
3E00
1E00
1C00
1C00
1C00
7800
7000
ENDCHAR
STARTCHAR 045F
ENCODING 1119
SWIDTH 600 0
DWIDTH 10 0
BBX 8 12 1 -3
BITMAP
E7
E7
E7
E7
E7
E7
E7
FF
FF
38
18
18
ENDCHAR
STARTCHAR 0462
ENCODING 1122
SWIDTH 600 0
DWIDTH 10 0
BBX 10 12 0 0
BITMAP
3800
3800
FF80
FF80
3800
3F00
3F80
39C0
39C0
39C0
3F80
3F00
ENDCHAR
STARTCHAR 0463
ENCODING 1123
SWIDTH 600 0
DWIDTH 10 0
BBX 10 11 0 0
BITMAP
3800
3800
FF00
FF00
3800
3F00
3F80
39C0
39C0
3F80
3F00
ENDCHAR
STARTCHAR 0472
ENCODING 1138
SWIDTH 720 0
DWIDTH 12 0
BBX 10 11 1 0
BITMAP
3E00
7F80
F380
E1C0
FFC0
FFC0
E1C0
E1C0
F380
7F00
3E00
ENDCHAR
STARTCHAR 0473
ENCODING 1139
SWIDTH 540 0
DWIDTH 9 0
BBX 8 9 1 0
BITMAP
3C
FE
E7
FF
FF
C7
E6
7E
3C
ENDCHAR
STARTCHAR 0474
ENCODING 1140
SWIDTH 600 0
DWIDTH 10 0
BBX 10 11 0 0
BITMAP
E1C0
E1C0
63C0
7380
7300
7700
3700
3F00
3E00
1E00
1E00
ENDCHAR
STARTCHAR 0475
ENCODING 1141
SWIDTH 540 0
DWIDTH 9 0
BBX 9 9 0 0
BITMAP
E180
6380
7780
7700
3600
3600
3600
3E00
1C00
ENDCHAR
STARTCHAR 0490
ENCODING 1168
SWIDTH 540 0
DWIDTH 9 0
BBX 7 14 1 0
BITMAP
06
06
06
FE
FE
E0
E0
E0
E0
E0
E0
E0
E0
E0
ENDCHAR
STARTCHAR 0491
ENCODING 1169
SWIDTH 420 0
DWIDTH 7 0
BBX 6 12 1 0
BITMAP
0C
0C
1C
FC
FC
E0
E0
E0
E0
E0
E0
E0
ENDCHAR
STARTCHAR 0492
ENCODING 1170
SWIDTH 540 0
DWIDTH 9 0
BBX 9 11 0 0
BITMAP
3F80
3F80
3800
3800
3800
FC00
3800
3800
3800
3800
3800
ENDCHAR
STARTCHAR 0493
ENCODING 1171
SWIDTH 480 0
DWIDTH 8 0
BBX 7 8 0 1
BITMAP
7E
7E
70
70
FC
70
70
70
ENDCHAR
STARTCHAR 0496
ENCODING 1174
SWIDTH 900 0
DWIDTH 15 0
BBX 15 14 0 -3
BITMAP
E38E
F39C
73BC
3BB8
1FF0
1FF0
3BB8
3BB8
739C
739E
E38E
0006
0006
0006
ENDCHAR
STARTCHAR 0497
ENCODING 1175
SWIDTH 840 0
DWIDTH 14 0
BBX 14 12 0 -3
BITMAP
6738
7770
7F70
3FE0
3FE0
3F60
7770
777C
E73C
001C
001C
001C
ENDCHAR
STARTCHAR 0498
ENCODING 1176
SWIDTH 540 0
DWIDTH 9 0
BBX 8 14 1 -3
BITMAP
7C
FE
6E
06
3E
3E
07
07
FF
FE
3C
38
38
38
ENDCHAR
STARTCHAR 0499
ENCODING 1177
SWIDTH 480 0
DWIDTH 8 0
BBX 8 11 0 -2
BITMAP
7C
7E
0E
3E
3E
07
7E
FE
38
18
18
ENDCHAR
STARTCHAR 049A
ENCODING 1178
SWIDTH 660 0
DWIDTH 11 0
BBX 10 14 1 -3
BITMAP
E180
E380
E780
EE00
FE00
FE00
EE00
E700
E700
E3C0
E3C0
01C0
01C0
01C0
ENDCHAR
STARTCHAR 049B
ENCODING 1179
SWIDTH 600 0
DWIDTH 10 0
BBX 9 12 1 -3
BITMAP
E700
EE00
EE00
FC00
FC00
EC00
EE00
EF80
E780
0380
0380
0380
ENDCHAR
STARTCHAR 04A0
ENCODING 1184
SWIDTH 780 0
DWIDTH 13 0
BBX 13 11 0 0
BITMAP
FC30
FC70
1CF0
1DC0
1FC0
1FC0
1DC0
1CE0
1CE0
1C70
1C38
ENDCHAR
STARTCHAR 04A1
ENCODING 1185
SWIDTH 660 0
DWIDTH 11 0
BBX 11 8 0 1
BITMAP
FCC0
FDC0
1FC0
1F80
1F80
1F80
1DC0
1DE0
ENDCHAR
STARTCHAR 04A2
ENCODING 1186
SWIDTH 720 0
DWIDTH 12 0
BBX 11 14 1 -3
BITMAP
E380
E380
E380
E380
FF80
FF80
FF80
E380
E380
E3E0
E3E0
00C0
00C0
00C0
ENDCHAR
STARTCHAR 04A3
ENCODING 1187
SWIDTH 600 0
DWIDTH 10 0
BBX 9 11 1 -3
BITMAP
E700
E700
E700
FF00
FF00
E700
E780
E780
0380
0380
0380
ENDCHAR
STARTCHAR 04AA
ENCODING 1194
SWIDTH 600 0
DWIDTH 10 0
BBX 8 14 1 -3
BITMAP
1E
7F
7E
E0
E0
E0
E0
E0
F3
7F
3E
0C
0C
0C
ENDCHAR
STARTCHAR 04AB
ENCODING 1195
SWIDTH 480 0
DWIDTH 8 0
BBX 6 11 1 -2
BITMAP
3C
7C
E0
E0
C0
E0
FC
7C
38
38
38
ENDCHAR
STARTCHAR 04AE
ENCODING 1198
SWIDTH 540 0
DWIDTH 9 0
BBX 9 11 0 0
BITMAP
E380
E380
7700
7700
3600
3E00
1C00
1C00
1C00
1C00
1C00
ENDCHAR
STARTCHAR 04AF
ENCODING 1199
SWIDTH 540 0
DWIDTH 9 0
BBX 9 11 0 -2
BITMAP
E380
6300
7700
7700
3600
3600
1E00
1C00
1C00
1C00
1C00
ENDCHAR
STARTCHAR 04B0
ENCODING 1200
SWIDTH 540 0
DWIDTH 9 0
BBX 9 11 0 0
BITMAP
E380
6380
7700
7700
3600
3E00
7F00
1C00
1C00
1C00
1C00
ENDCHAR
STARTCHAR 04B1
ENCODING 1201
SWIDTH 540 0
DWIDTH 9 0
BBX 9 11 0 -3
BITMAP
E380
7300
7700
3700
3600
3E00
1E00
7F00
1C00
1C00
1C00
ENDCHAR
STARTCHAR 04B2
ENCODING 1202
SWIDTH 600 0
DWIDTH 10 0
BBX 10 14 0 -3
BITMAP
7380
7380
3B00
3F00
1E00
1E00
1E00
3F00
7700
73C0
E3C0
00C0
00C0
00C0
ENDCHAR
STARTCHAR 04B3
ENCODING 1203
SWIDTH 600 0
DWIDTH 10 0
BBX 8 11 1 -3
BITMAP
EE
EE
7C
3C
7C
7C
EF
CF
03
03
03
ENDCHAR
STARTCHAR 04B6
ENCODING 1206
SWIDTH 660 0
DWIDTH 11 0
BBX 10 14 1 -3
BITMAP
E380
E380
E380
E380
E380
7F80
3F80
0380
0380
03C0
03C0
01C0
01C0
01C0
ENDCHAR
STARTCHAR 04B7
ENCODING 1207
SWIDTH 600 0
DWIDTH 10 0
BBX 9 12 1 -3
BITMAP
E600
E600
E600
E600
FE00
7E00
0600
0780
0780
0380
0380
0380
ENDCHAR
STARTCHAR 04BA
ENCODING 1210
SWIDTH 660 0
DWIDTH 11 0
BBX 9 11 1 0
BITMAP
E000
E000
E000
E000
FE00
FF00
E380
E380
E380
E380
E380
ENDCHAR
STARTCHAR 04BB
ENCODING 1211
SWIDTH 600 0
DWIDTH 10 0
BBX 8 12 1 0
BITMAP
E0
E0
E0
FE
FE
FF
E7
E7
E7
E7
E7
E7
ENDCHAR
STARTCHAR 04C0
ENCODING 1216
SWIDTH 300 0
DWIDTH 5 0
BBX 3 11 1 0
BITMAP
E0
E0
E0
E0
E0
E0
E0
E0
E0
E0
E0
ENDCHAR
STARTCHAR 04C1
ENCODING 1217
SWIDTH 900 0
DWIDTH 15 0
BBX 15 14 0 0
BITMAP
0EE0
07C0
0000
E38E
F39C
73BC
3BB8
1FF0
1FF0
3BB8
3BB8
739C
739C
E38E
ENDCHAR
STARTCHAR 04C2
ENCODING 1218
SWIDTH 780 0
DWIDTH 13 0
BBX 12 12 1 1
BITMAP
1B80
1F00
0F00
0000
CE70
EEE0
FEE0
7FC0
7FC0
7EC0
EEE0
EE70
ENDCHAR
STARTCHAR 04CF
ENCODING 1231
SWIDTH 300 0
DWIDTH 5 0
BBX 4 12 1 0
BITMAP
E0
E0
E0
E0
E0
E0
E0
E0
E0
E0
F0
70
ENDCHAR
STARTCHAR 04D0
ENCODING 1232
SWIDTH 600 0
DWIDTH 10 0
BBX 10 14 0 0
BITMAP
3300
3E00
0000
1E00
1E00
3E00
3F00
3700
7300
7380
7F80
7F80
E380
E1C0
ENDCHAR
STARTCHAR 04D1
ENCODING 1233
SWIDTH 540 0
DWIDTH 9 0
BBX 7 13 1 0
BITMAP
6E
7C
3C
00
7C
FE
4E
3E
FE
EE
CE
FE
76
ENDCHAR
STARTCHAR 04D4
ENCODING 1236
SWIDTH 840 0
DWIDTH 14 0
BBX 13 11 0 0
BITMAP
0FF8
0FF8
1F80
1F80
1BF8
3BF8
3B80
7F80
7F80
E3F8
E3F8
ENDCHAR
STARTCHAR 04D5
ENCODING 1237
SWIDTH 780 0
DWIDTH 13 0
BBX 11 9 1 0
BITMAP
7BC0
FFE0
4E60
3FE0
FFE0
EE00
EF40
FFE0
73C0
ENDCHAR
STARTCHAR 04D6
ENCODING 1238
SWIDTH 540 0
DWIDTH 9 0
BBX 7 14 1 0
BITMAP
6E
7C
00
FE
FE
E0
E0
FE
FE
E0
E0
E0
FE
FE
ENDCHAR
STARTCHAR 04D7
ENCODING 1239
SWIDTH 540 0
DWIDTH 9 0
BBX 7 13 1 0
BITMAP
6C
7C
38
00
3C
FE
E6
FE
FE
C0
E4
7E
3C
ENDCHAR
STARTCHAR 04D8
ENCODING 1240
SWIDTH 660 0
DWIDTH 11 0
BBX 10 11 1 0
BITMAP
3E00
7F00
2780
0380
01C0
FFC0
FFC0
E180
F380
7F00
3E00
ENDCHAR
STARTCHAR 04D9
ENCODING 1241
SWIDTH 540 0
DWIDTH 9 0
BBX 7 9 1 0
BITMAP
78
FC
4E
0E
FE
FE
CE
FC
78
ENDCHAR
STARTCHAR 04E2
ENCODING 1250
SWIDTH 660 0
DWIDTH 11 0
BBX 9 14 1 0
BITMAP
3E00
3E00
0000
E380
E780
E780
EF80
ED80
ED80
FB80
FB80
F380
F380
E380
ENDCHAR
STARTCHAR 04E3
ENCODING 1251
SWIDTH 600 0
DWIDTH 10 0
BBX 8 12 1 0
BITMAP
7E
7E
00
E7
EF
EF
FF
FF
F7
F7
E7
E7
ENDCHAR
STARTCHAR 04E6
ENCODING 1254
SWIDTH 720 0
DWIDTH 12 0
BBX 10 15 1 0
BITMAP
2200
3700
3300
0000
3E00
7F00
F780
E3C0
E1C0
E1C0
E1C0
E3C0
F780
7F00
3E00
ENDCHAR
STARTCHAR 04E7
ENCODING 1255
SWIDTH 540 0
DWIDTH 9 0
BBX 8 13 1 0
BITMAP
44
EE
66
00
3C
FE
EE
E7
C7
E7
EE
FE
3C
ENDCHAR
STARTCHAR 04E8
ENCODING 1256
SWIDTH 720 0
DWIDTH 12 0
BBX 10 11 1 0
BITMAP
3E00
7F80
F380
E1C0
FFC0
FFC0
E1C0
E1C0
F380
7F00
3E00
ENDCHAR
STARTCHAR 04E9
ENCODING 1257
SWIDTH 540 0
DWIDTH 9 0
BBX 8 9 1 0
BITMAP
3C
FE
E7
FF
FF
C7
E6
7E
3C
ENDCHAR
STARTCHAR 04EE
ENCODING 1262
SWIDTH 600 0
DWIDTH 10 0
BBX 9 14 0 0
BITMAP
3F00
3F00
0000
E180
7380
7380
3300
3F00
1E00
1E00
1E00
3C00
3C00
7800
ENDCHAR
STARTCHAR 04EF
ENCODING 1263
SWIDTH 540 0
DWIDTH 9 0
BBX 9 16 0 -4
BITMAP
3E00
3E00
0000
E380
6300
7300
7700
3700
3600
3E00
1E00
1C00
1C00
1C00
7800
7000
ENDCHAR
STARTCHAR 04F2
ENCODING 1266
SWIDTH 600 0
DWIDTH 10 0
BBX 9 15 0 0
BITMAP
0980
1D80
1B00
0000
E180
7380
7380
3300
3F00
1E00
1E00
1E00
3C00
3C00
7800
ENDCHAR
STARTCHAR 04F3
ENCODING 1267
SWIDTH 540 0
DWIDTH 9 0
BBX 8 16 1 -4
BITMAP
37
36
66
00
00
C6
E6
EE
6C
7C
3C
38
38
38
F0
E0
ENDCHAR
STARTCHAR 1D43
ENCODING 7491
SWIDTH 360 0
DWIDTH 6 0
BBX 5 5 0 6
BITMAP
78
78
78
D8
78
ENDCHAR
STARTCHAR 1D47
ENCODING 7495
SWIDTH 420 0
DWIDTH 7 0
BBX 5 8 1 6
BITMAP
C0
C0
F0
F8
D8
D8
F8
B0
ENDCHAR
STARTCHAR 1D48
ENCODING 7496
SWIDTH 420 0
DWIDTH 7 0
BBX 6 8 0 6
BITMAP
0C
0C
7C
7C
CC
CC
6C
7C
ENDCHAR
STARTCHAR 1D49
ENCODING 7497
SWIDTH 360 0
DWIDTH 6 0
BBX 5 6 0 6
BITMAP
38
78
F8
C0
78
38
ENDCHAR
STARTCHAR 1D4D
ENCODING 7501
SWIDTH 360 0
DWIDTH 6 0
BBX 6 8 0 4
BITMAP
7C
D8
D8
78
40
7C
CC
78
ENDCHAR
STARTCHAR 1D4F
ENCODING 7503
SWIDTH 360 0
DWIDTH 6 0
BBX 5 8 1 6
BITMAP
C0
C0
D8
F0
E0
F0
D8
D8
ENDCHAR
STARTCHAR 1D50
ENCODING 7504
SWIDTH 600 0
DWIDTH 10 0
BBX 8 6 1 6
BITMAP
B7
FF
DB
DB
DB
DB
ENDCHAR
STARTCHAR 1D52
ENCODING 7506
SWIDTH 360 0
DWIDTH 6 0
BBX 6 6 0 6
BITMAP
38
7C
CC
CC
7C
38
ENDCHAR
STARTCHAR 1D56
ENCODING 7510
SWIDTH 420 0
DWIDTH 7 0
BBX 5 8 1 4
BITMAP
B0
F8
D8
D8
F8
F0
C0
C0
ENDCHAR
STARTCHAR 1D57
ENCODING 7511
SWIDTH 300 0
DWIDTH 5 0
BBX 4 7 0 6
BITMAP
60
F0
F0
60
60
70
30
ENDCHAR
STARTCHAR 1D58
ENCODING 7512
SWIDTH 360 0
DWIDTH 6 0
BBX 5 6 1 6
BITMAP
D8
D8
D8
D8
F8
F8
ENDCHAR
STARTCHAR 1D5B
ENCODING 7515
SWIDTH 360 0
DWIDTH 6 0
BBX 6 6 0 6
BITMAP
CC
CC
68
78
78
30
ENDCHAR
STARTCHAR 1D9C
ENCODING 7580
SWIDTH 300 0
DWIDTH 5 0
BBX 5 6 0 6
BITMAP
38
70
C0
C0
78
78
ENDCHAR
STARTCHAR 1DA0
ENCODING 7584
SWIDTH 240 0
DWIDTH 4 0
BBX 4 9 0 6
BITMAP
10
70
60
F0
F0
60
60
60
60
ENDCHAR
STARTCHAR 1DBB
ENCODING 7611
SWIDTH 300 0
DWIDTH 5 0
BBX 5 6 0 6
BITMAP
78
78
30
60
F8
F8
ENDCHAR
STARTCHAR 1E06
ENCODING 7686
SWIDTH 600 0
DWIDTH 10 0
BBX 9 14 1 -3
BITMAP
FE00
FF00
E700
E700
FE00
FF00
E380
E380
E780
FF00
FE00
0000
3E00
3E00
ENDCHAR
STARTCHAR 1E07
ENCODING 7687
SWIDTH 600 0
DWIDTH 10 0
BBX 8 15 1 -3
BITMAP
E0
E0
E0
FC
FE
E7
E7
E7
E7
EF
FE
DC
00
7E
7E
ENDCHAR
STARTCHAR 1E0C
ENCODING 7692
SWIDTH 660 0
DWIDTH 11 0
BBX 9 15 1 -4
BITMAP
FC00
FF00
E700
E380
E380
E380
E380
E380
E700
FF00
FC00
0000
1800
1C00
1800
ENDCHAR
STARTCHAR 1E0D
ENCODING 7693
SWIDTH 600 0
DWIDTH 10 0
BBX 8 16 1 -4
BITMAP
07
07
07
7F
FF
EF
E7
E7
E7
EF
FF
7F
00
18
1C
18
ENDCHAR
STARTCHAR 1E0E
ENCODING 7694
SWIDTH 660 0
DWIDTH 11 0
BBX 9 14 1 -3
BITMAP
FC00
FF00
E700
E380
E380
E380
E380
E380
E700
FF00
FC00
0000
3E00
3E00
ENDCHAR
STARTCHAR 1E0F
ENCODING 7695
SWIDTH 600 0
DWIDTH 10 0
BBX 8 15 1 -3
BITMAP
07
07
07
7F
FF
EF
E7
E7
E7
EF
FF
7F
00
3E
3E
ENDCHAR
STARTCHAR 1E16
ENCODING 7702
SWIDTH 540 0
DWIDTH 9 0
BBX 7 17 1 0
BITMAP
0C
3C
10
7C
7C
00
FE
FE
E0
E0
FE
FE
E0
E0
E0
FE
FE
ENDCHAR
STARTCHAR 1E17
ENCODING 7703
SWIDTH 540 0
DWIDTH 9 0
BBX 7 15 1 0
BITMAP
08
38
00
7C
7C
00
3C
FE
E6
FE
FE
C0
E4
7E
3C
ENDCHAR
STARTCHAR 1E20
ENCODING 7712
SWIDTH 660 0
DWIDTH 11 0
BBX 9 14 1 0
BITMAP
1F00
1F00
0000
1E00
7F80
7B00
E000
E000
E780
E780
E380
FB80
7F80
1F00
ENDCHAR
STARTCHAR 1E21
ENCODING 7713
SWIDTH 540 0
DWIDTH 9 0
BBX 8 16 1 -4
BITMAP
7C
7C
00
7F
FF
CE
CE
FC
78
C0
FE
7F
C7
C7
FE
78
ENDCHAR
STARTCHAR 1E24
ENCODING 7716
SWIDTH 660 0
DWIDTH 11 0
BBX 9 15 1 -4
BITMAP
E380
E380
E380
E380
FF80
FF80
FF80
E380
E380
E380
E380
0000
1C00
1C00
0C00
ENDCHAR
STARTCHAR 1E25
ENCODING 7717
SWIDTH 600 0
DWIDTH 10 0
BBX 8 16 1 -4
BITMAP
E0
E0
E0
FE
FE
FF
E7
E7
E7
E7
E7
E7
00
18
38
18
ENDCHAR
STARTCHAR 1E2A
ENCODING 7722
SWIDTH 660 0
DWIDTH 11 0
BBX 9 15 1 -4
BITMAP
E380
E380
E380
E380
FF80
FF80
FF80
E380
E380
E380
E380
0000
2300
3E00
1E00
ENDCHAR
STARTCHAR 1E2B
ENCODING 7723
SWIDTH 600 0
DWIDTH 10 0
BBX 8 16 1 -4
BITMAP
E0
E0
E0
FE
FE
FF
E7
E7
E7
E7
E7
E7
00
66
7E
3C
ENDCHAR
STARTCHAR 1E32
ENCODING 7730
SWIDTH 600 0
DWIDTH 10 0
BBX 9 15 1 -4
BITMAP
E380
E700
EE00
EC00
FC00
FC00
FE00
F700
E700
E380
E380
0000
1C00
1C00
1C00
ENDCHAR
STARTCHAR 1E33
ENCODING 7731
SWIDTH 540 0
DWIDTH 9 0
BBX 8 16 1 -4
BITMAP
E0
E0
E0
E7
EE
FC
F8
FC
FC
EE
E7
E7
00
18
1C
18
ENDCHAR
STARTCHAR 1E34
ENCODING 7732
SWIDTH 600 0
DWIDTH 10 0
BBX 9 14 1 -3
BITMAP
E380
E700
EE00
EC00
FC00
FC00
FE00
F700
E700
E380
E380
0000
3E00
3E00
ENDCHAR
STARTCHAR 1E35
ENCODING 7733
SWIDTH 540 0
DWIDTH 9 0
BBX 8 15 1 -3
BITMAP
E0
E0
E0
E7
EE
FC
F8
FC
FC
EE
E7
E7
00
7E
7E
ENDCHAR
STARTCHAR 1E36
ENCODING 7734
SWIDTH 540 0
DWIDTH 9 0
BBX 7 15 1 -4
BITMAP
E0
E0
E0
E0
E0
E0
E0
E0
E0
FE
FE
00
18
38
18
ENDCHAR
STARTCHAR 1E37
ENCODING 7735
SWIDTH 300 0
DWIDTH 5 0
BBX 4 16 1 -4
BITMAP
E0
E0
E0
E0
E0
E0
E0
E0
E0
E0
F0
70
00
60
70
60
ENDCHAR
STARTCHAR 1E38
ENCODING 7736
SWIDTH 540 0
DWIDTH 9 0
BBX 8 18 0 -4
BITMAP
F8
F8
00
70
70
70
70
70
70
70
70
70
7F
7F
00
0C
1C
0C
ENDCHAR
STARTCHAR 1E39
ENCODING 7737
SWIDTH 300 0
DWIDTH 5 0
BBX 5 20 0 -4
BITMAP
F8
F8
00
00
70
70
70
70
70
70
70
70
70
70
78
38
00
30
38
30
ENDCHAR
STARTCHAR 1E3A
ENCODING 7738
SWIDTH 540 0
DWIDTH 9 0
BBX 7 14 1 -3
BITMAP
E0
E0
E0
E0
E0
E0
E0
E0
E0
FE
FE
00
7C
7C
ENDCHAR
STARTCHAR 1E3B
ENCODING 7739
SWIDTH 300 0
DWIDTH 5 0
BBX 5 15 1 -3
BITMAP
E0
E0
E0
E0
E0
E0
E0
E0
E0
E0
F0
70
00
F8
F8
ENDCHAR
STARTCHAR 1E3E
ENCODING 7742
SWIDTH 780 0
DWIDTH 13 0
BBX 11 15 1 0
BITMAP
0300
0780
0E00
0400
E1E0
F1E0
F1E0
FBE0
DBE0
FBE0
FFE0
EEE0
EEE0
ECE0
E0E0
ENDCHAR
STARTCHAR 1E3F
ENCODING 7743
SWIDTH 840 0
DWIDTH 14 0
BBX 13 14 1 1
BITMAP
0180
03C0
0700
0200
0000
DEF0
FFF0
FFF0
E738
E738
E738
E738
E738
E738
ENDCHAR
STARTCHAR 1E40
ENCODING 7744
SWIDTH 780 0
DWIDTH 13 0
BBX 11 15 1 0
BITMAP
0E00
0E00
0E00
0000
E1E0
F1E0
F1E0
FBE0
DBE0
FBE0
FFE0
EEE0
EEE0
ECE0
E0E0
ENDCHAR
STARTCHAR 1E41
ENCODING 7745
SWIDTH 840 0
DWIDTH 14 0
BBX 13 13 1 0
BITMAP
0600
0700
0700
0000
DEF0
FFF0
FFF0
E738
E738
E738
E738
E738
E738
ENDCHAR
STARTCHAR 1E42
ENCODING 7746
SWIDTH 780 0
DWIDTH 13 0
BBX 11 15 1 -4
BITMAP
E1E0
F1E0
F1E0
FBE0
DBE0
FBE0
FFE0
EEE0
EEE0
ECE0
E0E0
0000
0E00
0E00
0E00
ENDCHAR
STARTCHAR 1E43
ENCODING 7747
SWIDTH 840 0
DWIDTH 14 0
BBX 13 13 1 -4
BITMAP
DEF0
FFF0
FFF0
E738
E738
E738
E738
E738
E738
0000
0700
0700
0600
ENDCHAR
STARTCHAR 1E44
ENCODING 7748
SWIDTH 660 0
DWIDTH 11 0
BBX 9 15 1 0
BITMAP
1C00
1C00
1C00
0000
E380
F380
F380
FB80
FB80
FF80
ED80
EF80
E780
E780
E380
ENDCHAR
STARTCHAR 1E45
ENCODING 7749
SWIDTH 600 0
DWIDTH 10 0
BBX 8 13 1 0
BITMAP
18
1C
18
00
DE
FE
FF
E7
E7
E7
E7
E7
E7
ENDCHAR
STARTCHAR 1E46
ENCODING 7750
SWIDTH 660 0
DWIDTH 11 0
BBX 9 15 1 -4
BITMAP
E380
F380
F380
FB80
FB80
FF80
ED80
EF80
E780
E780
E380
0000
0C00
1C00
0C00
ENDCHAR
STARTCHAR 1E47
ENCODING 7751
SWIDTH 600 0
DWIDTH 10 0
BBX 8 13 1 -4
BITMAP
DE
FE
FF
E7
E7
E7
E7
E7
E7
00
18
38
18
ENDCHAR
STARTCHAR 1E48
ENCODING 7752
SWIDTH 660 0
DWIDTH 11 0
BBX 9 14 1 -3
BITMAP
E380
F380
F380
FB80
FB80
FF80
ED80
EF80
E780
E780
E380
0000
3E00
3E00
ENDCHAR
STARTCHAR 1E49
ENCODING 7753
SWIDTH 600 0
DWIDTH 10 0
BBX 8 12 1 -3
BITMAP
DE
FE
FF
E7
E7
E7
E7
E7
E7
00
7E
7E
ENDCHAR
STARTCHAR 1E52
ENCODING 7762
SWIDTH 720 0
DWIDTH 12 0
BBX 10 17 1 0
BITMAP
0400
0E00
0800
3E00
3E00
0000
3E00
7F00
F780
E3C0
E1C0
E1C0
E1C0
E3C0
F780
7F00
3E00
ENDCHAR
STARTCHAR 1E53
ENCODING 7763
SWIDTH 540 0
DWIDTH 9 0
BBX 8 15 1 0
BITMAP
08
38
10
7C
7C
00
3C
FE
EE
E7
C7
E7
EE
FE
3C
ENDCHAR
STARTCHAR 1E58
ENCODING 7768
SWIDTH 660 0
DWIDTH 11 0
BBX 9 15 1 0
BITMAP
1800
1C00
1C00
0000
FE00
FF00
E780
E380
E380
FF00
FE00
EE00
E700
E700
E380
ENDCHAR
STARTCHAR 1E59
ENCODING 7769
SWIDTH 420 0
DWIDTH 7 0
BBX 6 13 1 0
BITMAP
30
38
30
00
CC
DC
FC
E0
E0
E0
E0
E0
E0
ENDCHAR
STARTCHAR 1E5A
ENCODING 7770
SWIDTH 660 0
DWIDTH 11 0
BBX 9 15 1 -4
BITMAP
FE00
FF00
E780
E380
E380
FF00
FE00
EE00
E700
E700
E380
0000
1C00
1C00
1C00
ENDCHAR
STARTCHAR 1E5B
ENCODING 7771
SWIDTH 420 0
DWIDTH 7 0
BBX 6 13 1 -4
BITMAP
CC
DC
FC
E0
E0
E0
E0
E0
E0
00
E0
E0
C0
ENDCHAR
STARTCHAR 1E5C
ENCODING 7772
SWIDTH 660 0
DWIDTH 11 0
BBX 9 18 1 -4
BITMAP
3E00
3E00
0000
FE00
FF00
E780
E380
E380
FF00
FE00
EE00
E700
E700
E380
0000
1C00
1C00
1C00
ENDCHAR
STARTCHAR 1E5D
ENCODING 7773
SWIDTH 420 0
DWIDTH 7 0
BBX 6 16 1 -4
BITMAP
7C
7C
00
CC
DC
FC
E0
E0
E0
E0
E0
E0
00
E0
E0
C0
ENDCHAR
STARTCHAR 1E5E
ENCODING 7774
SWIDTH 660 0
DWIDTH 11 0
BBX 9 14 1 -3
BITMAP
FE00
FF00
E780
E380
E380
FF00
FE00
EE00
E700
E700
E380
0000
3E00
3E00
ENDCHAR
STARTCHAR 1E5F
ENCODING 7775
SWIDTH 420 0
DWIDTH 7 0
BBX 7 12 0 -3
BITMAP
66
6E
7E
70
70
70
70
70
70
00
F8
F8
ENDCHAR
STARTCHAR 1E60
ENCODING 7776
SWIDTH 540 0
DWIDTH 9 0
BBX 8 15 1 0
BITMAP
18
3C
18
00
3C
7F
FE
E0
F8
7E
1F
07
EF
FE
7C
ENDCHAR
STARTCHAR 1E61
ENCODING 7777
SWIDTH 480 0
DWIDTH 8 0
BBX 6 13 1 0
BITMAP
30
38
30
00
78
FC
C8
F0
F8
3C
9C
FC
F8
ENDCHAR
STARTCHAR 1E62
ENCODING 7778
SWIDTH 540 0
DWIDTH 9 0
BBX 8 15 1 -4
BITMAP
3C
7F
FE
E0
F8
7E
1F
07
EF
FE
7C
00
18
38
18
ENDCHAR
STARTCHAR 1E63
ENCODING 7779
SWIDTH 480 0
DWIDTH 8 0
BBX 6 13 1 -4
BITMAP
78
FC
C8
F0
F8
3C
9C
FC
F8
00
30
70
30
ENDCHAR
STARTCHAR 1E6C
ENCODING 7788
SWIDTH 540 0
DWIDTH 9 0
BBX 9 15 0 -4
BITMAP
FF80
FF80
1C00
1C00
1C00
1C00
1C00
1C00
1C00
1C00
1C00
0000
0C00
1C00
0C00
ENDCHAR
STARTCHAR 1E6D
ENCODING 7789
SWIDTH 420 0
DWIDTH 7 0
BBX 6 15 0 -4
BITMAP
30
30
FC
FC
70
70
70
70
78
3C
1C
00
18
1C
18
ENDCHAR
STARTCHAR 1E6E
ENCODING 7790
SWIDTH 540 0
DWIDTH 9 0
BBX 9 14 0 -3
BITMAP
FF80
FF80
1C00
1C00
1C00
1C00
1C00
1C00
1C00
1C00
1C00
0000
3E00
3E00
ENDCHAR
STARTCHAR 1E6F
ENCODING 7791
SWIDTH 420 0
DWIDTH 7 0
BBX 7 14 0 -3
BITMAP
30
30
FC
FC
70
70
70
70
78
3C
1C
00
7E
7E
ENDCHAR
STARTCHAR 1E80
ENCODING 7808
SWIDTH 840 0
DWIDTH 14 0
BBX 13 15 0 0
BITMAP
0400
0E00
0700
0000
E318
E718
6798
77B8
77B8
77B8
7DB8
7DF0
3CF0
3CF0
3CF0
ENDCHAR
STARTCHAR 1E81
ENCODING 7809
SWIDTH 780 0
DWIDTH 13 0
BBX 12 14 1 1
BITMAP
1800
1C00
0E00
0400
0000
CE70
CE70
EE60
EF60
EB60
7BE0
7BE0
7BC0
79C0
ENDCHAR
STARTCHAR 1E82
ENCODING 7810
SWIDTH 840 0
DWIDTH 14 0
BBX 13 15 0 0
BITMAP
0080
03C0
0380
0000
E318
E718
6798
77B8
77B8
77B8
7DB8
7DF0
3CF0
3CF0
3CF0
ENDCHAR
STARTCHAR 1E83
ENCODING 7811
SWIDTH 780 0
DWIDTH 13 0
BBX 12 14 1 1
BITMAP
0300
0780
0700
0000
0000
CE70
CE70
EE60
EF60
EB60
7BE0
7BE0
7BC0
79C0
ENDCHAR
STARTCHAR 1E84
ENCODING 7812
SWIDTH 840 0
DWIDTH 14 0
BBX 13 15 0 0
BITMAP
0880
0DC0
0CC0
0000
E318
E718
6798
77B8
77B8
77B8
7DB8
7DF0
3CF0
3CF0
3CF0
ENDCHAR
STARTCHAR 1E85
ENCODING 7813
SWIDTH 780 0
DWIDTH 13 0
BBX 12 13 1 0
BITMAP
1100
3B80
1980
0000
CE70
CE70
EE60
EF60
EB60
7BE0
7BE0
7BC0
79C0
ENDCHAR
STARTCHAR 1E8E
ENCODING 7822
SWIDTH 540 0
DWIDTH 9 0
BBX 9 15 0 0
BITMAP
1C00
1C00
1C00
0000
E380
6380
7700
7700
3600
3E00
1C00
1C00
1C00
1C00
1C00
ENDCHAR
STARTCHAR 1E8F
ENCODING 7823
SWIDTH 540 0
DWIDTH 9 0
BBX 9 17 0 -4
BITMAP
0C00
1C00
1C00
0000
E380
6300
7300
7700
3700
3600
3E00
1E00
1C00
1C00
1C00
7800
7000
ENDCHAR
STARTCHAR 1E92
ENCODING 7826
SWIDTH 540 0
DWIDTH 9 0
BBX 8 15 1 -4
BITMAP
FF
FF
0E
1C
1C
38
70
70
E0
FF
FF
00
18
38
18
ENDCHAR
STARTCHAR 1E93
ENCODING 7827
SWIDTH 480 0
DWIDTH 8 0
BBX 7 13 1 -4
BITMAP
FC
FC
1C
38
78
70
E0
FE
FE
00
30
38
30
ENDCHAR
STARTCHAR 1E94
ENCODING 7828
SWIDTH 540 0
DWIDTH 9 0
BBX 8 14 1 -3
BITMAP
FF
FF
0E
1C
1C
38
70
70
E0
FF
FF
00
7C
7C
ENDCHAR
STARTCHAR 1E95
ENCODING 7829
SWIDTH 480 0
DWIDTH 8 0
BBX 7 12 1 -3
BITMAP
FC
FC
1C
38
78
70
E0
FE
FE
00
7C
7C
ENDCHAR
STARTCHAR 1E96
ENCODING 7830
SWIDTH 600 0
DWIDTH 10 0
BBX 8 15 1 -3
BITMAP
E0
E0
E0
FE
FE
FF
E7
E7
E7
E7
E7
E7
00
7E
7E
ENDCHAR
STARTCHAR 1E97
ENCODING 7831
SWIDTH 420 0
DWIDTH 7 0
BBX 6 15 0 0
BITMAP
CC
CC
CC
00
30
30
FC
FC
70
70
70
70
78
3C
1C
ENDCHAR
STARTCHAR 1E9E
ENCODING 7838
SWIDTH 720 0
DWIDTH 12 0
BBX 10 11 1 0
BITMAP
3E00
7F80
7380
E380
E700
E780
E7C0
E1C0
E5C0
EFC0
E780
ENDCHAR
STARTCHAR 1EA0
ENCODING 7840
SWIDTH 600 0
DWIDTH 10 0
BBX 10 15 0 -4
BITMAP
1E00
1E00
3E00
3F00
3700
7300
7380
7F80
7F80
E380
E1C0
0000
0C00
1C00
0C00
ENDCHAR
STARTCHAR 1EA1
ENCODING 7841
SWIDTH 540 0
DWIDTH 9 0
BBX 7 13 1 -4
BITMAP
7C
FE
4E
3E
FE
EE
CE
FE
76
00
38
38
30
ENDCHAR
STARTCHAR 1EA2
ENCODING 7842
SWIDTH 600 0
DWIDTH 10 0
BBX 10 15 0 0
BITMAP
1C00
0C00
0C00
0000
1E00
1E00
3E00
3F00
3700
3300
7300
7F80
7F80
E380
E1C0
ENDCHAR
STARTCHAR 1EA3
ENCODING 7843
SWIDTH 540 0
DWIDTH 9 0
BBX 7 14 1 0
BITMAP
30
38
18
18
00
7C
FE
4E
3E
FE
EE
CE
FE
76
ENDCHAR
STARTCHAR 1EA4
ENCODING 7844
SWIDTH 600 0
DWIDTH 10 0
BBX 10 15 0 0
BITMAP
0080
1D80
3600
0000
1E00
1E00
3E00
3F00
3700
7300
7380
7F80
7F80
E380
E1C0
ENDCHAR
STARTCHAR 1EA5
ENCODING 7845
SWIDTH 540 0
DWIDTH 9 0
BBX 8 14 1 0
BITMAP
01
1B
3E
6C
00
7C
FE
4E
3E
FE
EE
CE
FE
76
ENDCHAR
STARTCHAR 1EA6
ENCODING 7846
SWIDTH 600 0
DWIDTH 10 0
BBX 10 15 0 0
BITMAP
4000
7C00
3600
0000
1E00
1E00
3E00
3F00
3700
7300
7380
7F80
7F80
E380
E1C0
ENDCHAR
STARTCHAR 1EA7
ENCODING 7847
SWIDTH 540 0
DWIDTH 9 0
BBX 8 14 0 0
BITMAP
C0
CC
5E
36
00
3E
7F
27
1F
7F
77
67
7F
3B
ENDCHAR
STARTCHAR 1EA8
ENCODING 7848
SWIDTH 600 0
DWIDTH 10 0
BBX 10 16 0 0
BITMAP
0180
0180
1D80
3600
0000
1E00
1E00
3E00
3F00
3700
3300
7300
7F80
7F80
E380
E1C0
ENDCHAR
STARTCHAR 1EA9
ENCODING 7849
SWIDTH 540 0
DWIDTH 9 0
BBX 8 15 1 0
BITMAP
07
03
1B
3E
6C
00
7C
FE
4E
3E
FE
EE
CE
FE
76
ENDCHAR
STARTCHAR 1EAA
ENCODING 7850
SWIDTH 600 0
DWIDTH 10 0
BBX 10 17 0 0
BITMAP
1200
3E00
1400
1C00
3600
0000
1E00
1E00
3E00
3F00
3700
7300
7380
7F80
7F80
E380
E1C0
ENDCHAR
STARTCHAR 1EAB
ENCODING 7851
SWIDTH 540 0
DWIDTH 9 0
BBX 7 15 1 0
BITMAP
24
7C
48
38
7C
00
7C
FE
4E
3E
FE
EE
CE
FE
76
ENDCHAR
STARTCHAR 1EAC
ENCODING 7852
SWIDTH 600 0
DWIDTH 10 0
BBX 10 18 0 -4
BITMAP
1E00
3700
0200
1E00
1E00
3E00
3F00
3700
7300
7380
7F80
7F80
E380
E1C0
0000
0C00
1C00
0C00
ENDCHAR
STARTCHAR 1EAD
ENCODING 7853
SWIDTH 540 0
DWIDTH 9 0
BBX 7 17 1 -4
BITMAP
3C
7C
66
00
7C
FE
4E
3E
FE
EE
CE
FE
76
00
38
38
30
ENDCHAR
STARTCHAR 1EAE
ENCODING 7854
SWIDTH 600 0
DWIDTH 10 0
BBX 10 17 0 0
BITMAP
0400
0600
0C00
3300
3E00
0000
1E00
1E00
3E00
3F00
3700
7300
7380
7F80
7F80
E380
E1C0
ENDCHAR
STARTCHAR 1EAF
ENCODING 7855
SWIDTH 540 0
DWIDTH 9 0
BBX 7 15 1 1
BITMAP
0C
18
46
7C
3C
00
7C
FE
4E
3E
FE
EE
CE
FE
76
ENDCHAR
STARTCHAR 1EB0
ENCODING 7856
SWIDTH 600 0
DWIDTH 10 0
BBX 10 16 0 1
BITMAP
1800
1C00
3B00
3E00
0000
1E00
1E00
3E00
3F00
3700
7300
7380
7F80
7F80
E380
E1C0
ENDCHAR
STARTCHAR 1EB1
ENCODING 7857
SWIDTH 540 0
DWIDTH 9 0
BBX 7 15 1 1
BITMAP
30
30
56
7C
3C
00
7C
FE
4E
3E
FE
EE
CE
FE
76
ENDCHAR
STARTCHAR 1EB2
ENCODING 7858
SWIDTH 600 0
DWIDTH 10 0
BBX 10 16 0 0
BITMAP
0C00
0C00
3B00
3E00
0000
1E00
1E00
3E00
3F00
3700
3300
7300
7F80
7F80
E380
E1C0
ENDCHAR
STARTCHAR 1EB3
ENCODING 7859
SWIDTH 540 0
DWIDTH 9 0
BBX 7 15 1 1
BITMAP
38
18
56
7C
3C
00
7C
FE
4E
3E
FE
EE
CE
FE
76
ENDCHAR
STARTCHAR 1EB4
ENCODING 7860
SWIDTH 600 0
DWIDTH 10 0
BBX 10 17 0 0
BITMAP
1200
3E00
1400
3200
1E00
0000
1E00
1E00
3E00
3F00
3700
7300
7380
7F80
7F80
E380
E1C0
ENDCHAR
STARTCHAR 1EB5
ENCODING 7861
SWIDTH 540 0
DWIDTH 9 0
BBX 7 15 1 0
BITMAP
24
7C
48
64
7C
00
7C
FE
4E
3E
FE
EE
CE
FE
76
ENDCHAR
STARTCHAR 1EB6
ENCODING 7862
SWIDTH 600 0
DWIDTH 10 0
BBX 10 19 0 -4
BITMAP
1200
3E00
1E00
0000
1E00
1E00
3E00
3F00
3700
7300
7380
7F80
7F80
E380
E1C0
0000
0C00
1C00
0C00
ENDCHAR
STARTCHAR 1EB7
ENCODING 7863
SWIDTH 540 0
DWIDTH 9 0
BBX 7 17 1 -4
BITMAP
46
7C
3C
00
7C
FE
4E
3E
FE
EE
CE
FE
76
00
38
38
30
ENDCHAR
STARTCHAR 1EB8
ENCODING 7864
SWIDTH 540 0
DWIDTH 9 0
BBX 7 15 1 -4
BITMAP
FE
FE
E0
E0
FE
FE
E0
E0
E0
FE
FE
00
18
38
18
ENDCHAR
STARTCHAR 1EB9
ENCODING 7865
SWIDTH 540 0
DWIDTH 9 0
BBX 7 13 1 -4
BITMAP
3C
FE
E6
FE
FE
C0
E4
7E
3C
00
38
38
38
ENDCHAR
STARTCHAR 1EBA
ENCODING 7866
SWIDTH 540 0
DWIDTH 9 0
BBX 7 15 1 0
BITMAP
38
1C
18
00
FE
FE
E0
E0
FE
FE
E0
E0
E0
FE
FE
ENDCHAR
STARTCHAR 1EBB
ENCODING 7867
SWIDTH 540 0
DWIDTH 9 0
BBX 7 14 1 0
BITMAP
30
38
18
18
00
3C
FE
E6
FE
FE
C0
E4
7E
3C
ENDCHAR
STARTCHAR 1EBC
ENCODING 7868
SWIDTH 540 0
DWIDTH 9 0
BBX 7 15 1 0
BITMAP
06
7E
7C
00
FE
FE
E0
E0
FE
FE
E0
E0
E0
FE
FE
ENDCHAR
STARTCHAR 1EBD
ENCODING 7869
SWIDTH 540 0
DWIDTH 9 0
BBX 7 13 1 0
BITMAP
76
FE
DC
00
3C
FE
E6
FE
FE
C0
E4
7E
3C
ENDCHAR
STARTCHAR 1EBE
ENCODING 7870
SWIDTH 540 0
DWIDTH 9 0
BBX 8 15 1 0
BITMAP
01
3B
7C
00
FE
FE
E0
E0
FE
FE
E0
E0
E0
FE
FE
ENDCHAR
STARTCHAR 1EBF
ENCODING 7871
SWIDTH 540 0
DWIDTH 9 0
BBX 8 14 1 0
BITMAP
01
3B
7E
6C
00
3C
FE
E6
FE
FE
C0
E4
7E
3C
ENDCHAR
STARTCHAR 1EC0
ENCODING 7872
SWIDTH 540 0
DWIDTH 9 0
BBX 7 15 1 0
BITMAP
80
F8
7C
00
FE
FE
E0
E0
FE
FE
E0
E0
E0
FE
FE
ENDCHAR
STARTCHAR 1EC1
ENCODING 7873
SWIDTH 540 0
DWIDTH 9 0
BBX 8 14 0 0
BITMAP
C0
DC
7E
36
00
1E
7F
73
7F
7F
60
72
3F
1E
ENDCHAR
STARTCHAR 1EC2
ENCODING 7874
SWIDTH 540 0
DWIDTH 9 0
BBX 8 16 1 0
BITMAP
03
03
3B
7C
00
FE
FE
E0
E0
FE
FE
E0
E0
E0
FE
FE
ENDCHAR
STARTCHAR 1EC3
ENCODING 7875
SWIDTH 540 0
DWIDTH 9 0
BBX 8 15 1 0
BITMAP
07
03
3B
7E
6C
00
3C
FE
E6
FE
FE
C0
E4
7E
3C
ENDCHAR
STARTCHAR 1EC4
ENCODING 7876
SWIDTH 540 0
DWIDTH 9 0
BBX 7 17 1 0
BITMAP
04
7C
28
3C
7C
00
FE
FE
E0
E0
FE
FE
E0
E0
E0
FE
FE
ENDCHAR
STARTCHAR 1EC5
ENCODING 7877
SWIDTH 540 0
DWIDTH 9 0
BBX 7 15 1 0
BITMAP
24
7C
48
38
7C
00
3C
FE
E6
FE
FE
C0
E4
7E
3C
ENDCHAR
STARTCHAR 1EC6
ENCODING 7878
SWIDTH 540 0
DWIDTH 9 0
BBX 7 18 1 -4
BITMAP
3C
6E
00
FE
FE
E0
E0
FE
FE
E0
E0
E0
FE
FE
00
18
38
18
ENDCHAR
STARTCHAR 1EC7
ENCODING 7879
SWIDTH 540 0
DWIDTH 9 0
BBX 7 17 1 -4
BITMAP
38
7C
44
00
3C
FE
E6
FE
FE
C0
E4
7E
3C
00
38
38
38
ENDCHAR
STARTCHAR 1EC8
ENCODING 7880
SWIDTH 300 0
DWIDTH 5 0
BBX 3 15 1 0
BITMAP
E0
60
60
00
E0
E0
E0
E0
E0
E0
E0
E0
E0
E0
E0
ENDCHAR
STARTCHAR 1EC9
ENCODING 7881
SWIDTH 300 0
DWIDTH 5 0
BBX 3 14 1 0
BITMAP
C0
E0
60
E0
00
E0
E0
E0
E0
E0
E0
E0
E0
E0
ENDCHAR
STARTCHAR 1ECA
ENCODING 7882
SWIDTH 300 0
DWIDTH 5 0
BBX 3 15 1 -4
BITMAP
E0
E0
E0
E0
E0
E0
E0
E0
E0
E0
E0
00
E0
E0
60
ENDCHAR
STARTCHAR 1ECB
ENCODING 7883
SWIDTH 300 0
DWIDTH 5 0
BBX 3 17 1 -4
BITMAP
C0
E0
E0
00
E0
E0
E0
E0
E0
E0
E0
E0
E0
00
E0
E0
C0
ENDCHAR
STARTCHAR 1ECC
ENCODING 7884
SWIDTH 720 0
DWIDTH 12 0
BBX 10 15 1 -4
BITMAP
3E00
7F00
F780
E3C0
E1C0
E1C0
E1C0
E3C0
F780
7F00
3E00
0000
0C00
1C00
0C00
ENDCHAR
STARTCHAR 1ECD
ENCODING 7885
SWIDTH 540 0
DWIDTH 9 0
BBX 8 13 1 -4
BITMAP
3C
FE
EE
E7
C7
E7
EE
FE
3C
00
38
38
18
ENDCHAR
STARTCHAR 1ECE
ENCODING 7886
SWIDTH 720 0
DWIDTH 12 0
BBX 10 15 1 0
BITMAP
1C00
0C00
0C00
0000
3E00
7F00
F780
E3C0
E1C0
E1C0
E1C0
E3C0
F780
7F00
3E00
ENDCHAR
STARTCHAR 1ECF
ENCODING 7887
SWIDTH 540 0
DWIDTH 9 0
BBX 8 14 1 0
BITMAP
30
38
18
18
00
3C
FE
EE
E7
C7
E7
EE
FE
3C
ENDCHAR
STARTCHAR 1ED0
ENCODING 7888
SWIDTH 720 0
DWIDTH 12 0
BBX 10 15 1 0
BITMAP
0080
1D00
3600
0200
3E00
7F00
F780
E3C0
E1C0
E1C0
E1C0
E3C0
F780
7F00
3E00
ENDCHAR
STARTCHAR 1ED1
ENCODING 7889
SWIDTH 540 0
DWIDTH 9 0
BBX 8 14 1 0
BITMAP
01
1B
3E
6C
00
3C
FE
EE
E7
C7
E7
EE
FE
3C
ENDCHAR
STARTCHAR 1ED2
ENCODING 7890
SWIDTH 720 0
DWIDTH 12 0
BBX 10 15 1 0
BITMAP
4000
7C00
3600
0200
3E00
7F00
F780
E3C0
E1C0
E1C0
E1C0
E3C0
F780
7F00
3E00
ENDCHAR
STARTCHAR 1ED3
ENCODING 7891
SWIDTH 540 0
DWIDTH 9 0
BBX 9 14 0 0
BITMAP
C000
CC00
5E00
3600
0000
1E00
7F00
7700
7380
6380
7380
7700
7F00
1E00
ENDCHAR
STARTCHAR 1ED4
ENCODING 7892
SWIDTH 720 0
DWIDTH 12 0
BBX 10 16 1 0
BITMAP
0180
0180
1D80
3600
0200
3E00
7F00
F780
E3C0
E1C0
E1C0
E1C0
E3C0
F780
7F00
3E00
ENDCHAR
STARTCHAR 1ED5
ENCODING 7893
SWIDTH 540 0
DWIDTH 9 0
BBX 8 15 1 0
BITMAP
07
03
1B
3E
6C
00
3C
FE
EE
E7
C7
E7
EE
FE
3C
ENDCHAR
STARTCHAR 1ED6
ENCODING 7894
SWIDTH 720 0
DWIDTH 12 0
BBX 10 16 1 0
BITMAP
1E00
3E00
0000
1E00
1200
3E00
7F00
F780
E3C0
E1C0
E1C0
E1C0
E3C0
F780
7F00
3E00
ENDCHAR
STARTCHAR 1ED7
ENCODING 7895
SWIDTH 540 0
DWIDTH 9 0
BBX 8 15 1 0
BITMAP
24
7C
48
38
7C
00
3C
FE
EE
E7
C7
E7
EE
FE
3C
ENDCHAR
STARTCHAR 1ED8
ENCODING 7896
SWIDTH 720 0
DWIDTH 12 0
BBX 10 18 1 -4
BITMAP
1E00
3600
0200
3E00
7F00
F780
E3C0
E1C0
E1C0
E1C0
E3C0
F780
7F00
3E00
0000
0C00
1C00
0C00
ENDCHAR
STARTCHAR 1ED9
ENCODING 7897
SWIDTH 540 0
DWIDTH 9 0
BBX 8 17 1 -4
BITMAP
3C
7C
66
00
3C
FE
EE
E7
C7
E7
EE
FE
3C
00
38
38
18
ENDCHAR
STARTCHAR 1EDA
ENCODING 7898
SWIDTH 720 0
DWIDTH 12 0
BBX 10 15 1 0
BITMAP
0200
0F00
1EC0
08C0
3FC0
7F00
F780
E3C0
E1C0
E1C0
E1C0
E3C0
F780
7F00
3E00
ENDCHAR
STARTCHAR 1EDB
ENCODING 7899
SWIDTH 540 0
DWIDTH 9 0
BBX 9 14 1 1
BITMAP
0C00
0E00
1D00
1B80
0380
3F00
FE00
EE00
E700
C700
E700
EE00
FE00
3C00
ENDCHAR
STARTCHAR 1EDC
ENCODING 7900
SWIDTH 720 0
DWIDTH 12 0
BBX 10 15 1 0
BITMAP
1000
3800
1CC0
08C0
3FC0
7F00
F780
E3C0
E1C0
E1C0
E1C0
E3C0
F780
7F00
3E00
ENDCHAR
STARTCHAR 1EDD
ENCODING 7901
SWIDTH 540 0
DWIDTH 9 0
BBX 9 14 1 1
BITMAP
6000
F000
3900
1380
0380
3F00
FE00
EE00
E700
C700
E700
EE00
FE00
3C00
ENDCHAR
STARTCHAR 1EDE
ENCODING 7902
SWIDTH 720 0
DWIDTH 12 0
BBX 10 15 1 0
BITMAP
1C00
0C40
0CC0
00C0
3FC0
7F00
F780
E3C0
E1C0
E1C0
E1C0
E3C0
F780
7F00
3E00
ENDCHAR
STARTCHAR 1EDF
ENCODING 7903
SWIDTH 540 0
DWIDTH 9 0
BBX 9 14 1 0
BITMAP
3000
3800
1900
1B80
0380
3F00
FE00
EE00
E700
C700
E700
EE00
FE00
3C00
ENDCHAR
STARTCHAR 1EE0
ENCODING 7904
SWIDTH 720 0
DWIDTH 12 0
BBX 10 15 1 0
BITMAP
0300
3F00
7EC0
20C0
3FC0
7F00
F780
E3C0
E1C0
E1C0
E1C0
E3C0
F780
7F00
3E00
ENDCHAR
STARTCHAR 1EE1
ENCODING 7905
SWIDTH 540 0
DWIDTH 9 0
BBX 9 13 1 0
BITMAP
6C00
FD00
DF80
0380
3F00
FE00
EE00
E700
C700
E700
EE00
FE00
3C00
ENDCHAR
STARTCHAR 1EE2
ENCODING 7906
SWIDTH 720 0
DWIDTH 12 0
BBX 10 17 1 -3
BITMAP
00C0
00C0
3FC0
7F00
F780
E3C0
E1C0
E1C0
E1C0
E3C0
F780
7F00
3E00
0000
0C00
1C00
0C00
ENDCHAR
STARTCHAR 1EE3
ENCODING 7907
SWIDTH 540 0
DWIDTH 9 0
BBX 9 16 1 -4
BITMAP
0100
0380
0380
3F00
FE00
EE00
E700
C700
E700
EE00
FE00
3C00
0000
3800
3800
1800
ENDCHAR
STARTCHAR 1EE4
ENCODING 7908
SWIDTH 660 0
DWIDTH 11 0
BBX 9 15 1 -4
BITMAP
E380
E380
E380
E380
E380
E380
E380
E380
7780
7F00
3E00
0000
1C00
1C00
0C00
ENDCHAR
STARTCHAR 1EE5
ENCODING 7909
SWIDTH 600 0
DWIDTH 10 0
BBX 8 13 1 -4
BITMAP
E7
E7
E7
E7
E7
E7
EF
FF
77
00
18
1C
18
ENDCHAR
STARTCHAR 1EE6
ENCODING 7910
SWIDTH 660 0
DWIDTH 11 0
BBX 9 15 1 0
BITMAP
1C00
0C00
0C00
0000
E380
E380
E380
E380
E380
E380
E380
E380
7780
7F00
3E00
ENDCHAR
STARTCHAR 1EE7
ENCODING 7911
SWIDTH 600 0
DWIDTH 10 0
BBX 8 14 1 0
BITMAP
30
38
1C
18
00
E7
E7
E7
E7
E7
E7
EF
FF
77
ENDCHAR
STARTCHAR 1EE8
ENCODING 7912
SWIDTH 720 0
DWIDTH 12 0
BBX 11 15 1 0
BITMAP
0600
0F60
1C60
0860
E3C0
E380
E380
E380
E380
E380
E380
E380
7780
7F00
3E00
ENDCHAR
STARTCHAR 1EE9
ENCODING 7913
SWIDTH 600 0
DWIDTH 10 0
BBX 9 14 1 0
BITMAP
0C00
0E00
1C80
1980
0180
E700
E700
E700
E700
E700
E700
EF00
FF00
7700
ENDCHAR
STARTCHAR 1EEA
ENCODING 7914
SWIDTH 720 0
DWIDTH 12 0
BBX 11 15 1 0
BITMAP
3000
3860
1C60
0060
E3C0
E380
E380
E380
E380
E380
E380
E380
7780
7F00
3E00
ENDCHAR
STARTCHAR 1EEB
ENCODING 7915
SWIDTH 600 0
DWIDTH 10 0
BBX 9 14 1 0
BITMAP
6000
F000
7880
1180
0180
E700
E700
E700
E700
E700
E700
EF00
FF00
7700
ENDCHAR
STARTCHAR 1EEC
ENCODING 7916
SWIDTH 720 0
DWIDTH 12 0
BBX 11 15 1 0
BITMAP
1C00
0C60
0C60
0060
E3E0
E380
E380
E380
E380
E380
E380
E380
7780
7F00
3E00
ENDCHAR
STARTCHAR 1EED
ENCODING 7917
SWIDTH 600 0
DWIDTH 10 0
BBX 9 14 1 0
BITMAP
3000
3800
1880
1980
0180
E780
E700
E700
E700
E700
E700
EF00
FF00
7700
ENDCHAR
STARTCHAR 1EEE
ENCODING 7918
SWIDTH 720 0
DWIDTH 12 0
BBX 11 15 1 0
BITMAP
0300
3F20
7E60
0060
E3E0
E380
E380
E380
E380
E380
E380
E380
7780
7F00
3E00
ENDCHAR
STARTCHAR 1EEF
ENCODING 7919
SWIDTH 600 0
DWIDTH 10 0
BBX 9 13 1 0
BITMAP
7600
FE80
DD80
0180
E700
E700
E700
E700
E700
E700
EF00
FF00
7700
ENDCHAR
STARTCHAR 1EF0
ENCODING 7920
SWIDTH 720 0
DWIDTH 12 0
BBX 11 18 1 -4
BITMAP
0060
0060
0060
E3C0
E380
E380
E380
E380
E380
E380
E380
7780
7F00
3E00
0000
1C00
1C00
0C00
ENDCHAR
STARTCHAR 1EF1
ENCODING 7921
SWIDTH 600 0
DWIDTH 10 0
BBX 9 16 1 -4
BITMAP
0080
0180
0180
E700
E700
E700
E700
E700
E700
EF00
FF00
7700
0000
1800
3800
1800
ENDCHAR
STARTCHAR 1EF2
ENCODING 7922
SWIDTH 540 0
DWIDTH 9 0
BBX 9 15 0 0
BITMAP
3000
7800
1C00
0800
E380
6380
7700
7700
3600
3E00
1C00
1C00
1C00
1C00
1C00
ENDCHAR
STARTCHAR 1EF3
ENCODING 7923
SWIDTH 540 0
DWIDTH 9 0
BBX 9 18 0 -3
BITMAP
3000
7800
1C00
0800
0000
E380
6300
7300
7700
3700
3600
3E00
1E00
1C00
1C00
1C00
7800
7000
ENDCHAR
STARTCHAR 1EF4
ENCODING 7924
SWIDTH 540 0
DWIDTH 9 0
BBX 9 15 0 -4
BITMAP
E380
6380
7700
7700
3600
3E00
1C00
1C00
1C00
1C00
1C00
0000
1C00
1C00
1C00
ENDCHAR
STARTCHAR 1EF5
ENCODING 7925
SWIDTH 540 0
DWIDTH 9 0
BBX 9 14 0 -5
BITMAP
E380
6300
7300
7700
3700
3600
3E00
1E00
1C00
1C00
1C00
7980
7380
0180
ENDCHAR
STARTCHAR 1EF6
ENCODING 7926
SWIDTH 540 0
DWIDTH 9 0
BBX 9 15 0 0
BITMAP
1C00
0C00
0C00
0000
E380
E380
7700
7700
3600
3E00
1C00
1C00
1C00
1C00
1C00
ENDCHAR
STARTCHAR 1EF7
ENCODING 7927
SWIDTH 540 0
DWIDTH 9 0
BBX 9 18 0 -4
BITMAP
1800
1C00
0C00
0C00
0000
0000
E380
7300
7700
3700
3600
3E00
1E00
1C00
1C00
1C00
7800
7000
ENDCHAR
STARTCHAR 1EF8
ENCODING 7928
SWIDTH 540 0
DWIDTH 9 0
BBX 9 15 0 0
BITMAP
0300
3F00
7E00
0000
E380
6380
7700
7700
3600
3E00
1C00
1C00
1C00
1C00
1C00
ENDCHAR
STARTCHAR 1EF9
ENCODING 7929
SWIDTH 540 0
DWIDTH 9 0
BBX 9 17 0 -4
BITMAP
3B00
7F00
6E00
0000
E380
6300
7300
7700
3700
3600
3E00
1E00
1C00
1C00
1C00
7800
7000
ENDCHAR
STARTCHAR 1F00
ENCODING 7936
SWIDTH 600 0
DWIDTH 10 0
BBX 9 14 1 0
BITMAP
3800
3C00
0C00
1800
0000
7B00
FF00
EF00
E700
C700
E600
EF00
FF80
7380
ENDCHAR
STARTCHAR 1F01
ENCODING 7937
SWIDTH 600 0
DWIDTH 10 0
BBX 9 13 1 1
BITMAP
3C00
3000
1800
0000
7B00
FF00
EF00
E700
C700
E600
EF00
FF80
7380
ENDCHAR
STARTCHAR 1F02
ENCODING 7938
SWIDTH 600 0
DWIDTH 10 0
BBX 9 14 1 0
BITMAP
0400
6C00
2400
6600
0000
7B00
FF00
EF00
E700
C700
E600
EF00
FF80
7380
ENDCHAR
STARTCHAR 1F03
ENCODING 7939
SWIDTH 600 0
DWIDTH 10 0
BBX 9 14 1 0
BITMAP
0400
6C00
C400
6600
0000
7B00
FF00
EF00
E700
C700
E600
EF00
FF80
7380
ENDCHAR
STARTCHAR 1F04
ENCODING 7940
SWIDTH 600 0
DWIDTH 10 0
BBX 9 14 1 0
BITMAP
0400
6E00
2C00
6C00
0000
7B00
FF00
EF00
E700
C700
E600
EF00
FF80
7380
ENDCHAR
STARTCHAR 1F05
ENCODING 7941
SWIDTH 600 0
DWIDTH 10 0
BBX 9 14 1 0
BITMAP
1400
7E00
6C00
6C00
0000
7B00
FF00
EF00
E700
C700
E600
EF00
FF80
7380
ENDCHAR
STARTCHAR 1F06
ENCODING 7942
SWIDTH 600 0
DWIDTH 10 0
BBX 9 15 1 0
BITMAP
3600
7C00
0000
1800
1800
0000
7B00
FF00
EF00
E700
C700
E600
EF00
FF80
7380
ENDCHAR
STARTCHAR 1F07
ENCODING 7943
SWIDTH 600 0
DWIDTH 10 0
BBX 9 15 1 0
BITMAP
3600
7C00
0000
1800
1800
0000
7B00
FF00
EF00
E700
C700
E600
EF00
FF80
7380
ENDCHAR
STARTCHAR 1F08
ENCODING 7944
SWIDTH 660 0
DWIDTH 11 0
BBX 11 11 0 0
BITMAP
C700
EF80
6D80
4D80
1DC0
1DC0
1DC0
1FE0
3FE0
38E0
38E0
ENDCHAR
STARTCHAR 1F09
ENCODING 7945
SWIDTH 660 0
DWIDTH 11 0
BBX 11 11 0 0
BITMAP
6F00
EF00
CF80
5F80
1D80
19C0
19C0
3FC0
3FC0
30E0
70E0
ENDCHAR
STARTCHAR 1F0A
ENCODING 7946
SWIDTH 840 0
DWIDTH 14 0
BBX 14 11 0 0
BITMAP
DCE0
EDF0
6DB0
4DB0
03B8
03B8
03B8
03FC
07FC
071C
071C
ENDCHAR
STARTCHAR 1F0B
ENCODING 7947
SWIDTH 840 0
DWIDTH 14 0
BBX 14 11 0 0
BITMAP
7CE0
CDF0
CDB0
4DB0
03B8
03B8
03B8
03FC
07FC
071C
071C
ENDCHAR
STARTCHAR 1F0C
ENCODING 7948
SWIDTH 840 0
DWIDTH 14 0
BBX 14 11 0 0
BITMAP
CDE0
EDF0
7DF0
59B0
03B0
03B8
0338
07F8
07FC
071C
0E1C
ENDCHAR
STARTCHAR 1F0D
ENCODING 7949
SWIDTH 840 0
DWIDTH 14 0
BBX 14 11 0 0
BITMAP
6DE0
CDF0
DDF0
59B0
03B0
03B8
0338
07F8
07FC
071C
0E1C
ENDCHAR
STARTCHAR 1F0E
ENCODING 7950
SWIDTH 720 0
DWIDTH 12 0
BBX 12 11 0 0
BITMAP
F780
2780
6F80
2FC0
4DC0
1CC0
1CE0
1FE0
1FE0
38E0
3870
ENDCHAR
STARTCHAR 1F0F
ENCODING 7951
SWIDTH 720 0
DWIDTH 12 0
BBX 12 11 0 0
BITMAP
F780
2780
6F80
4FC0
6DC0
1CC0
1CE0
1FE0
1FE0
38E0
3870
ENDCHAR
STARTCHAR 1F10
ENCODING 7952
SWIDTH 480 0
DWIDTH 8 0
BBX 6 14 1 0
BITMAP
30
38
18
18
00
7C
FC
E4
F8
F8
C0
E4
FC
7C
ENDCHAR
STARTCHAR 1F11
ENCODING 7953
SWIDTH 480 0
DWIDTH 8 0
BBX 6 14 1 0
BITMAP
08
38
30
30
00
7C
FC
E4
F8
F8
C0
E4
FC
7C
ENDCHAR
STARTCHAR 1F12
ENCODING 7954
SWIDTH 480 0
DWIDTH 8 0
BBX 6 14 1 0
BITMAP
84
EC
6C
4C
00
7C
FC
E4
F8
F8
C0
E4
FC
7C
ENDCHAR
STARTCHAR 1F13
ENCODING 7955
SWIDTH 480 0
DWIDTH 8 0
BBX 6 14 1 0
BITMAP
24
EC
CC
4C
00
7C
FC
E4
F8
F8
C0
E4
FC
7C
ENDCHAR
STARTCHAR 1F14
ENCODING 7956
SWIDTH 480 0
DWIDTH 8 0
BBX 6 14 1 0
BITMAP
88
EC
6C
48
00
7C
FC
E4
F8
F8
C0
E4
FC
7C
ENDCHAR
STARTCHAR 1F15
ENCODING 7957
SWIDTH 480 0
DWIDTH 8 0
BBX 6 14 1 0
BITMAP
28
EC
CC
48
00
7C
FC
E4
F8
F8
C0
E4
FC
7C
ENDCHAR
STARTCHAR 1F18
ENCODING 7960
SWIDTH 720 0
DWIDTH 12 0
BBX 11 11 0 0
BITMAP
CFE0
EFE0
6E00
4E00
0FE0
0FE0
0E00
0E00
0E00
0FE0
0FE0
ENDCHAR
STARTCHAR 1F19
ENCODING 7961
SWIDTH 720 0
DWIDTH 12 0
BBX 11 11 0 0
BITMAP
EFE0
CFE0
CE00
4E00
0FE0
0FE0
0E00
0E00
0E00
0FE0
0FE0
ENDCHAR
STARTCHAR 1F1A
ENCODING 7962
SWIDTH 900 0
DWIDTH 15 0
BBX 14 11 0 0
BITMAP
DDFC
EDFC
6DC0
09C0
01FC
01FC
01C0
01C0
01C0
01FC
01FC
ENDCHAR
STARTCHAR 1F1B
ENCODING 7963
SWIDTH 900 0
DWIDTH 15 0
BBX 14 11 0 0
BITMAP
7DFC
CDFC
CDC0
49C0
01FC
01FC
01C0
01C0
01C0
01FC
01FC
ENDCHAR
STARTCHAR 1F1C
ENCODING 7964
SWIDTH 900 0
DWIDTH 15 0
BBX 14 11 0 0
BITMAP
CDFC
EDFC
79C0
01C0
01F8
01F8
01C0
01C0
01C0
01FC
01FC
ENDCHAR
STARTCHAR 1F1D
ENCODING 7965
SWIDTH 900 0
DWIDTH 15 0
BBX 14 11 0 0
BITMAP
6DFC
CDFC
D9C0
41C0
01F8
01F8
01C0
01C0
01C0
01FC
01FC
ENDCHAR
STARTCHAR 1F20
ENCODING 7968
SWIDTH 600 0
DWIDTH 10 0
BBX 8 18 1 -4
BITMAP
18
1C
0C
18
00
CE
DE
FF
E7
E7
E7
E7
E7
E7
07
07
07
07
ENDCHAR
STARTCHAR 1F21
ENCODING 7969
SWIDTH 600 0
DWIDTH 10 0
BBX 8 18 1 -4
BITMAP
04
1C
38
18
00
CE
DE
FF
E7
E7
E7
E7
E7
E7
07
07
07
07
ENDCHAR
STARTCHAR 1F22
ENCODING 7970
SWIDTH 600 0
DWIDTH 10 0
BBX 8 18 1 -4
BITMAP
44
7E
36
66
00
CE
DE
FF
E7
E7
E7
E7
E7
E7
07
07
07
07
ENDCHAR
STARTCHAR 1F23
ENCODING 7971
SWIDTH 600 0
DWIDTH 10 0
BBX 8 18 1 -4
BITMAP
14
7E
66
66
00
CE
DE
FF
E7
E7
E7
E7
E7
E7
07
07
07
07
ENDCHAR
STARTCHAR 1F24
ENCODING 7972
SWIDTH 600 0
DWIDTH 10 0
BBX 8 18 1 -4
BITMAP
44
76
36
6C
00
CE
DE
FF
E7
E7
E7
E7
E7
E7
07
07
07
07
ENDCHAR
STARTCHAR 1F25
ENCODING 7973
SWIDTH 600 0
DWIDTH 10 0
BBX 8 18 1 -4
BITMAP
14
76
66
2C
00
CE
DE
FF
E7
E7
E7
E7
E7
E7
07
07
07
07
ENDCHAR
STARTCHAR 1F26
ENCODING 7974
SWIDTH 600 0
DWIDTH 10 0
BBX 8 19 1 -4
BITMAP
3E
3C
00
18
1C
00
CE
DE
FF
E7
E7
E7
E7
E7
E7
07
07
07
07
ENDCHAR
STARTCHAR 1F27
ENCODING 7975
SWIDTH 600 0
DWIDTH 10 0
BBX 8 19 1 -4
BITMAP
3E
3C
00
1C
18
00
CE
DE
FF
E7
E7
E7
E7
E7
E7
07
07
07
07
ENDCHAR
STARTCHAR 1F28
ENCODING 7976
SWIDTH 840 0
DWIDTH 14 0
BBX 13 11 0 0
BITMAP
CE38
EE38
6E38
4E38
0FF8
0FF8
0FF8
0E38
0E38
0E38
0E38
ENDCHAR
STARTCHAR 1F29
ENCODING 7977
SWIDTH 840 0
DWIDTH 14 0
BBX 13 11 0 0
BITMAP
6E38
CE38
CE38
4E38
0FF8
0FF8
0FF8
0E38
0E38
0E38
0E38
ENDCHAR
STARTCHAR 1F2A
ENCODING 7978
SWIDTH 1020 0
DWIDTH 17 0
BBX 16 11 0 0
BITMAP
DDC7
EDC7
6DC7
09C7
01FF
01FF
01FF
01C7
01C7
01C7
01C7
ENDCHAR
STARTCHAR 1F2B
ENCODING 7979
SWIDTH 1020 0
DWIDTH 17 0
BBX 16 11 0 0
BITMAP
7DC7
CDC7
CDC7
49C7
01FF
01FF
01FF
01C7
01C7
01C7
01C7
ENDCHAR
STARTCHAR 1F2C
ENCODING 7980
SWIDTH 1020 0
DWIDTH 17 0
BBX 16 11 0 0
BITMAP
CDC7
EDC7
79C7
09C7
01FF
01FF
01FF
01C7
01C7
01C7
01C7
ENDCHAR
STARTCHAR 1F2D
ENCODING 7981
SWIDTH 1020 0
DWIDTH 17 0
BBX 16 11 0 0
BITMAP
6DC7
CDC7
D9C7
49C7
01FF
01FF
01FF
01C7
01C7
01C7
01C7
ENDCHAR
STARTCHAR 1F2E
ENCODING 7982
SWIDTH 900 0
DWIDTH 15 0
BBX 14 11 0 0
BITMAP
F71C
271C
671C
671C
07FC
07FC
07FC
071C
071C
071C
071C
ENDCHAR
STARTCHAR 1F2F
ENCODING 7983
SWIDTH 900 0
DWIDTH 15 0
BBX 14 11 0 0
BITMAP
F71C
271C
671C
471C
67FC
07FC
07FC
071C
071C
071C
071C
ENDCHAR
STARTCHAR 1F30
ENCODING 7984
SWIDTH 300 0
DWIDTH 5 0
BBX 4 14 1 0
BITMAP
C0
E0
60
40
00
E0
E0
E0
E0
E0
E0
E0
F0
70
ENDCHAR
STARTCHAR 1F31
ENCODING 7985
SWIDTH 300 0
DWIDTH 5 0
BBX 4 14 1 0
BITMAP
60
E0
C0
C0
00
E0
E0
E0
E0
E0
E0
E0
F0
70
ENDCHAR
STARTCHAR 1F32
ENCODING 7986
SWIDTH 300 0
DWIDTH 5 0
BBX 6 14 -1 0
BITMAP
DC
EC
6C
4C
00
38
38
38
38
38
38
38
3C
1C
ENDCHAR
STARTCHAR 1F33
ENCODING 7987
SWIDTH 300 0
DWIDTH 5 0
BBX 6 14 -1 0
BITMAP
7C
EC
CC
4C
00
38
38
38
38
38
38
38
3C
1C
ENDCHAR
STARTCHAR 1F34
ENCODING 7988
SWIDTH 300 0
DWIDTH 5 0
BBX 6 14 -1 0
BITMAP
CC
EC
6C
48
00
38
38
38
38
38
38
38
3C
1C
ENDCHAR
STARTCHAR 1F35
ENCODING 7989
SWIDTH 300 0
DWIDTH 5 0
BBX 6 14 -1 0
BITMAP
6C
EC
CC
48
00
38
38
38
38
38
38
38
3C
1C
ENDCHAR
STARTCHAR 1F36
ENCODING 7990
SWIDTH 300 0
DWIDTH 5 0
BBX 5 16 0 0
BITMAP
40
F8
B0
70
30
20
00
70
70
70
70
70
70
70
78
38
ENDCHAR
STARTCHAR 1F37
ENCODING 7991
SWIDTH 300 0
DWIDTH 5 0
BBX 5 16 0 0
BITMAP
40
F8
B0
70
60
60
00
70
70
70
70
70
70
70
78
38
ENDCHAR
STARTCHAR 1F38
ENCODING 7992
SWIDTH 480 0
DWIDTH 8 0
BBX 7 11 0 0
BITMAP
CE
EE
6E
4E
0E
0E
0E
0E
0E
0E
0E
ENDCHAR
STARTCHAR 1F39
ENCODING 7993
SWIDTH 480 0
DWIDTH 8 0
BBX 7 11 0 0
BITMAP
6E
CE
CE
4E
0E
0E
0E
0E
0E
0E
0E
ENDCHAR
STARTCHAR 1F3A
ENCODING 7994
SWIDTH 660 0
DWIDTH 11 0
BBX 10 11 0 0
BITMAP
DDC0
EDC0
6DC0
4DC0
01C0
01C0
01C0
01C0
01C0
01C0
01C0
ENDCHAR
STARTCHAR 1F3B
ENCODING 7995
SWIDTH 660 0
DWIDTH 11 0
BBX 10 11 0 0
BITMAP
7DC0
CDC0
CDC0
4DC0
01C0
01C0
01C0
01C0
01C0
01C0
01C0
ENDCHAR
STARTCHAR 1F3C
ENCODING 7996
SWIDTH 660 0
DWIDTH 11 0
BBX 10 11 0 0
BITMAP
CDC0
EDC0
79C0
49C0
01C0
01C0
01C0
01C0
01C0
01C0
01C0
ENDCHAR
STARTCHAR 1F3D
ENCODING 7997
SWIDTH 660 0
DWIDTH 11 0
BBX 10 11 0 0
BITMAP
6DC0
CDC0
D9C0
49C0
01C0
01C0
01C0
01C0
01C0
01C0
01C0
ENDCHAR
STARTCHAR 1F3E
ENCODING 7998
SWIDTH 540 0
DWIDTH 9 0
BBX 8 11 0 0
BITMAP
F7
37
67
27
47
07
07
07
07
07
07
ENDCHAR
STARTCHAR 1F3F
ENCODING 7999
SWIDTH 540 0
DWIDTH 9 0
BBX 8 11 0 0
BITMAP
F7
37
67
47
67
07
07
07
07
07
07
ENDCHAR
STARTCHAR 1F40
ENCODING 8000
SWIDTH 540 0
DWIDTH 9 0
BBX 8 14 1 0
BITMAP
38
38
18
18
00
3C
FE
EE
E7
C7
E7
EE
FE
3C
ENDCHAR
STARTCHAR 1F41
ENCODING 8001
SWIDTH 540 0
DWIDTH 9 0
BBX 8 14 1 0
BITMAP
08
38
30
18
00
3C
FE
EE
E7
C7
E7
EE
FE
3C
ENDCHAR
STARTCHAR 1F42
ENCODING 8002
SWIDTH 540 0
DWIDTH 9 0
BBX 8 14 1 0
BITMAP
84
EC
6C
64
00
3C
FE
EE
E7
C7
E7
EE
FE
3C
ENDCHAR
STARTCHAR 1F43
ENCODING 8003
SWIDTH 540 0
DWIDTH 9 0
BBX 8 14 1 0
BITMAP
24
EC
CC
64
00
3C
FE
EE
E7
C7
E7
EE
FE
3C
ENDCHAR
STARTCHAR 1F44
ENCODING 8004
SWIDTH 540 0
DWIDTH 9 0
BBX 8 14 1 0
BITMAP
88
EC
6C
6C
00
3C
FE
EE
E7
C7
E7
EE
FE
3C
ENDCHAR
STARTCHAR 1F45
ENCODING 8005
SWIDTH 540 0
DWIDTH 9 0
BBX 8 14 1 0
BITMAP
08
6C
CC
6C
00
3C
FE
EE
E7
C7
E7
EE
FE
3C
ENDCHAR
STARTCHAR 1F48
ENCODING 8008
SWIDTH 840 0
DWIDTH 14 0
BBX 13 11 0 0
BITMAP
C3E0
E7F0
6F78
4E38
1C38
1C18
1C38
0E38
0F78
07F0
03E0
ENDCHAR
STARTCHAR 1F49
ENCODING 8009
SWIDTH 840 0
DWIDTH 14 0
BBX 13 11 0 0
BITMAP
63C0
EFF0
CFF0
5C38
1C38
1C38
1C38
1C38
0FF0
0FF0
03C0
ENDCHAR
STARTCHAR 1F4A
ENCODING 8010
SWIDTH 1020 0
DWIDTH 17 0
BBX 17 11 0 0
BITMAP
DC7C00
ECFE00
6DEF00
4DC700
01C380
018380
01C300
01C700
01EF00
00FE00
007C00
ENDCHAR
STARTCHAR 1F4B
ENCODING 8011
SWIDTH 1020 0
DWIDTH 17 0
BBX 17 11 0 0
BITMAP
7C7C00
CCFE00
CDEF00
4DC700
01C380
018380
01C300
01C700
01EF00
00FE00
007C00
ENDCHAR
STARTCHAR 1F4C
ENCODING 8012
SWIDTH 1020 0
DWIDTH 17 0
BBX 16 11 0 0
BITMAP
CC78
EDFE
79FE
1B87
0387
0387
0387
0387
01FE
01FE
0078
ENDCHAR
STARTCHAR 1F4D
ENCODING 8013
SWIDTH 1020 0
DWIDTH 17 0
BBX 16 11 0 0
BITMAP
6C78
CDFE
D9FE
5B87
0387
0387
0387
0387
01FE
01FE
0078
ENDCHAR
STARTCHAR 1F50
ENCODING 8016
SWIDTH 540 0
DWIDTH 9 0
BBX 7 14 1 0
BITMAP
30
38
18
10
00
C6
EE
EE
CE
CE
CE
EE
FE
78
ENDCHAR
STARTCHAR 1F51
ENCODING 8017
SWIDTH 540 0
DWIDTH 9 0
BBX 7 14 1 0
BITMAP
08
38
30
30
00
C6
EE
EE
CE
CE
CE
EE
FE
78
ENDCHAR
STARTCHAR 1F52
ENCODING 8018
SWIDTH 540 0
DWIDTH 9 0
BBX 7 14 1 0
BITMAP
84
EC
6C
4C
00
C6
EE
EE
CE
CE
CE
EE
FE
78
ENDCHAR
STARTCHAR 1F53
ENCODING 8019
SWIDTH 540 0
DWIDTH 9 0
BBX 7 14 1 0
BITMAP
24
EC
CC
4C
00
C6
EE
EE
CE
CE
CE
EE
FE
78
ENDCHAR
STARTCHAR 1F54
ENCODING 8020
SWIDTH 540 0
DWIDTH 9 0
BBX 7 14 1 0
BITMAP
88
EC
6C
48
00
C6
EE
EE
CE
CE
CE
EE
FE
78
ENDCHAR
STARTCHAR 1F55
ENCODING 8021
SWIDTH 540 0
DWIDTH 9 0
BBX 7 14 1 0
BITMAP
28
EC
CC
48
00
C6
EE
EE
CE
CE
CE
EE
FE
78
ENDCHAR
STARTCHAR 1F56
ENCODING 8022
SWIDTH 540 0
DWIDTH 9 0
BBX 7 15 1 0
BITMAP
7C
7C
00
38
18
00
C6
EE
EE
CE
CE
CE
EE
FE
78
ENDCHAR
STARTCHAR 1F57
ENCODING 8023
SWIDTH 540 0
DWIDTH 9 0
BBX 7 15 1 0
BITMAP
7C
7C
00
38
30
00
C6
EE
EE
CE
CE
CE
EE
FE
78
ENDCHAR
STARTCHAR 1F59
ENCODING 8025
SWIDTH 780 0
DWIDTH 13 0
BBX 13 11 0 0
BITMAP
6E38
CE70
C670
4760
03E0
03C0
03C0
01C0
01C0
01C0
01C0
ENDCHAR
STARTCHAR 1F5B
ENCODING 8027
SWIDTH 960 0
DWIDTH 16 0
BBX 16 11 0 0
BITMAP
7DC7
CCC7
CCEE
4CEE
006C
007C
0038
0038
0038
0038
0038
ENDCHAR
STARTCHAR 1F5D
ENCODING 8029
SWIDTH 960 0
DWIDTH 16 0
BBX 16 11 0 0
BITMAP
6DC7
CDC6
D8EE
48EC
007C
007C
0038
0038
0038
0038
0038
ENDCHAR
STARTCHAR 1F5F
ENCODING 8031
SWIDTH 840 0
DWIDTH 14 0
BBX 14 11 0 0
BITMAP
F71C
2738
6338
43B0
63F0
01E0
01E0
00E0
00E0
00E0
00E0
ENDCHAR
STARTCHAR 1F60
ENCODING 8032
SWIDTH 780 0
DWIDTH 13 0
BBX 11 14 1 0
BITMAP
0C00
0E00
0600
0C00
0000
4040
E0E0
E0E0
CEE0
CEE0
CEE0
EEE0
FFC0
7BC0
ENDCHAR
STARTCHAR 1F61
ENCODING 8033
SWIDTH 780 0
DWIDTH 13 0
BBX 11 14 1 0
BITMAP
0200
0E00
0C00
0C00
0000
4040
E0E0
E0E0
CEE0
CEE0
CEE0
EEE0
FFC0
7BC0
ENDCHAR
STARTCHAR 1F62
ENCODING 8034
SWIDTH 780 0
DWIDTH 13 0
BBX 11 14 1 0
BITMAP
2100
3B00
1B00
1300
0000
4040
E0E0
E0E0
CEE0
CEE0
CEE0
EEE0
FFC0
7BC0
ENDCHAR
STARTCHAR 1F63
ENCODING 8035
SWIDTH 780 0
DWIDTH 13 0
BBX 11 14 1 0
BITMAP
0900
3B00
3300
1300
0000
4040
E0E0
E0E0
CEE0
CEE0
CEE0
EEE0
FFC0
7BC0
ENDCHAR
STARTCHAR 1F64
ENCODING 8036
SWIDTH 780 0
DWIDTH 13 0
BBX 11 14 1 0
BITMAP
2200
3B00
1B00
1200
0000
4040
E0E0
E0E0
CEE0
CEE0
CEE0
EEE0
FFC0
7BC0
ENDCHAR
STARTCHAR 1F65
ENCODING 8037
SWIDTH 780 0
DWIDTH 13 0
BBX 11 14 1 0
BITMAP
0A00
3B00
3300
1200
0000
4040
E0E0
E0E0
CEE0
CEE0
CEE0
EEE0
FFC0
7BC0
ENDCHAR
STARTCHAR 1F66
ENCODING 8038
SWIDTH 780 0
DWIDTH 13 0
BBX 11 15 1 0
BITMAP
1F00
1F00
0000
0E00
0600
0000
4040
E0E0
E0E0
CEE0
CEE0
CEE0
EEE0
FFC0
7BC0
ENDCHAR
STARTCHAR 1F67
ENCODING 8039
SWIDTH 780 0
DWIDTH 13 0
BBX 11 15 1 0
BITMAP
1F00
1F00
0000
0E00
0C00
0000
4040
E0E0
E0E0
CEE0
CEE0
CEE0
EEE0
FFC0
7BC0
ENDCHAR
STARTCHAR 1F68
ENCODING 8040
SWIDTH 900 0
DWIDTH 15 0
BBX 14 11 0 0
BITMAP
C3E0
E7F0
6F78
4E3C
0E1C
0E1C
0E1C
0E38
0730
1F7C
1F7C
ENDCHAR
STARTCHAR 1F69
ENCODING 8041
SWIDTH 840 0
DWIDTH 14 0
BBX 14 11 0 0
BITMAP
63E0
E7F0
CF78
4E38
1C38
1C38
0C38
0E38
0670
1F7C
1F7C
ENDCHAR
STARTCHAR 1F6A
ENCODING 8042
SWIDTH 1080 0
DWIDTH 18 0
BBX 17 11 0 0
BITMAP
DC7C00
ECFE00
6DEF00
4DC780
01C380
01C380
01C380
01C700
00E600
03EF80
03EF80
ENDCHAR
STARTCHAR 1F6B
ENCODING 8043
SWIDTH 1080 0
DWIDTH 18 0
BBX 17 11 0 0
BITMAP
7C7C00
CCFE00
CDEF00
4DC780
01C380
01C380
01C380
01C700
00E600
03EF80
03EF80
ENDCHAR
STARTCHAR 1F6C
ENCODING 8044
SWIDTH 1080 0
DWIDTH 18 0
BBX 17 11 0 0
BITMAP
CC7C00
ECFE00
79EF00
49C700
038380
038380
01C700
01C700
00C600
03EF80
03EF80
ENDCHAR
STARTCHAR 1F6D
ENCODING 8045
SWIDTH 1080 0
DWIDTH 18 0
BBX 17 11 0 0
BITMAP
6C7C00
CCFE00
D9EF00
49C700
038380
038380
01C700
01C700
00C600
03EF80
03EF80
ENDCHAR
STARTCHAR 1F6E
ENCODING 8046
SWIDTH 900 0
DWIDTH 15 0
BBX 14 11 0 0
BITMAP
F1E0
37F8
67F8
2E1C
4E1C
0E1C
0E1C
0618
0738
0F3C
0F3C
ENDCHAR
STARTCHAR 1F6F
ENCODING 8047
SWIDTH 900 0
DWIDTH 15 0
BBX 14 11 0 0
BITMAP
F1E0
37F8
67F8
4E1C
6E1C
0E1C
0E1C
0618
0738
0F3C
0F3C
ENDCHAR
STARTCHAR 1F70
ENCODING 8048
SWIDTH 600 0
DWIDTH 10 0
BBX 9 15 1 0
BITMAP
2000
6000
7000
3800
1000
0000
7B00
FF00
EF00
E700
C700
E600
EF00
FF80
7380
ENDCHAR
STARTCHAR 1F71
ENCODING 8049
SWIDTH 600 0
DWIDTH 10 0
BBX 9 15 1 0
BITMAP
0400
0E00
0E00
1C00
0800
0000
7B00
FF00
EF00
E700
C700
E600
EF00
FF80
7380
ENDCHAR
STARTCHAR 1F72
ENCODING 8050
SWIDTH 480 0
DWIDTH 8 0
BBX 6 14 1 1
BITMAP
60
F0
70
30
00
7C
FC
E4
F8
F8
C0
E4
FC
7C
ENDCHAR
STARTCHAR 1F73
ENCODING 8051
SWIDTH 480 0
DWIDTH 8 0
BBX 7 14 1 1
BITMAP
0C
1E
3C
10
00
7C
FC
E4
F8
F8
C0
E4
FC
7C
ENDCHAR
STARTCHAR 1F74
ENCODING 8052
SWIDTH 600 0
DWIDTH 10 0
BBX 8 18 1 -3
BITMAP
20
70
38
10
00
CE
DE
FF
E7
E7
E7
E7
E7
E7
07
07
07
07
ENDCHAR
STARTCHAR 1F75
ENCODING 8053
SWIDTH 600 0
DWIDTH 10 0
BBX 8 18 1 -3
BITMAP
06
0F
1C
08
00
CE
DE
FF
E7
E7
E7
E7
E7
E7
07
07
07
07
ENDCHAR
STARTCHAR 1F76
ENCODING 8054
SWIDTH 300 0
DWIDTH 5 0
BBX 6 14 -1 1
BITMAP
60
F0
70
00
00
38
38
38
38
38
38
38
3C
1C
ENDCHAR
STARTCHAR 1F77
ENCODING 8055
SWIDTH 300 0
DWIDTH 5 0
BBX 4 14 1 1
BITMAP
30
70
E0
40
00
E0
E0
E0
E0
E0
E0
E0
F0
70
ENDCHAR
STARTCHAR 1F78
ENCODING 8056
SWIDTH 540 0
DWIDTH 9 0
BBX 8 14 1 1
BITMAP
60
F0
38
10
00
3C
FE
EE
E7
C7
E7
EE
FE
3C
ENDCHAR
STARTCHAR 1F79
ENCODING 8057
SWIDTH 540 0
DWIDTH 9 0
BBX 8 14 1 1
BITMAP
0C
0E
1C
08
00
3C
FE
EE
E7
C7
E7
EE
FE
3C
ENDCHAR
STARTCHAR 1F7A
ENCODING 8058
SWIDTH 540 0
DWIDTH 9 0
BBX 7 14 1 1
BITMAP
60
F0
70
10
00
C6
EE
EE
CE
CE
CE
EE
FE
78
ENDCHAR
STARTCHAR 1F7B
ENCODING 8059
SWIDTH 540 0
DWIDTH 9 0
BBX 7 14 1 1
BITMAP
0C
1E
1C
10
00
C6
EE
EE
CE
CE
CE
EE
FE
78
ENDCHAR
STARTCHAR 1F7C
ENCODING 8060
SWIDTH 780 0
DWIDTH 13 0
BBX 11 14 1 1
BITMAP
1800
3C00
1C00
0C00
0000
4040
E0E0
E0E0
CEE0
CEE0
CEE0
EEE0
FFC0
7BC0
ENDCHAR
STARTCHAR 1F7D
ENCODING 8061
SWIDTH 780 0
DWIDTH 13 0
BBX 11 14 1 1
BITMAP
0300
0780
0F00
0400
0000
4040
E0E0
E0E0
CEE0
CEE0
CEE0
EEE0
FFC0
7BC0
ENDCHAR
STARTCHAR 1F80
ENCODING 8064
SWIDTH 600 0
DWIDTH 10 0
BBX 9 18 1 -4
BITMAP
3800
3C00
0C00
1800
0000
7B00
FF00
EF00
E700
C700
E600
EF00
FF80
7380
0000
1800
1C00
0C00
ENDCHAR
STARTCHAR 1F81
ENCODING 8065
SWIDTH 600 0
DWIDTH 10 0
BBX 9 17 1 -3
BITMAP
3C00
3000
1800
0000
7B00
FF00
EF00
E700
C700
E600
EF00
FF80
7380
0000
1800
1C00
0C00
ENDCHAR
STARTCHAR 1F82
ENCODING 8066
SWIDTH 600 0
DWIDTH 10 0
BBX 9 18 1 -4
BITMAP
0400
6C00
2400
6600
0000
7B00
FF00
EF00
E700
C700
E600
EF00
FF80
7380
0000
1800
1C00
0C00
ENDCHAR
STARTCHAR 1F83
ENCODING 8067
SWIDTH 600 0
DWIDTH 10 0
BBX 9 18 1 -4
BITMAP
0400
6C00
C400
6600
0000
7B00
FF00
EF00
E700
C700
E600
EF00
FF80
7380
0000
1800
1C00
0C00
ENDCHAR
STARTCHAR 1F84
ENCODING 8068
SWIDTH 600 0
DWIDTH 10 0
BBX 9 18 1 -4
BITMAP
0400
6E00
2C00
6C00
0000
7B00
FF00
EF00
E700
C700
E600
EF00
FF80
7380
0000
1800
1C00
0C00
ENDCHAR
STARTCHAR 1F85
ENCODING 8069
SWIDTH 600 0
DWIDTH 10 0
BBX 9 18 1 -4
BITMAP
1400
7E00
6C00
6C00
0000
7B00
FF00
EF00
E700
C700
E600
EF00
FF80
7380
0000
1800
1C00
0C00
ENDCHAR
STARTCHAR 1F86
ENCODING 8070
SWIDTH 600 0
DWIDTH 10 0
BBX 9 19 1 -4
BITMAP
3600
7C00
0000
1800
1800
0000
7B00
FF00
EF00
E700
C700
E600
EF00
FF80
7380
0000
1800
1C00
0C00
ENDCHAR
STARTCHAR 1F87
ENCODING 8071
SWIDTH 600 0
DWIDTH 10 0
BBX 9 19 1 -4
BITMAP
3600
7C00
0000
1800
1800
0000
7B00
FF00
EF00
E700
C700
E600
EF00
FF80
7380
0000
1800
1C00
0C00
ENDCHAR
STARTCHAR 1F88
ENCODING 8072
SWIDTH 1020 0
DWIDTH 17 0
BBX 17 11 0 0
BITMAP
E70000
EF8000
6D8000
4D8000
1DCE00
1DCE00
1FCE00
1FEE00
38EE00
38E700
38E780
ENDCHAR
STARTCHAR 1F89
ENCODING 8073
SWIDTH 960 0
DWIDTH 16 0
BBX 16 11 0 0
BITMAP
6F00
CF00
CF80
5D80
1D8E
19CE
1FCE
3FCE
38CE
30EF
70E7
ENDCHAR
STARTCHAR 1F8A
ENCODING 8074
SWIDTH 1200 0
DWIDTH 20 0
BBX 20 11 0 0
BITMAP
DCE000
EDF000
6DB000
09B000
03B9C0
03B9C0
03F9C0
03FDC0
071DC0
071CE0
071CF0
ENDCHAR
STARTCHAR 1F8B
ENCODING 8075
SWIDTH 1200 0
DWIDTH 20 0
BBX 20 11 0 0
BITMAP
7CE000
CDF000
CDB000
49B000
03B9C0
03B9C0
03F9C0
03FDC0
071DC0
071CE0
071CF0
ENDCHAR
STARTCHAR 1F8C
ENCODING 8076
SWIDTH 1140 0
DWIDTH 19 0
BBX 19 11 0 0
BITMAP
CDE000
EDF000
79F000
01B000
03B1C0
0339C0
03F9C0
07F9C0
071DC0
071DE0
0E1CE0
ENDCHAR
STARTCHAR 1F8D
ENCODING 8077
SWIDTH 1140 0
DWIDTH 19 0
BBX 19 11 0 0
BITMAP
6DE000
CDF000
D9F000
41B000
03B1C0
0339C0
03F9C0
07F9C0
071DC0
071DE0
0E1CE0
ENDCHAR
STARTCHAR 1F8E
ENCODING 8078
SWIDTH 1020 0
DWIDTH 17 0
BBX 17 11 0 0
BITMAP
F78000
278000
6F8000
2DC000
4DC600
1CC600
1FE600
1FE600
18E700
386780
387380
ENDCHAR
STARTCHAR 1F8F
ENCODING 8079
SWIDTH 1020 0
DWIDTH 17 0
BBX 17 11 0 0
BITMAP
F78000
278000
6F8000
4FC000
6DC600
1CC600
1FE600
1FE600
18E700
386780
387380
ENDCHAR
STARTCHAR 1F90
ENCODING 8080
SWIDTH 600 0
DWIDTH 10 0
BBX 8 19 1 -5
BITMAP
18
1C
0C
18
00
CE
DE
FF
E7
E7
E7
E7
E7
E7
07
07
C7
E7
60
ENDCHAR
STARTCHAR 1F91
ENCODING 8081
SWIDTH 600 0
DWIDTH 10 0
BBX 8 19 1 -5
BITMAP
04
1C
38
18
00
CE
DE
FF
E7
E7
E7
E7
E7
E7
07
07
C7
E7
60
ENDCHAR
STARTCHAR 1F92
ENCODING 8082
SWIDTH 600 0
DWIDTH 10 0
BBX 8 19 1 -5
BITMAP
44
7E
36
66
00
CE
DE
FF
E7
E7
E7
E7
E7
E7
07
07
C7
E7
60
ENDCHAR
STARTCHAR 1F93
ENCODING 8083
SWIDTH 600 0
DWIDTH 10 0
BBX 8 19 1 -5
BITMAP
14
7E
66
66
00
CE
DE
FF
E7
E7
E7
E7
E7
E7
07
07
C7
E7
60
ENDCHAR
STARTCHAR 1F94
ENCODING 8084
SWIDTH 600 0
DWIDTH 10 0
BBX 8 19 1 -5
BITMAP
44
76
36
6C
00
CE
DE
FF
E7
E7
E7
E7
E7
E7
07
07
C7
E7
60
ENDCHAR
STARTCHAR 1F95
ENCODING 8085
SWIDTH 600 0
DWIDTH 10 0
BBX 8 19 1 -5
BITMAP
14
76
66
2C
00
CE
DE
FF
E7
E7
E7
E7
E7
E7
07
07
C7
E7
60
ENDCHAR
STARTCHAR 1F96
ENCODING 8086
SWIDTH 600 0
DWIDTH 10 0
BBX 8 20 1 -5
BITMAP
3E
3C
00
18
1C
00
CE
DE
FF
E7
E7
E7
E7
E7
E7
07
07
C7
E7
60
ENDCHAR
STARTCHAR 1F97
ENCODING 8087
SWIDTH 600 0
DWIDTH 10 0
BBX 8 20 1 -5
BITMAP
3E
3C
00
1C
18
00
CE
DE
FF
E7
E7
E7
E7
E7
E7
07
07
C7
E7
60
ENDCHAR
STARTCHAR 1F98
ENCODING 8088
SWIDTH 1200 0
DWIDTH 20 0
BBX 20 11 0 0
BITMAP
CE3800
EE3800
6E3800
4E3800
0FF9C0
0FF9C0
0FF9C0
0E39C0
0E39C0
0E38E0
0E38F0
ENDCHAR
STARTCHAR 1F99
ENCODING 8089
SWIDTH 1200 0
DWIDTH 20 0
BBX 20 11 0 0
BITMAP
6E3800
CE3800
CE3800
4E3800
0FF9C0
0FF9C0
0FF9C0
0E39C0
0E39C0
0E38E0
0E38F0
ENDCHAR
STARTCHAR 1F9A
ENCODING 8090
SWIDTH 1380 0
DWIDTH 23 0
BBX 23 11 0 0
BITMAP
DDC700
EDC700
6DC700
09C700
01FF38
01FF38
01FF38
01C738
01C738
01C71C
01C71E
ENDCHAR
STARTCHAR 1F9B
ENCODING 8091
SWIDTH 1380 0
DWIDTH 23 0
BBX 23 11 0 0
BITMAP
7DC700
CDC700
CDC700
49C700
01FF38
01FF38
01FF38
01C738
01C738
01C71C
01C71E
ENDCHAR
STARTCHAR 1F9C
ENCODING 8092
SWIDTH 1320 0
DWIDTH 22 0
BBX 22 11 0 0
BITMAP
CDC700
EDC700
79C700
09C700
01FF38
01FF38
01FF38
01C738
01C738
01C73C
01C71C
ENDCHAR
STARTCHAR 1F9D
ENCODING 8093
SWIDTH 1320 0
DWIDTH 22 0
BBX 22 11 0 0
BITMAP
6DC700
CDC700
D9C700
49C700
01FF38
01FF38
01FF38
01C738
01C738
01C73C
01C71C
ENDCHAR
STARTCHAR 1F9E
ENCODING 8094
SWIDTH 1200 0
DWIDTH 20 0
BBX 21 11 0 0
BITMAP
F71C00
271C00
671C00
671C00
07FCE0
07FCE0
07FCE0
071CE0
071CE0
071CF0
071C78
ENDCHAR
STARTCHAR 1F9F
ENCODING 8095
SWIDTH 1200 0
DWIDTH 20 0
BBX 21 11 0 0
BITMAP
F71C00
271C00
671C00
471C00
67FCE0
07FCE0
07FCE0
071CE0
071CE0
071CF0
071C78
ENDCHAR
STARTCHAR 1FA0
ENCODING 8096
SWIDTH 780 0
DWIDTH 13 0
BBX 11 18 1 -4
BITMAP
0C00
0E00
0600
0C00
0000
4040
E0E0
E0E0
CEE0
CEE0
CEE0
EEE0
FFC0
7BC0
0000
0C00
0E00
0600
ENDCHAR
STARTCHAR 1FA1
ENCODING 8097
SWIDTH 780 0
DWIDTH 13 0
BBX 11 18 1 -4
BITMAP
0200
0E00
0C00
0C00
0000
4040
E0E0
E0E0
CEE0
CEE0
CEE0
EEE0
FFC0
7BC0
0000
0C00
0E00
0600
ENDCHAR
STARTCHAR 1FA2
ENCODING 8098
SWIDTH 780 0
DWIDTH 13 0
BBX 11 18 1 -4
BITMAP
2100
3B00
1B00
1300
0000
4040
E0E0
E0E0
CEE0
CEE0
CEE0
EEE0
FFC0
7BC0
0000
0C00
0E00
0600
ENDCHAR
STARTCHAR 1FA3
ENCODING 8099
SWIDTH 780 0
DWIDTH 13 0
BBX 11 18 1 -4
BITMAP
0900
3B00
3300
1300
0000
4040
E0E0
E0E0
CEE0
CEE0
CEE0
EEE0
FFC0
7BC0
0000
0C00
0E00
0600
ENDCHAR
STARTCHAR 1FA4
ENCODING 8100
SWIDTH 780 0
DWIDTH 13 0
BBX 11 18 1 -4
BITMAP
2200
3B00
1B00
1200
0000
4040
E0E0
E0E0
CEE0
CEE0
CEE0
EEE0
FFC0
7BC0
0000
0C00
0E00
0600
ENDCHAR
STARTCHAR 1FA5
ENCODING 8101
SWIDTH 780 0
DWIDTH 13 0
BBX 11 18 1 -4
BITMAP
0A00
3B00
3300
1200
0000
4040
E0E0
E0E0
CEE0
CEE0
CEE0
EEE0
FFC0
7BC0
0000
0C00
0E00
0600
ENDCHAR
STARTCHAR 1FA6
ENCODING 8102
SWIDTH 780 0
DWIDTH 13 0
BBX 11 19 1 -4
BITMAP
1F00
1F00
0000
0E00
0600
0000
4040
E0E0
E0E0
CEE0
CEE0
CEE0
EEE0
FFC0
7BC0
0000
0C00
0E00
0600
ENDCHAR
STARTCHAR 1FA7
ENCODING 8103
SWIDTH 780 0
DWIDTH 13 0
BBX 11 19 1 -4
BITMAP
1F00
1F00
0000
0E00
0C00
0000
4040
E0E0
E0E0
CEE0
CEE0
CEE0
EEE0
FFC0
7BC0
0000
0C00
0E00
0600
ENDCHAR
STARTCHAR 1FA8
ENCODING 8104
SWIDTH 1200 0
DWIDTH 20 0
BBX 20 11 0 0
BITMAP
C3E000
E7F000
6F7800
4E3C00
0E1CC0
0E1CC0
0E1CC0
0E38C0
0730C0
1F7CF0
1F7C70
ENDCHAR
STARTCHAR 1FA9
ENCODING 8105
SWIDTH 1200 0
DWIDTH 20 0
BBX 20 11 0 0
BITMAP
63E000
E7F000
CF7800
4E3800
1C39C0
1C39C0
0C39C0
0E39C0
0671C0
1F7CE0
1F7CF0
ENDCHAR
STARTCHAR 1FAA
ENCODING 8106
SWIDTH 1380 0
DWIDTH 23 0
BBX 23 11 0 0
BITMAP
DC7C00
ECFE00
6DEF00
4DC780
01C39C
01C398
01C398
01C718
00E618
03EF9E
03EF8E
ENDCHAR
STARTCHAR 1FAB
ENCODING 8107
SWIDTH 1380 0
DWIDTH 23 0
BBX 23 11 0 0
BITMAP
7C7C00
CCFE00
CDEF00
4DC780
01C39C
01C398
01C398
01C718
00E618
03EF9E
03EF8E
ENDCHAR
STARTCHAR 1FAC
ENCODING 8108
SWIDTH 1380 0
DWIDTH 23 0
BBX 23 11 0 0
BITMAP
CC7C00
ECFE00
79EF00
49C700
0383B8
0383B8
01C738
01C738
00C638
03EF9E
03EF9E
ENDCHAR
STARTCHAR 1FAD
ENCODING 8109
SWIDTH 1380 0
DWIDTH 23 0
BBX 23 11 0 0
BITMAP
6C7C00
CCFE00
D9EF00
49C700
0383B8
0383B8
01C738
01C738
00C638
03EF9E
03EF9E
ENDCHAR
STARTCHAR 1FAE
ENCODING 8110
SWIDTH 1200 0
DWIDTH 20 0
BBX 20 11 0 0
BITMAP
F1E000
37F800
67F800
2E1C00
4E1CE0
0E1CE0
0E1CE0
0618E0
0738E0
0F3CF0
0F3C70
ENDCHAR
STARTCHAR 1FAF
ENCODING 8111
SWIDTH 1200 0
DWIDTH 20 0
BBX 20 11 0 0
BITMAP
F1E000
37F800
67F800
4E1C00
6E1CE0
0E1CE0
0E1CE0
0618E0
0738E0
0F3CF0
0F3C70
ENDCHAR
STARTCHAR 1FB0
ENCODING 8112
SWIDTH 600 0
DWIDTH 10 0
BBX 9 13 1 0
BITMAP
6600
7E00
3C00
0000
7B00
FF00
EF00
E700
C700
E600
EF00
FF80
7380
ENDCHAR
STARTCHAR 1FB1
ENCODING 8113
SWIDTH 600 0
DWIDTH 10 0
BBX 9 12 1 0
BITMAP
7E00
7E00
0000
7B00
FF00
EF00
E700
C700
E600
EF00
FF80
7380
ENDCHAR
STARTCHAR 1FB2
ENCODING 8114
SWIDTH 600 0
DWIDTH 10 0
BBX 9 19 1 -4
BITMAP
2000
6000
7000
3800
1000
0000
7B00
FF00
EF00
E700
C700
E600
EF00
FF80
7380
0000
1800
1C00
0C00
ENDCHAR
STARTCHAR 1FB3
ENCODING 8115
SWIDTH 600 0
DWIDTH 10 0
BBX 9 13 1 -4
BITMAP
7B00
FF00
EF00
E700
C700
E600
EF00
FF80
7380
0000
1800
1C00
0C00
ENDCHAR
STARTCHAR 1FB4
ENCODING 8116
SWIDTH 600 0
DWIDTH 10 0
BBX 9 19 1 -4
BITMAP
0400
0E00
0E00
1C00
0800
0000
7B00
FF00
EF00
E700
C700
E600
EF00
FF80
7380
0000
1800
1C00
0C00
ENDCHAR
STARTCHAR 1FB6
ENCODING 8118
SWIDTH 600 0
DWIDTH 10 0
BBX 9 13 1 0
BITMAP
7600
7E00
4C00
0000
7B00
FF00
EF00
E700
C700
E600
EF00
FF80
7380
ENDCHAR
STARTCHAR 1FB7
ENCODING 8119
SWIDTH 600 0
DWIDTH 10 0
BBX 9 17 1 -4
BITMAP
7600
7E00
4C00
0000
7B00
FF00
EF00
E700
C700
E600
EF00
FF80
7380
0000
1800
1C00
0C00
ENDCHAR
STARTCHAR 1FB8
ENCODING 8120
SWIDTH 600 0
DWIDTH 10 0
BBX 10 15 0 0
BITMAP
1200
3E00
1E00
0000
1E00
1E00
3E00
3F00
3700
7300
7380
7F80
7F80
E380
E1C0
ENDCHAR
STARTCHAR 1FB9
ENCODING 8121
SWIDTH 600 0
DWIDTH 10 0
BBX 10 14 0 0
BITMAP
3E00
3E00
0000
1E00
1E00
3E00
3F00
3700
7300
7380
7F80
7F80
E380
E1C0
ENDCHAR
STARTCHAR 1FBA
ENCODING 8122
SWIDTH 660 0
DWIDTH 11 0
BBX 11 11 0 0
BITMAP
CF00
CF00
DF00
5F80
1B80
3980
39C0
3FC0
3FC0
71C0
70E0
ENDCHAR
STARTCHAR 1FBB
ENCODING 8123
SWIDTH 660 0
DWIDTH 11 0
BBX 11 11 0 0
BITMAP
EF00
CF00
DF00
DF80
1B80
3980
39C0
3FC0
3FC0
71C0
70E0
ENDCHAR
STARTCHAR 1FBC
ENCODING 8124
SWIDTH 900 0
DWIDTH 15 0
BBX 15 11 0 0
BITMAP
1E00
1E00
3E00
3700
3718
7318
7F98
7F98
639C
E19E
E1CE
ENDCHAR
STARTCHAR 1FBD
ENCODING 8125
SWIDTH 540 0
DWIDTH 9 0
BBX 3 5 3 9
BITMAP
C0
E0
60
60
60
ENDCHAR
STARTCHAR 1FBE
ENCODING 8126
SWIDTH 300 0
DWIDTH 5 0
BBX 4 7 1 0
BITMAP
E0
E0
E0
E0
E0
F0
70
ENDCHAR
STARTCHAR 1FBF
ENCODING 8127
SWIDTH 540 0
DWIDTH 9 0
BBX 3 5 3 9
BITMAP
C0
E0
60
60
60
ENDCHAR
STARTCHAR 1FC0
ENCODING 8128
SWIDTH 540 0
DWIDTH 9 0
BBX 7 4 1 9
BITMAP
06
7E
7C
C0
ENDCHAR
STARTCHAR 1FC1
ENCODING 8129
SWIDTH 540 0
DWIDTH 9 0
BBX 6 5 2 10
BITMAP
48
F8
90
CC
DC
ENDCHAR
STARTCHAR 1FC2
ENCODING 8130
SWIDTH 600 0
DWIDTH 10 0
BBX 8 19 1 -4
BITMAP
20
70
38
10
00
CE
DE
FF
E7
E7
E7
E7
E7
E7
07
07
C7
E7
60
ENDCHAR
STARTCHAR 1FC3
ENCODING 8131
SWIDTH 600 0
DWIDTH 10 0
BBX 8 14 1 -5
BITMAP
CE
DE
FF
E7
E7
E7
E7
E7
E7
07
07
C7
E7
60
ENDCHAR
STARTCHAR 1FC4
ENCODING 8132
SWIDTH 600 0
DWIDTH 10 0
BBX 8 19 1 -4
BITMAP
06
0F
1C
08
00
CE
DE
FF
E7
E7
E7
E7
E7
E7
07
07
C7
E7
60
ENDCHAR
STARTCHAR 1FC6
ENCODING 8134
SWIDTH 600 0
DWIDTH 10 0
BBX 8 17 1 -4
BITMAP
32
7E
6E
00
CE
DE
FF
E7
E7
E7
E7
E7
E7
07
07
07
07
ENDCHAR
STARTCHAR 1FC7
ENCODING 8135
SWIDTH 600 0
DWIDTH 10 0
BBX 8 18 1 -5
BITMAP
32
7E
6E
00
CE
DE
FF
E7
E7
E7
E7
E7
E7
07
07
C7
E7
60
ENDCHAR
STARTCHAR 1FC8
ENCODING 8136
SWIDTH 720 0
DWIDTH 12 0
BBX 11 11 0 0
BITMAP
CFE0
CFE0
CC00
0C00
0FC0
0FC0
0C00
0C00
0C00
0FE0
0FE0
ENDCHAR
STARTCHAR 1FC9
ENCODING 8137
SWIDTH 720 0
DWIDTH 12 0
BBX 11 11 0 0
BITMAP
EFE0
CFE0
CC00
4C00
0FC0
0FC0
0C00
0C00
0C00
0FE0
0FE0
ENDCHAR
STARTCHAR 1FCA
ENCODING 8138
SWIDTH 840 0
DWIDTH 14 0
BBX 13 11 0 0
BITMAP
CC38
CC38
CC38
0C38
0FF8
0FF8
0FF8
0C38
0C38
0C38
0C38
ENDCHAR
STARTCHAR 1FCB
ENCODING 8139
SWIDTH 840 0
DWIDTH 14 0
BBX 13 11 0 0
BITMAP
EC38
CC38
CC38
4C38
0FF8
0FF8
0FF8
0C38
0C38
0C38
0C38
ENDCHAR
STARTCHAR 1FCC
ENCODING 8140
SWIDTH 1020 0
DWIDTH 17 0
BBX 16 11 1 0
BITMAP
E380
E380
E380
E380
FF9C
FF9C
FF9C
E39C
E39C
E38E
E38F
ENDCHAR
STARTCHAR 1FCD
ENCODING 8141
SWIDTH 540 0
DWIDTH 9 0
BBX 6 4 1 9
BITMAP
CC
EC
6C
44
ENDCHAR
STARTCHAR 1FCE
ENCODING 8142
SWIDTH 540 0
DWIDTH 9 0
BBX 7 4 1 9
BITMAP
CE
EC
6C
4C
ENDCHAR
STARTCHAR 1FCF
ENCODING 8143
SWIDTH 540 0
DWIDTH 9 0
BBX 5 5 2 9
BITMAP
48
F8
90
70
30
ENDCHAR
STARTCHAR 1FD0
ENCODING 8144
SWIDTH 300 0
DWIDTH 5 0
BBX 5 13 0 0
BITMAP
98
F8
70
00
70
70
70
70
70
70
70
78
38
ENDCHAR
STARTCHAR 1FD1
ENCODING 8145
SWIDTH 300 0
DWIDTH 5 0
BBX 5 12 0 0
BITMAP
F8
F8
00
70
70
70
70
70
70
70
78
38
ENDCHAR
STARTCHAR 1FD2
ENCODING 8146
SWIDTH 300 0
DWIDTH 5 0
BBX 7 14 -1 0
BITMAP
30
30
F6
D6
00
38
38
38
38
38
38
38
3C
1C
ENDCHAR
STARTCHAR 1FD3
ENCODING 8147
SWIDTH 300 0
DWIDTH 5 0
BBX 7 14 -1 0
BITMAP
10
18
D6
D6
00
38
38
38
38
38
38
38
3C
1C
ENDCHAR
STARTCHAR 1FD6
ENCODING 8150
SWIDTH 300 0
DWIDTH 5 0
BBX 7 13 -1 0
BITMAP
76
FE
DC
00
38
38
38
38
38
38
38
3C
1C
ENDCHAR
STARTCHAR 1FD7
ENCODING 8151
SWIDTH 300 0
DWIDTH 5 0
BBX 6 15 -1 0
BITMAP
24
7C
48
4C
EC
00
38
38
38
38
38
38
38
3C
1C
ENDCHAR
STARTCHAR 1FD8
ENCODING 8152
SWIDTH 300 0
DWIDTH 5 0
BBX 5 14 0 1
BITMAP
F8
78
00
70
70
70
70
70
70
70
70
70
70
70
ENDCHAR
STARTCHAR 1FD9
ENCODING 8153
SWIDTH 300 0
DWIDTH 5 0
BBX 5 14 0 0
BITMAP
F8
F8
00
70
70
70
70
70
70
70
70
70
70
70
ENDCHAR
STARTCHAR 1FDA
ENCODING 8154
SWIDTH 480 0
DWIDTH 8 0
BBX 6 11 0 0
BITMAP
CC
CC
CC
4C
0C
0C
0C
0C
0C
0C
0C
ENDCHAR
STARTCHAR 1FDB
ENCODING 8155
SWIDTH 480 0
DWIDTH 8 0
BBX 6 11 0 0
BITMAP
EC
CC
CC
CC
0C
0C
0C
0C
0C
0C
0C
ENDCHAR
STARTCHAR 1FDD
ENCODING 8157
SWIDTH 540 0
DWIDTH 9 0
BBX 6 4 1 9
BITMAP
6C
EC
CC
04
ENDCHAR
STARTCHAR 1FDE
ENCODING 8158
SWIDTH 540 0
DWIDTH 9 0
BBX 7 4 1 9
BITMAP
6E
EC
CC
2C
ENDCHAR
STARTCHAR 1FDF
ENCODING 8159
SWIDTH 540 0
DWIDTH 9 0
BBX 5 6 2 9
BITMAP
48
F8
90
70
60
20
ENDCHAR
STARTCHAR 1FE0
ENCODING 8160
SWIDTH 540 0
DWIDTH 9 0
BBX 7 13 1 0
BITMAP
44
7C
38
00
C6
EE
EE
CE
CE
CE
EE
FE
78
ENDCHAR
STARTCHAR 1FE1
ENCODING 8161
SWIDTH 540 0
DWIDTH 9 0
BBX 7 12 1 0
BITMAP
7C
7C
00
C6
EE
EE
CE
CE
CE
EE
FE
78
ENDCHAR
STARTCHAR 1FE2
ENCODING 8162
SWIDTH 540 0
DWIDTH 9 0
BBX 7 14 1 0
BITMAP
30
30
D6
D6
00
C6
EE
EE
CE
CE
CE
EE
FE
78
ENDCHAR
STARTCHAR 1FE3
ENCODING 8163
SWIDTH 540 0
DWIDTH 9 0
BBX 7 14 1 0
BITMAP
18
18
D6
D6
00
C6
EE
EE
CE
CE
CE
EE
FE
78
ENDCHAR
STARTCHAR 1FE4
ENCODING 8164
SWIDTH 600 0
DWIDTH 10 0
BBX 8 18 1 -4
BITMAP
18
3C
0C
18
00
3C
7E
EF
E7
E7
E7
EF
FE
FC
E0
E0
E0
E0
ENDCHAR
STARTCHAR 1FE5
ENCODING 8165
SWIDTH 600 0
DWIDTH 10 0
BBX 8 18 1 -4
BITMAP
04
1C
30
18
00
3C
7E
EF
E7
E7
E7
EF
FE
FC
E0
E0
E0
E0
ENDCHAR
STARTCHAR 1FE6
ENCODING 8166
SWIDTH 540 0
DWIDTH 9 0
BBX 7 13 1 0
BITMAP
76
FE
DC
00
C6
EE
EE
CE
CE
CE
EE
FE
78
ENDCHAR
STARTCHAR 1FE7
ENCODING 8167
SWIDTH 540 0
DWIDTH 9 0
BBX 7 15 1 0
BITMAP
24
7C
48
6C
6C
00
C6
EE
EE
CE
CE
CE
EE
FE
78
ENDCHAR
STARTCHAR 1FE8
ENCODING 8168
SWIDTH 540 0
DWIDTH 9 0
BBX 9 14 0 1
BITMAP
3E00
1C00
0000
E380
6380
7700
7700
3600
3E00
1C00
1C00
1C00
1C00
1C00
ENDCHAR
STARTCHAR 1FE9
ENCODING 8169
SWIDTH 540 0
DWIDTH 9 0
BBX 9 14 0 0
BITMAP
3E00
3E00
0000
E380
6380
7700
7700
3600
3E00
1C00
1C00
1C00
1C00
1C00
ENDCHAR
STARTCHAR 1FEA
ENCODING 8170
SWIDTH 720 0
DWIDTH 12 0
BBX 12 11 0 0
BITMAP
DC70
CE70
CE60
46E0
07E0
03C0
03C0
0380
0380
0380
0380
ENDCHAR
STARTCHAR 1FEB
ENCODING 8171
SWIDTH 720 0
DWIDTH 12 0
BBX 12 11 0 0
BITMAP
FC70
CE70
CE60
C6E0
07E0
03C0
03C0
0380
0380
0380
0380
ENDCHAR
STARTCHAR 1FEC
ENCODING 8172
SWIDTH 780 0
DWIDTH 13 0
BBX 13 11 0 0
BITMAP
EFE0
CFF0
CE70
4E38
0E70
0FF0
0FE0
0E00
0E00
0E00
0E00
ENDCHAR
STARTCHAR 1FED
ENCODING 8173
SWIDTH 540 0
DWIDTH 9 0
BBX 7 4 1 10
BITMAP
10
30
D6
DE
ENDCHAR
STARTCHAR 1FEE
ENCODING 8174
SWIDTH 540 0
DWIDTH 9 0
BBX 7 4 1 10
BITMAP
18
18
DE
D6
ENDCHAR
STARTCHAR 1FEF
ENCODING 8175
SWIDTH 540 0
DWIDTH 9 0
BBX 4 4 2 9
BITMAP
E0
60
70
30
ENDCHAR
STARTCHAR 1FF2
ENCODING 8178
SWIDTH 780 0
DWIDTH 13 0
BBX 11 18 1 -3
BITMAP
1800
3C00
1C00
0C00
0000
4040
E0E0
E0E0
CEE0
CEE0
CEE0
EEE0
FFC0
7BC0
0000
0C00
0E00
0600
ENDCHAR
STARTCHAR 1FF3
ENCODING 8179
SWIDTH 780 0
DWIDTH 13 0
BBX 11 13 1 -4
BITMAP
4040
E0E0
E0E0
CEE0
CEE0
CEE0
EEE0
FFC0
7BC0
0000
0C00
0E00
0600
ENDCHAR
STARTCHAR 1FF4
ENCODING 8180
SWIDTH 780 0
DWIDTH 13 0
BBX 11 18 1 -3
BITMAP
0300
0780
0F00
0400
0000
4040
E0E0
E0E0
CEE0
CEE0
CEE0
EEE0
FFC0
7BC0
0000
0C00
0E00
0600
ENDCHAR
STARTCHAR 1FF6
ENCODING 8182
SWIDTH 780 0
DWIDTH 13 0
BBX 11 13 1 0
BITMAP
1D80
3F00
3700
0000
4040
E0E0
E0E0
CEE0
CEE0
CEE0
EEE0
FFC0
7BC0
ENDCHAR
STARTCHAR 1FF7
ENCODING 8183
SWIDTH 780 0
DWIDTH 13 0
BBX 11 17 1 -4
BITMAP
1D80
3F00
3700
0000
4040
E0E0
E0E0
CEE0
CEE0
CEE0
EEE0
FFC0
7BC0
0000
0C00
0E00
0600
ENDCHAR
STARTCHAR 1FF8
ENCODING 8184
SWIDTH 840 0
DWIDTH 14 0
BBX 13 11 0 0
BITMAP
C3C0
CFF0
DFF0
7C38
1C38
1C38
1C38
1C38
0EF0
0FF0
03C0
ENDCHAR
STARTCHAR 1FF9
ENCODING 8185
SWIDTH 780 0
DWIDTH 13 0
BBX 13 11 0 0
BITMAP
E7C0
CFE0
DEF0
DC70
1C38
1C38
1C38
1C70
1EF0
0FE0
07C0
ENDCHAR
STARTCHAR 1FFA
ENCODING 8186
SWIDTH 840 0
DWIDTH 14 0
BBX 13 11 0 0
BITMAP
C3C0
CFF0
CFF0
5C38
1C38
1C38
1C38
0C30
0E70
1E78
1E78
ENDCHAR
STARTCHAR 1FFB
ENCODING 8187
SWIDTH 840 0
DWIDTH 14 0
BBX 13 11 0 0
BITMAP
C7C0
CFF0
DFF0
DC38
1C38
1C38
1C38
1C30
0E70
1EF8
1EF8
ENDCHAR
STARTCHAR 1FFC
ENCODING 8188
SWIDTH 1020 0
DWIDTH 17 0
BBX 16 11 1 0
BITMAP
1E00
7F80
7F80
E1C0
E1CE
E1CE
E1CE
618E
738E
F3CF
F3C7
ENDCHAR
STARTCHAR 1FFD
ENCODING 8189
SWIDTH 540 0
DWIDTH 9 0
BBX 3 4 4 9
BITMAP
E0
C0
C0
C0
ENDCHAR
STARTCHAR 1FFE
ENCODING 8190
SWIDTH 540 0
DWIDTH 9 0
BBX 3 4 3 9
BITMAP
60
E0
C0
60
ENDCHAR
STARTCHAR 2007
ENCODING 8199
SWIDTH 540 0
DWIDTH 9 0
BBX 0 0 0 0
BITMAP
ENDCHAR
STARTCHAR 2012
ENCODING 8210
SWIDTH 540 0
DWIDTH 9 0
BBX 7 2 1 3
BITMAP
FE
FE
ENDCHAR
STARTCHAR 2013
ENCODING 8211
SWIDTH 480 0
DWIDTH 8 0
BBX 6 2 1 3
BITMAP
FC
FC
ENDCHAR
STARTCHAR 2014
ENCODING 8212
SWIDTH 780 0
DWIDTH 13 0
BBX 12 2 1 3
BITMAP
FFF0
FFF0
ENDCHAR
STARTCHAR 2015
ENCODING 8213
SWIDTH 780 0
DWIDTH 13 0
BBX 12 2 1 3
BITMAP
FFF0
FFF0
ENDCHAR
STARTCHAR 2016
ENCODING 8214
SWIDTH 480 0
DWIDTH 8 0
BBX 6 17 1 -4
BITMAP
CC
CC
CC
CC
CC
CC
CC
CC
CC
CC
CC
CC
CC
CC
CC
CC
CC
ENDCHAR
STARTCHAR 2018
ENCODING 8216
SWIDTH 300 0
DWIDTH 5 0
BBX 3 6 1 5
BITMAP
60
C0
C0
E0
E0
60
ENDCHAR
STARTCHAR 2019
ENCODING 8217
SWIDTH 300 0
DWIDTH 5 0
BBX 3 6 1 6
BITMAP
60
E0
60
20
60
C0
ENDCHAR
STARTCHAR 201A
ENCODING 8218
SWIDTH 300 0
DWIDTH 5 0
BBX 3 6 1 -3
BITMAP
60
E0
60
20
60
C0
ENDCHAR
STARTCHAR 201C
ENCODING 8220
SWIDTH 600 0
DWIDTH 10 0
BBX 7 6 1 5
BITMAP
62
C4
CC
EE
EE
66
ENDCHAR
STARTCHAR 201D
ENCODING 8221
SWIDTH 600 0
DWIDTH 10 0
BBX 8 6 1 6
BITMAP
66
E7
67
23
66
C4
ENDCHAR
STARTCHAR 201E
ENCODING 8222
SWIDTH 600 0
DWIDTH 10 0
BBX 8 6 1 -3
BITMAP
66
E7
67
23
66
C4
ENDCHAR
STARTCHAR 2020
ENCODING 8224
SWIDTH 540 0
DWIDTH 9 0
BBX 7 13 1 -1
BITMAP
38
30
30
FE
FE
30
30
30
30
30
38
38
38
ENDCHAR
STARTCHAR 2021
ENCODING 8225
SWIDTH 540 0
DWIDTH 9 0
BBX 7 13 1 -1
BITMAP
38
30
30
FE
FE
30
38
30
FE
FE
30
30
38
ENDCHAR
STARTCHAR 2022
ENCODING 8226
SWIDTH 360 0
DWIDTH 6 0
BBX 4 5 1 2
BITMAP
60
F0
F0
F0
60
ENDCHAR
STARTCHAR 2026
ENCODING 8230
SWIDTH 1020 0
DWIDTH 17 0
BBX 14 3 1 0
BITMAP
E39C
E39C
638C
ENDCHAR
STARTCHAR 202F
ENCODING 8239
SWIDTH 120 0
DWIDTH 2 0
BBX 0 0 0 0
BITMAP
ENDCHAR
STARTCHAR 2030
ENCODING 8240
SWIDTH 1260 0
DWIDTH 21 0
BBX 21 11 0 0
BITMAP
386000
7C4000
CCC000
CC8000
6D9060
7B7CF0
136D98
066D98
046D98
0C7CF0
0838F0
ENDCHAR
STARTCHAR 2032
ENCODING 8242
SWIDTH 300 0
DWIDTH 5 0
BBX 3 5 1 6
BITMAP
60
60
E0
E0
C0
ENDCHAR
STARTCHAR 2033
ENCODING 8243
SWIDTH 600 0
DWIDTH 10 0
BBX 8 5 1 6
BITMAP
67
67
E6
E6
C6
ENDCHAR
STARTCHAR 2035
ENCODING 8245
SWIDTH 300 0
DWIDTH 5 0
BBX 3 5 1 6
BITMAP
E0
E0
E0
60
60
ENDCHAR
STARTCHAR 2039
ENCODING 8249
SWIDTH 300 0
DWIDTH 5 0
BBX 3 6 1 2
BITMAP
60
C0
80
C0
60
20
ENDCHAR
STARTCHAR 203A
ENCODING 8250
SWIDTH 300 0
DWIDTH 5 0
BBX 3 6 1 2
BITMAP
C0
60
20
60
C0
80
ENDCHAR
STARTCHAR 203C
ENCODING 8252
SWIDTH 660 0
DWIDTH 11 0
BBX 8 11 1 0
BITMAP
67
67
67
67
63
63
63
00
E7
F7
67
ENDCHAR
STARTCHAR 203D
ENCODING 8253
SWIDTH 480 0
DWIDTH 8 0
BBX 8 12 0 0
BITMAP
3C
FE
47
3F
3E
1C
18
00
00
38
38
18
ENDCHAR
STARTCHAR 203E
ENCODING 8254
SWIDTH 480 0
DWIDTH 8 0
BBX 8 2 0 9
BITMAP
FF
FF
ENDCHAR
STARTCHAR 203F
ENCODING 8255
SWIDTH 0 0
DWIDTH 0 0
BBX 14 3 -7 -3
BITMAP
E01C
7FF8
0FC0
ENDCHAR
STARTCHAR 2044
ENCODING 8260
SWIDTH 120 0
DWIDTH 2 0
BBX 7 11 -3 0
BITMAP
02
06
04
0C
18
18
30
30
60
40
C0
ENDCHAR
STARTCHAR 2047
ENCODING 8263
SWIDTH 900 0
DWIDTH 15 0
BBX 13 11 1 0
BITMAP
78F0
FDF8
0C38
1C38
3870
3060
30E0
0000
70E0
70E0
3060
ENDCHAR
STARTCHAR 2048
ENCODING 8264
SWIDTH 780 0
DWIDTH 13 0
BBX 11 11 1 0
BITMAP
78C0
FCC0
0CC0
1CC0
38C0
30C0
30C0
0000
71C0
71E0
30C0
ENDCHAR
STARTCHAR 2049
ENCODING 8265
SWIDTH 780 0
DWIDTH 13 0
BBX 11 11 1 0
BITMAP
63C0
67E0
6060
60E0
61C0
6180
6180
0000
E380
F380
6180
ENDCHAR
STARTCHAR 2070
ENCODING 8304
SWIDTH 360 0
DWIDTH 6 0
BBX 6 7 0 6
BITMAP
38
7C
CC
CC
CC
7C
38
ENDCHAR
STARTCHAR 2071
ENCODING 8305
SWIDTH 180 0
DWIDTH 3 0
BBX 2 8 1 6
BITMAP
C0
C0
00
C0
C0
C0
C0
C0
ENDCHAR
STARTCHAR 2074
ENCODING 8308
SWIDTH 360 0
DWIDTH 6 0
BBX 5 6 1 6
BITMAP
70
50
D0
F8
10
10
ENDCHAR
STARTCHAR 2075
ENCODING 8309
SWIDTH 360 0
DWIDTH 6 0
BBX 5 7 1 6
BITMAP
F0
F0
C0
F0
18
F8
F0
ENDCHAR
STARTCHAR 2076
ENCODING 8310
SWIDTH 360 0
DWIDTH 6 0
BBX 5 7 1 6
BITMAP
70
F0
C0
F0
98
F8
70
ENDCHAR
STARTCHAR 2077
ENCODING 8311
SWIDTH 360 0
DWIDTH 6 0
BBX 5 7 1 6
BITMAP
F8
F8
30
30
60
60
60
ENDCHAR
STARTCHAR 2078
ENCODING 8312
SWIDTH 360 0
DWIDTH 6 0
BBX 5 7 1 6
BITMAP
F0
F8
D0
70
D8
D8
F0
ENDCHAR
STARTCHAR 2079
ENCODING 8313
SWIDTH 360 0
DWIDTH 6 0
BBX 5 7 1 6
BITMAP
F0
F0
98
F8
18
F0
E0
ENDCHAR
STARTCHAR 207D
ENCODING 8317
SWIDTH 300 0
DWIDTH 5 0
BBX 3 10 1 4
BITMAP
60
60
C0
C0
C0
C0
C0
C0
60
40
ENDCHAR
STARTCHAR 207E
ENCODING 8318
SWIDTH 300 0
DWIDTH 5 0
BBX 3 9 1 4
BITMAP
80
C0
C0
60
60
60
C0
C0
C0
ENDCHAR
STARTCHAR 207F
ENCODING 8319
SWIDTH 420 0
DWIDTH 7 0
BBX 5 6 1 6
BITMAP
B0
F8
D8
D8
D8
D8
ENDCHAR
STARTCHAR 2080
ENCODING 8320
SWIDTH 360 0
DWIDTH 6 0
BBX 6 8 0 -4
BITMAP
10
78
6C
CC
CC
6C
78
10
ENDCHAR
STARTCHAR 2081
ENCODING 8321
SWIDTH 360 0
DWIDTH 6 0
BBX 4 7 1 -4
BITMAP
70
F0
30
30
30
30
30
ENDCHAR
STARTCHAR 2082
ENCODING 8322
SWIDTH 360 0
DWIDTH 6 0
BBX 6 7 0 -3
BITMAP
30
F8
58
18
38
7C
7C
ENDCHAR
STARTCHAR 2083
ENCODING 8323
SWIDTH 360 0
DWIDTH 6 0
BBX 5 8 1 -4
BITMAP
60
F0
30
70
38
98
F0
60
ENDCHAR
STARTCHAR 2084
ENCODING 8324
SWIDTH 360 0
DWIDTH 6 0
BBX 5 6 1 -3
BITMAP
70
50
D0
90
F8
10
ENDCHAR
STARTCHAR 2085
ENCODING 8325
SWIDTH 360 0
DWIDTH 6 0
BBX 5 7 1 -3
BITMAP
F0
F0
C0
F0
18
F8
F0
ENDCHAR
STARTCHAR 2086
ENCODING 8326
SWIDTH 360 0
DWIDTH 6 0
BBX 5 8 1 -4
BITMAP
20
F8
C0
F0
D8
D8
F0
20
ENDCHAR
STARTCHAR 2087
ENCODING 8327
SWIDTH 360 0
DWIDTH 6 0
BBX 5 7 1 -4
BITMAP
F8
F8
30
30
60
60
60
ENDCHAR
STARTCHAR 2088
ENCODING 8328
SWIDTH 360 0
DWIDTH 6 0
BBX 5 6 1 -3
BITMAP
F0
D8
F0
F0
98
F0
ENDCHAR
STARTCHAR 2089
ENCODING 8329
SWIDTH 360 0
DWIDTH 6 0
BBX 5 8 1 -4
BITMAP
60
F0
98
D8
F8
18
F0
40
ENDCHAR
STARTCHAR 208D
ENCODING 8333
SWIDTH 300 0
DWIDTH 5 0
BBX 3 10 1 -5
BITMAP
60
60
C0
C0
C0
C0
C0
C0
60
40
ENDCHAR
STARTCHAR 208E
ENCODING 8334
SWIDTH 300 0
DWIDTH 5 0
BBX 3 9 1 -5
BITMAP
80
C0
C0
60
60
60
C0
C0
C0
ENDCHAR
STARTCHAR 2094
ENCODING 8340
SWIDTH 360 0
DWIDTH 6 0
BBX 5 6 0 6
BITMAP
70
78
F8
C8
78
70
ENDCHAR
STARTCHAR 20A1
ENCODING 8353
SWIDTH 540 0
DWIDTH 9 0
BBX 8 15 1 -2
BITMAP
08
0C
3E
7F
76
F4
F4
F4
F8
F8
FA
7F
3E
28
28
ENDCHAR
STARTCHAR 20A4
ENCODING 8356
SWIDTH 540 0
DWIDTH 9 0
BBX 8 11 1 0
BITMAP
1E
7E
76
70
FC
70
FC
70
60
FF
FF
ENDCHAR
STARTCHAR 20A6
ENCODING 8358
SWIDTH 540 0
DWIDTH 9 0
BBX 9 11 0 0
BITMAP
7300
7300
7B00
7B00
FF80
6B00
FF80
6F00
6F00
6700
6700
ENDCHAR
STARTCHAR 20A7
ENCODING 8359
SWIDTH 540 0
DWIDTH 9 0
BBX 9 11 0 0
BITMAP
7C00
7E00
7700
FF80
FF80
7700
7E00
7C00
7000
7000
7000
ENDCHAR
STARTCHAR 20A9
ENCODING 8361
SWIDTH 540 0
DWIDTH 9 0
BBX 9 11 0 0
BITMAP
E180
FD80
FD80
F580
7780
FF80
7700
7700
7700
7700
7700
ENDCHAR
STARTCHAR 20AB
ENCODING 8363
SWIDTH 540 0
DWIDTH 9 0
BBX 8 11 1 0
BITMAP
0E
3F
0E
7E
FE
EE
EE
FE
76
00
FE
ENDCHAR
STARTCHAR 20AC
ENCODING 8364
SWIDTH 540 0
DWIDTH 9 0
BBX 9 11 0 0
BITMAP
0F00
1F80
3800
7000
FF00
7000
FE00
7000
3900
3F80
0F00
ENDCHAR
STARTCHAR 20AE
ENCODING 8366
SWIDTH 540 0
DWIDTH 9 0
BBX 7 11 1 0
BITMAP
FE
FE
38
3E
3C
7A
FE
38
F8
B8
38
ENDCHAR
STARTCHAR 20B1
ENCODING 8369
SWIDTH 540 0
DWIDTH 9 0
BBX 9 11 0 0
BITMAP
7C00
7F00
FF80
7700
FF80
7700
7E00
7800
7000
7000
7000
ENDCHAR
STARTCHAR 20B2
ENCODING 8370
SWIDTH 540 0
DWIDTH 9 0
BBX 7 15 1 -2
BITMAP
18
18
3C
7E
E0
E0
C0
CE
CE
E6
E6
7E
3E
18
18
ENDCHAR
STARTCHAR 20B4
ENCODING 8372
SWIDTH 540 0
DWIDTH 9 0
BBX 9 11 0 0
BITMAP
3C00
7E00
2700
0700
FF80
3C00
FF80
7000
7300
3F00
1E00
ENDCHAR
STARTCHAR 20B5
ENCODING 8373
SWIDTH 540 0
DWIDTH 9 0
BBX 8 15 1 -2
BITMAP
08
08
3E
7E
78
E8
E8
E8
E8
E8
FA
7F
3E
08
08
ENDCHAR
STARTCHAR 20B8
ENCODING 8376
SWIDTH 540 0
DWIDTH 9 0
BBX 7 10 1 1
BITMAP
FE
00
FE
38
38
38
38
38
38
38
ENDCHAR
STARTCHAR 20B9
ENCODING 8377
SWIDTH 540 0
DWIDTH 9 0
BBX 7 11 1 0
BITMAP
FE
F8
38
FE
1C
38
F8
F0
38
38
1C
ENDCHAR
STARTCHAR 20BA
ENCODING 8378
SWIDTH 540 0
DWIDTH 9 0
BBX 9 11 0 0
BITMAP
7000
7600
7C00
7200
FE00
7800
F380
F300
7F00
7E00
7800
ENDCHAR
STARTCHAR 20BD
ENCODING 8381
SWIDTH 540 0
DWIDTH 9 0
BBX 8 11 0 0
BITMAP
7C
7F
77
77
77
FE
70
F0
FE
70
70
ENDCHAR
STARTCHAR 2113
ENCODING 8467
SWIDTH 480 0
DWIDTH 8 0
BBX 8 12 0 0
BITMAP
1E
3F
3B
3B
3F
3E
3C
38
F8
7B
3F
1E
ENDCHAR
STARTCHAR 2116
ENCODING 8470
SWIDTH 1020 0
DWIDTH 17 0
BBX 15 11 1 0
BITMAP
F180
F39C
F3BE
FB36
FB3E
FF1C
EF00
EF00
EF3E
E700
C700
ENDCHAR
STARTCHAR 2117
ENCODING 8471
SWIDTH 780 0
DWIDTH 13 0
BBX 11 11 1 0
BITMAP
1F00
6180
DE40
9F60
9B60
9B20
9E60
9840
40C0
6180
1F00
ENDCHAR
STARTCHAR 2120
ENCODING 8480
SWIDTH 720 0
DWIDTH 12 0
BBX 11 6 0 5
BITMAP
7760
4760
77E0
17A0
F6A0
0020
ENDCHAR
STARTCHAR 2122
ENCODING 8482
SWIDTH 720 0
DWIDTH 12 0
BBX 11 6 0 6
BITMAP
FE60
FF60
67E0
67A0
66A0
6620
ENDCHAR
STARTCHAR 2126
ENCODING 8486
SWIDTH 720 0
DWIDTH 12 0
BBX 10 11 1 0
BITMAP
1E00
7F80
7F80
E1C0
E1C0
E1C0
E1C0
6180
7380
F3C0
F3C0
ENDCHAR
STARTCHAR 212E
ENCODING 8494
SWIDTH 780 0
DWIDTH 13 0
BBX 12 11 1 0
BITMAP
1F00
60C0
4060
C060
C070
FF80
C000
C000
4000
2040
1F80
ENDCHAR
STARTCHAR 2150
ENCODING 8528
SWIDTH 840 0
DWIDTH 14 0
BBX 13 11 1 0
BITMAP
6180
E100
6300
6200
66F8
64F8
0C30
0820
1860
1060
3060
ENDCHAR
STARTCHAR 2151
ENCODING 8529
SWIDTH 840 0
DWIDTH 14 0
BBX 13 11 1 0
BITMAP
6180
E100
6300
6200
66E0
64F0
0D98
08F8
1818
10F0
30E0
ENDCHAR
STARTCHAR 2152
ENCODING 8530
SWIDTH 1200 0
DWIDTH 20 0
BBX 18 11 1 0
BITMAP
618000
E10000
630000
620000
666380
64E7C0
0C66C0
0866C0
1866C0
1067C0
306380
ENDCHAR
STARTCHAR 2153
ENCODING 8531
SWIDTH 840 0
DWIDTH 14 0
BBX 13 11 1 0
BITMAP
6180
E100
6300
6200
66F0
64F0
0C30
0870
1838
11F0
30F0
ENDCHAR
STARTCHAR 2154
ENCODING 8532
SWIDTH 840 0
DWIDTH 14 0
BBX 13 11 1 0
BITMAP
F0C0
F080
3180
3100
6360
FAF0
FE30
0C70
0C18
18F8
10F0
ENDCHAR
STARTCHAR 2155
ENCODING 8533
SWIDTH 840 0
DWIDTH 14 0
BBX 13 11 1 0
BITMAP
6180
E100
6300
6200
66F0
64F0
6CC0
08F0
1838
11F0
30F0
ENDCHAR
STARTCHAR 2156
ENCODING 8534
SWIDTH 840 0
DWIDTH 14 0
BBX 13 11 1 0
BITMAP
F0C0
F080
3180
3100
63F0
FAF0
FEC0
0CF0
0C18
18F8
10F0
ENDCHAR
STARTCHAR 2157
ENCODING 8535
SWIDTH 840 0
DWIDTH 14 0
BBX 13 11 1 0
BITMAP
F080
F180
3100
7300
1A00
F6F0
64F0
0CF0
0818
18F8
10F0
ENDCHAR
STARTCHAR 2158
ENCODING 8536
SWIDTH 900 0
DWIDTH 15 0
BBX 14 11 1 0
BITMAP
7040
50C0
D080
9180
F978
1378
1260
0678
041C
0CF8
0878
ENDCHAR
STARTCHAR 2159
ENCODING 8537
SWIDTH 840 0
DWIDTH 14 0
BBX 12 11 1 0
BITMAP
6180
E100
6300
6200
6670
64F0
0D80
09F0
1990
10F0
30F0
ENDCHAR
STARTCHAR 215A
ENCODING 8538
SWIDTH 840 0
DWIDTH 14 0
BBX 13 11 1 0
BITMAP
F0C0
F180
F100
3B00
9A70
F6F0
6580
0DF0
0998
18F0
1070
ENDCHAR
STARTCHAR 215B
ENCODING 8539
SWIDTH 840 0
DWIDTH 14 0
BBX 13 11 1 0
BITMAP
6180
E100
6300
6200
66F0
64F0
0CF0
0870
18B0
11F8
30F0
ENDCHAR
STARTCHAR 215C
ENCODING 8540
SWIDTH 840 0
DWIDTH 14 0
BBX 13 11 1 0
BITMAP
F0C0
F180
3180
7300
1A00
F6F0
64D8
0CF0
08D8
18D8
10F0
ENDCHAR
STARTCHAR 215D
ENCODING 8541
SWIDTH 840 0
DWIDTH 14 0
BBX 13 11 1 0
BITMAP
F0C0
F180
F100
3B00
9AF0
F6F8
64D0
0C70
08D8
18D8
10F0
ENDCHAR
STARTCHAR 215E
ENCODING 8542
SWIDTH 840 0
DWIDTH 14 0
BBX 12 11 1 0
BITMAP
F980
F100
3300
6200
66F0
6DF0
0CF0
18E0
19B0
31B0
20F0
ENDCHAR
STARTCHAR 2189
ENCODING 8585
SWIDTH 840 0
DWIDTH 14 0
BBX 14 11 0 0
BITMAP
3860
7CC0
CCC0
CD80
6D30
7B78
1218
0638
040C
0C7C
0878
ENDCHAR
STARTCHAR 2190
ENCODING 8592
SWIDTH 600 0
DWIDTH 10 0
BBX 9 8 1 1
BITMAP
1800
3800
6000
FF80
FF80
7000
3800
1800
ENDCHAR
STARTCHAR 2191
ENCODING 8593
SWIDTH 600 0
DWIDTH 10 0
BBX 8 9 1 0
BITMAP
08
1C
3E
7F
DB
59
18
18
18
ENDCHAR
STARTCHAR 2192
ENCODING 8594
SWIDTH 600 0
DWIDTH 10 0
BBX 9 8 1 1
BITMAP
1800
0C00
0700
FF80
FF00
0600
1C00
1800
ENDCHAR
STARTCHAR 2193
ENCODING 8595
SWIDTH 600 0
DWIDTH 10 0
BBX 8 9 1 0
BITMAP
18
18
18
18
DB
FF
7E
3C
18
ENDCHAR
STARTCHAR 2202
ENCODING 8706
SWIDTH 600 0
DWIDTH 10 0
BBX 8 11 1 0
BITMAP
3C
7E
27
07
3F
FF
E7
C7
EE
FE
78
ENDCHAR
STARTCHAR 2206
ENCODING 8710
SWIDTH 660 0
DWIDTH 11 0
BBX 9 11 1 0
BITMAP
1C00
3E00
3600
3600
7700
7700
6300
E380
E380
FF80
FF80
ENDCHAR
STARTCHAR 220F
ENCODING 8719
SWIDTH 720 0
DWIDTH 12 0
BBX 10 13 1 -2
BITMAP
FFC0
FFC0
FFC0
E1C0
E1C0
E1C0
E1C0
E1C0
E1C0
E1C0
E1C0
E1C0
E1C0
ENDCHAR
STARTCHAR 2211
ENCODING 8721
SWIDTH 540 0
DWIDTH 9 0
BBX 9 13 0 -2
BITMAP
7F80
7F80
7000
3800
3800
1C00
0E00
1C00
3800
3800
7000
FF80
FF80
ENDCHAR
STARTCHAR 2212
ENCODING 8722
SWIDTH 540 0
DWIDTH 9 0
BBX 7 2 1 5
BITMAP
FE
FE
ENDCHAR
STARTCHAR 2215
ENCODING 8725
SWIDTH 120 0
DWIDTH 2 0
BBX 7 11 -3 0
BITMAP
02
06
04
0C
18
18
30
30
60
40
C0
ENDCHAR
STARTCHAR 2219
ENCODING 8729
SWIDTH 540 0
DWIDTH 9 0
BBX 3 3 3 4
BITMAP
E0
E0
E0
ENDCHAR
STARTCHAR 221A
ENCODING 8730
SWIDTH 600 0
DWIDTH 10 0
BBX 10 15 0 -1
BITMAP
00C0
00C0
00C0
0180
0180
0180
1180
F100
7300
1B00
1B00
1A00
0E00
0E00
0E00
ENDCHAR
STARTCHAR 221E
ENCODING 8734
SWIDTH 840 0
DWIDTH 14 0
BBX 12 7 1 2
BITMAP
79E0
FFF0
FE30
CE30
CFF0
FFF0
71E0
ENDCHAR
STARTCHAR 222B
ENCODING 8747
SWIDTH 420 0
DWIDTH 7 0
BBX 5 16 1 -3
BITMAP
38
78
70
70
70
70
70
70
70
70
70
30
30
70
F0
E0
ENDCHAR
STARTCHAR 2248
ENCODING 8776
SWIDTH 540 0
DWIDTH 9 0
BBX 7 7 1 2
BITMAP
72
FE
9C
00
72
FE
9C
ENDCHAR
STARTCHAR 2260
ENCODING 8800
SWIDTH 540 0
DWIDTH 9 0
BBX 7 10 1 1
BITMAP
06
04
FE
FE
18
30
FE
FE
40
C0
ENDCHAR
STARTCHAR 2264
ENCODING 8804
SWIDTH 540 0
DWIDTH 9 0
BBX 7 9 1 1
BITMAP
0E
7E
F8
F8
7E
0E
00
FE
FE
ENDCHAR
STARTCHAR 2265
ENCODING 8805
SWIDTH 540 0
DWIDTH 9 0
BBX 7 9 1 1
BITMAP
E0
FC
3E
3E
FC
E0
00
FE
FE
ENDCHAR
STARTCHAR 231C
ENCODING 8988
SWIDTH 360 0
DWIDTH 6 0
BBX 4 12 1 0
BITMAP
F0
F0
E0
E0
E0
E0
E0
E0
E0
E0
E0
E0
ENDCHAR
STARTCHAR 231D
ENCODING 8989
SWIDTH 360 0
DWIDTH 6 0
BBX 4 12 1 0
BITMAP
F0
F0
70
70
70
70
70
70
70
70
70
70
ENDCHAR
STARTCHAR 231E
ENCODING 8990
SWIDTH 360 0
DWIDTH 6 0
BBX 4 12 1 -1
BITMAP
E0
E0
E0
E0
E0
E0
E0
E0
E0
E0
E0
F0
ENDCHAR
STARTCHAR 231F
ENCODING 8991
SWIDTH 360 0
DWIDTH 6 0
BBX 4 12 1 -1
BITMAP
70
70
70
70
70
70
70
70
70
70
F0
F0
ENDCHAR
STARTCHAR 25A0
ENCODING 9632
SWIDTH 900 0
DWIDTH 15 0
BBX 13 13 1 -1
BITMAP
FFF8
FFF8
FFF8
FFF8
FFF8
FFF8
FFF8
FFF8
FFF8
FFF8
FFF8
FFF8
FFF8
ENDCHAR
STARTCHAR 25B2
ENCODING 9650
SWIDTH 900 0
DWIDTH 15 0
BBX 13 13 1 -1
BITMAP
0200
0600
0700
0F00
0F80
1F80
1FC0
3FC0
3FE0
7FE0
7FF0
FFF0
FFF8
ENDCHAR
STARTCHAR 25B3
ENCODING 9651
SWIDTH 900 0
DWIDTH 15 0
BBX 13 13 1 -1
BITMAP
0200
0600
0700
0F00
0D80
1980
18C0
38C0
30E0
7060
6070
FFF0
FFF8
ENDCHAR
STARTCHAR 25B6
ENCODING 9654
SWIDTH 900 0
DWIDTH 15 0
BBX 13 13 1 -1
BITMAP
8000
E000
F800
FE00
FF80
FFE0
FFF8
FFE0
FF80
FE00
F800
E000
8000
ENDCHAR
STARTCHAR 25B7
ENCODING 9655
SWIDTH 900 0
DWIDTH 15 0
BBX 13 13 1 -1
BITMAP
8000
E000
F800
DE00
C780
C1E0
C078
C1E0
C780
DE00
F800
E000
8000
ENDCHAR
STARTCHAR 25BC
ENCODING 9660
SWIDTH 900 0
DWIDTH 15 0
BBX 13 13 1 -1
BITMAP
FFF8
FFF0
7FF0
7FE0
3FE0
3FC0
1FC0
1F80
0F80
0F00
0700
0600
0200
ENDCHAR
STARTCHAR 25BD
ENCODING 9661
SWIDTH 900 0
DWIDTH 15 0
BBX 13 13 1 -1
BITMAP
FFF8
FFF0
6070
7060
30E0
38C0
18C0
1980
0D80
0F00
0700
0600
0200
ENDCHAR
STARTCHAR 25C0
ENCODING 9664
SWIDTH 900 0
DWIDTH 15 0
BBX 14 13 0 -1
BITMAP
0004
001C
007C
01FC
0FFC
3FFC
FFFC
3FFC
0FFC
01FC
007C
001C
0004
ENDCHAR
STARTCHAR 25C1
ENCODING 9665
SWIDTH 900 0
DWIDTH 15 0
BBX 14 13 0 -1
BITMAP
0004
001C
007C
01EC
0F8C
3E0C
F00C
3E0C
0F8C
01EC
007C
001C
0004
ENDCHAR
STARTCHAR 25C6
ENCODING 9670
SWIDTH 900 0
DWIDTH 15 0
BBX 13 13 1 0
BITMAP
0600
0F00
1F80
3FC0
7FE0
FFF0
FFF8
7FF0
3FE0
1FC0
0F80
0700
0200
ENDCHAR
STARTCHAR 25C9
ENCODING 9673
SWIDTH 900 0
DWIDTH 15 0
BBX 13 13 1 -1
BITMAP
0F80
3FE0
6070
CF30
DF98
9FD8
9FD8
9FD8
DF98
CF30
6070
3FE0
0F80
ENDCHAR
STARTCHAR 25CA
ENCODING 9674
SWIDTH 540 0
DWIDTH 9 0
BBX 7 11 1 0
BITMAP
38
3C
6C
6E
E6
C6
E6
6C
7C
3C
38
ENDCHAR
STARTCHAR 25CC
ENCODING 9676
SWIDTH 600 0
DWIDTH 10 0
BBX 8 9 1 0
BITMAP
1C
64
83
00
81
00
83
64
14
ENDCHAR
STARTCHAR 2610
ENCODING 9744
SWIDTH 840 0
DWIDTH 14 0
BBX 11 12 1 0
BITMAP
7FE0
FFE0
8020
8020
8020
8020
8020
8020
8020
8020
8020
FFE0
ENDCHAR
STARTCHAR 2611
ENCODING 9745
SWIDTH 840 0
DWIDTH 14 0
BBX 12 14 1 0
BITMAP
0020
0030
7FF0
FFE0
80E0
81A0
91A0
B320
9B20
9B20
8E20
8E20
8020
FFE0
ENDCHAR
STARTCHAR 266A
ENCODING 9834
SWIDTH 540 0
DWIDTH 9 0
BBX 9 12 0 -1
BITMAP
0E00
0F00
0F80
0D80
0D80
0C80
0C00
0C00
3C00
7C00
F800
7000
ENDCHAR
STARTCHAR 2713
ENCODING 10003
SWIDTH 660 0
DWIDTH 11 0
BBX 10 12 1 0
BITMAP
0080
01C0
0380
0300
0700
0600
8C00
CC00
CC00
7800
7800
3800
ENDCHAR
STARTCHAR 2752
ENCODING 10066
SWIDTH 900 0
DWIDTH 15 0
BBX 13 13 1 -1
BITMAP
7FF8
FFF8
8018
8018
8018
8018
8018
8018
8018
8018
8018
8018
FFF0
ENDCHAR
STARTCHAR 27E6
ENCODING 10214
SWIDTH 480 0
DWIDTH 8 0
BBX 6 15 1 -3
BITMAP
FC
FC
D0
D0
D0
D0
D0
D0
D0
D0
D0
D0
D0
FC
FC
ENDCHAR
STARTCHAR 27E7
ENCODING 10215
SWIDTH 480 0
DWIDTH 8 0
BBX 5 15 1 -3
BITMAP
F8
F8
68
68
68
68
68
68
68
68
68
68
68
F8
F8
ENDCHAR
STARTCHAR 2E22
ENCODING 11810
SWIDTH 360 0
DWIDTH 6 0
BBX 4 7 1 5
BITMAP
F0
F0
E0
E0
E0
E0
E0
ENDCHAR
STARTCHAR 2E23
ENCODING 11811
SWIDTH 360 0
DWIDTH 6 0
BBX 4 7 1 5
BITMAP
F0
F0
70
70
70
70
70
ENDCHAR
STARTCHAR 2E24
ENCODING 11812
SWIDTH 360 0
DWIDTH 6 0
BBX 4 8 1 -3
BITMAP
E0
E0
E0
E0
E0
E0
F0
F0
ENDCHAR
STARTCHAR 2E25
ENCODING 11813
SWIDTH 360 0
DWIDTH 6 0
BBX 4 8 1 -3
BITMAP
70
70
70
70
70
70
F0
F0
ENDCHAR
STARTCHAR 2E3A
ENCODING 11834
SWIDTH 1500 0
DWIDTH 25 0
BBX 23 2 1 3
BITMAP
FFFFFE
FFFFFE
ENDCHAR
STARTCHAR 2E3B
ENCODING 11835
SWIDTH 2220 0
DWIDTH 37 0
BBX 35 2 1 3
BITMAP
FFFFFFFFE0
FFFFFFFFE0
ENDCHAR
STARTCHAR FB00
ENCODING 64256
SWIDTH 660 0
DWIDTH 11 0
BBX 12 12 0 0
BITMAP
1EF0
3DF0
71C0
FFE0
FFE0
71C0
71C0
71C0
71C0
71C0
71C0
71C0
ENDCHAR
STARTCHAR FB01
ENCODING 64257
SWIDTH 660 0
DWIDTH 11 0
BBX 10 13 0 0
BITMAP
00C0
1DC0
3DC0
7000
FDC0
FDC0
71C0
71C0
71C0
71C0
71C0
71C0
71C0
ENDCHAR
STARTCHAR FB02
ENCODING 64258
SWIDTH 660 0
DWIDTH 11 0
BBX 11 12 0 0
BITMAP
1DC0
3DC0
71C0
FDC0
FDC0
71C0
71C0
71C0
71C0
71C0
71E0
70E0
ENDCHAR
STARTCHAR FB03
ENCODING 64259
SWIDTH 960 0
DWIDTH 16 0
BBX 15 12 0 1
BITMAP
0006
1EFE
3DF6
71C0
FFEE
FFEE
71CE
71CE
71CE
71CE
71CE
71CE
ENDCHAR
STARTCHAR FB04
ENCODING 64260
SWIDTH 960 0
DWIDTH 16 0
BBX 16 12 0 0
BITMAP
1EFE
3DFE
71CE
FFEE
FFEE
71CE
71CE
71CE
71CE
71CE
71C7
71C7
ENDCHAR
STARTCHAR FEFF
ENCODING 65279
SWIDTH 0 0
DWIDTH 0 0
BBX 0 0 0 0
BITMAP
ENDCHAR
ENDFONT
